<svg height="399.95613669496913" width="750"><line x1="2" y1="189.9561366949691" x2="2" y2="399.95613669496913"style="stroke:rgb(0,0,0);stroke-width:3;" />
<line x1="7" y1="189.9561366949691" x2="7" y2="399.9122733899382"style="stroke:rgb(0,0,0);stroke-width:3;" />
<line x1="12" y1="189.9561366949691" x2="12" y2="399.78070271474076"style="stroke:rgb(0,0,0);stroke-width:3;" />
<line x1="17" y1="189.9561366949691" x2="17" y2="399.5614823806234"style="stroke:rgb(0,0,0);stroke-width:3;" />
<line x1="22" y1="189.9561366949691" x2="22" y2="399.25470854486997"style="stroke:rgb(0,0,0);stroke-width:3;" />
<line x1="27" y1="189.9561366949691" x2="27" y2="398.86051576862377"style="stroke:rgb(0,0,0);stroke-width:3;" />
<line x1="32" y1="189.9561366949691" x2="32" y2="398.37907695786464"style="stroke:rgb(0,0,0);stroke-width:3;" />
<line x1="37" y1="189.9561366949691" x2="37" y2="397.8106032875668"style="stroke:rgb(0,0,0);stroke-width:3;" />
<line x1="42" y1="189.9561366949691" x2="42" y2="397.15534410907014"style="stroke:rgb(0,0,0);stroke-width:3;" />
<line x1="47" y1="189.9561366949691" x2="47" y2="396.41358684070684"style="stroke:rgb(0,0,0);stroke-width:3;" />
<line x1="52" y1="189.9561366949691" x2="52" y2="395.58565684173027"style="stroke:rgb(0,0,0);stroke-width:3;" />
<line x1="57" y1="189.9561366949691" x2="57" y2="394.6719172696012"style="stroke:rgb(0,0,0);stroke-width:3;" />
<line x1="62" y1="189.9561366949691" x2="62" y2="393.6727689206953"style="stroke:rgb(0,0,0);stroke-width:3;" />
<line x1="67" y1="189.9561366949691" x2="67" y2="392.5886500545007"style="stroke:rgb(0,0,0);stroke-width:3;" />
<line x1="72" y1="189.9561366949691" x2="72" y2="391.4200362013826"style="stroke:rgb(0,0,0);stroke-width:3;" />
<line x1="77" y1="189.9561366949691" x2="77" y2="390.1674399539998"style="stroke:rgb(0,0,0);stroke-width:3;" />
<line x1="82" y1="189.9561366949691" x2="82" y2="388.8314107424653"style="stroke:rgb(0,0,0);stroke-width:3;" />
<line x1="87" y1="189.9561366949691" x2="87" y2="387.41253459334746"style="stroke:rgb(0,0,0);stroke-width:3;" />
<line x1="92" y1="189.9561366949691" x2="92" y2="385.9114338726194"style="stroke:rgb(0,0,0);stroke-width:3;" />
<line x1="97" y1="189.9561366949691" x2="97" y2="384.32876701266923"style="stroke:rgb(0,0,0);stroke-width:3;" />
<line x1="102" y1="189.9561366949691" x2="102" y2="382.6652282234893"style="stroke:rgb(0,0,0);stroke-width:3;" />
<line x1="107" y1="189.9561366949691" x2="107" y2="380.921547188173"style="stroke:rgb(0,0,0);stroke-width:3;" />
<line x1="112" y1="189.9561366949691" x2="112" y2="379.09848874285166"style="stroke:rgb(0,0,0);stroke-width:3;" />
<line x1="117" y1="189.9561366949691" x2="117" y2="377.196852541212"style="stroke:rgb(0,0,0);stroke-width:3;" />
<line x1="122" y1="189.9561366949691" x2="122" y2="375.2174727037418"style="stroke:rgb(0,0,0);stroke-width:3;" />
<line x1="127" y1="189.9561366949691" x2="127" y2="373.1612174518568"style="stroke:rgb(0,0,0);stroke-width:3;" />
<line x1="132" y1="189.9561366949691" x2="132" y2="371.02898872707044"style="stroke:rgb(0,0,0);stroke-width:3;" />
<line x1="137" y1="189.9561366949691" x2="137" y2="368.8217217953721"style="stroke:rgb(0,0,0);stroke-width:3;" />
<line x1="142" y1="189.9561366949691" x2="142" y2="366.540384836989"style="stroke:rgb(0,0,0);stroke-width:3;" />
<line x1="147" y1="189.9561366949691" x2="147" y2="364.1859785217099"style="stroke:rgb(0,0,0);stroke-width:3;" />
<line x1="152" y1="189.9561366949691" x2="152" y2="361.7595355699586"style="stroke:rgb(0,0,0);stroke-width:3;" />
<line x1="157" y1="189.9561366949691" x2="157" y2="359.2621202998083"style="stroke:rgb(0,0,0);stroke-width:3;" />
<line x1="162" y1="189.9561366949691" x2="162" y2="356.6948281601371"style="stroke:rgb(0,0,0);stroke-width:3;" />
<line x1="167" y1="189.9561366949691" x2="167" y2="354.05878525012696"style="stroke:rgb(0,0,0);stroke-width:3;" />
<line x1="172" y1="189.9561366949691" x2="172" y2="351.3551478253204"style="stroke:rgb(0,0,0);stroke-width:3;" />
<line x1="177" y1="189.9561366949691" x2="177" y2="348.585101790448"style="stroke:rgb(0,0,0);stroke-width:3;" />
<line x1="182" y1="189.9561366949691" x2="182" y2="345.7498621792514"style="stroke:rgb(0,0,0);stroke-width:3;" />
<line x1="187" y1="189.9561366949691" x2="187" y2="342.8506726215298"style="stroke:rgb(0,0,0);stroke-width:3;" />
<line x1="192" y1="189.9561366949691" x2="192" y2="339.88880479764225"style="stroke:rgb(0,0,0);stroke-width:3;" />
<line x1="197" y1="189.9561366949691" x2="197" y2="336.8655578807069"style="stroke:rgb(0,0,0);stroke-width:3;" />
<line x1="202" y1="189.9561366949691" x2="202" y2="333.78225796674076"style="stroke:rgb(0,0,0);stroke-width:3;" />
<line x1="207" y1="189.9561366949691" x2="207" y2="330.6402574929902"style="stroke:rgb(0,0,0);stroke-width:3;" />
<line x1="212" y1="189.9561366949691" x2="212" y2="327.440934644707"style="stroke:rgb(0,0,0);stroke-width:3;" />
<line x1="217" y1="189.9561366949691" x2="217" y2="324.1856927506311"style="stroke:rgb(0,0,0);stroke-width:3;" />
<line x1="222" y1="189.9561366949691" x2="222" y2="320.87595966744414"style="stroke:rgb(0,0,0);stroke-width:3;" />
<line x1="227" y1="189.9561366949691" x2="227" y2="317.5131871534637"style="stroke:rgb(0,0,0);stroke-width:3;" />
<line x1="232" y1="189.9561366949691" x2="232" y2="314.0988502318554"style="stroke:rgb(0,0,0);stroke-width:3;" />
<line x1="237" y1="189.9561366949691" x2="237" y2="310.634446543638"style="stroke:rgb(0,0,0);stroke-width:3;" />
<line x1="242" y1="189.9561366949691" x2="242" y2="307.1214956907684"style="stroke:rgb(0,0,0);stroke-width:3;" />
<line x1="247" y1="189.9561366949691" x2="247" y2="303.56153856959514"style="stroke:rgb(0,0,0);stroke-width:3;" />
<line x1="252" y1="189.9561366949691" x2="252" y2="299.95613669496913"style="stroke:rgb(0,0,0);stroke-width:3;" />
<line x1="257" y1="189.9561366949691" x2="257" y2="296.30687151531214"style="stroke:rgb(0,0,0);stroke-width:3;" />
<line x1="262" y1="189.9561366949691" x2="262" y2="292.61534371894146"style="stroke:rgb(0,0,0);stroke-width:3;" />
<line x1="267" y1="189.9561366949691" x2="267" y2="288.88317253195464"style="stroke:rgb(0,0,0);stroke-width:3;" />
<line x1="272" y1="189.9561366949691" x2="272" y2="285.11199500798364"style="stroke:rgb(0,0,0);stroke-width:3;" />
<line x1="277" y1="189.9561366949691" x2="277" y2="281.3034653101291"style="stroke:rgb(0,0,0);stroke-width:3;" />
<line x1="282" y1="189.9561366949691" x2="282" y2="277.45925398538975"style="stroke:rgb(0,0,0);stroke-width:3;" />
<line x1="287" y1="189.9561366949691" x2="287" y2="273.58104723190473"style="stroke:rgb(0,0,0);stroke-width:3;" />
<line x1="292" y1="189.9561366949691" x2="292" y2="269.67054615933216"style="stroke:rgb(0,0,0);stroke-width:3;" />
<line x1="297" y1="189.9561366949691" x2="297" y2="265.7294660426858"style="stroke:rgb(0,0,0);stroke-width:3;" />
<line x1="302" y1="189.9561366949691" x2="302" y2="261.7595355699586"style="stroke:rgb(0,0,0);stroke-width:3;" />
<line x1="307" y1="189.9561366949691" x2="307" y2="257.7624960838634"style="stroke:rgb(0,0,0);stroke-width:3;" />
<line x1="312" y1="189.9561366949691" x2="312" y2="253.74010081802228"style="stroke:rgb(0,0,0);stroke-width:3;" />
<line x1="317" y1="189.9561366949691" x2="317" y2="249.6941141279401"style="stroke:rgb(0,0,0);stroke-width:3;" />
<line x1="322" y1="189.9561366949691" x2="322" y2="245.62631071710024"style="stroke:rgb(0,0,0);stroke-width:3;" />
<line x1="327" y1="189.9561366949691" x2="327" y2="241.538474858521"style="stroke:rgb(0,0,0);stroke-width:3;" />
<line x1="332" y1="189.9561366949691" x2="332" y2="237.43239961211407"style="stroke:rgb(0,0,0);stroke-width:3;" />
<line x1="337" y1="189.9561366949691" x2="337" y2="233.30988603818952"style="stroke:rgb(0,0,0);stroke-width:3;" />
<line x1="342" y1="189.9561366949691" x2="342" y2="229.17274240745144"style="stroke:rgb(0,0,0);stroke-width:3;" />
<line x1="347" y1="189.9561366949691" x2="347" y2="225.02278340782996"style="stroke:rgb(0,0,0);stroke-width:3;" />
<line x1="352" y1="189.9561366949691" x2="352" y2="220.86182934849978"style="stroke:rgb(0,0,0);stroke-width:3;" />
<line x1="357" y1="189.9561366949691" x2="357" y2="216.69170536143224"style="stroke:rgb(0,0,0);stroke-width:3;" />
<line x1="362" y1="189.9561366949691" x2="362" y2="212.5142406008318"style="stroke:rgb(0,0,0);stroke-width:3;" />
<line x1="367" y1="189.9561366949691" x2="367" y2="208.331267440809"style="stroke:rgb(0,0,0);stroke-width:3;" />
<line x1="372" y1="189.9561366949691" x2="372" y2="204.14462067164052"style="stroke:rgb(0,0,0);stroke-width:3;" />
<line x1="377" y1="189.9561366949691" x2="377" y2="199.9561366949691"style="stroke:rgb(0,0,0);stroke-width:3;" />
<line x1="382" y1="189.9561366949691" x2="382" y2="195.7676527182977"style="stroke:rgb(0,0,0);stroke-width:3;" />
<line x1="387" y1="189.9561366949691" x2="387" y2="191.58100594912923"style="stroke:rgb(0,0,0);stroke-width:3;" />
<line x1="392" y1="189.9561366949691" x2="392" y2="187.39803278910642"style="stroke:rgb(0,0,0);stroke-width:3;" />
<line x1="397" y1="189.9561366949691" x2="397" y2="183.220568028506"style="stroke:rgb(0,0,0);stroke-width:3;" />
<line x1="402" y1="189.9561366949691" x2="402" y2="179.05044404143842"style="stroke:rgb(0,0,0);stroke-width:3;" />
<line x1="407" y1="189.9561366949691" x2="407" y2="174.88948998210822"style="stroke:rgb(0,0,0);stroke-width:3;" />
<line x1="412" y1="189.9561366949691" x2="412" y2="170.73953098248674"style="stroke:rgb(0,0,0);stroke-width:3;" />
<line x1="417" y1="189.9561366949691" x2="417" y2="166.60238735174866"style="stroke:rgb(0,0,0);stroke-width:3;" />
<line x1="422" y1="189.9561366949691" x2="422" y2="162.47987377782414"style="stroke:rgb(0,0,0);stroke-width:3;" />
<line x1="427" y1="189.9561366949691" x2="427" y2="158.37379853141726"style="stroke:rgb(0,0,0);stroke-width:3;" />
<line x1="432" y1="189.9561366949691" x2="432" y2="154.28596267283802"style="stroke:rgb(0,0,0);stroke-width:3;" />
<line x1="437" y1="189.9561366949691" x2="437" y2="150.21815926199818"style="stroke:rgb(0,0,0);stroke-width:3;" />
<line x1="442" y1="189.9561366949691" x2="442" y2="146.17217257191598"style="stroke:rgb(0,0,0);stroke-width:3;" />
<line x1="447" y1="189.9561366949691" x2="447" y2="142.14977730607484"style="stroke:rgb(0,0,0);stroke-width:3;" />
<line x1="452" y1="189.9561366949691" x2="452" y2="138.15273781997962"style="stroke:rgb(0,0,0);stroke-width:3;" />
<line x1="457" y1="189.9561366949691" x2="457" y2="134.18280734725246"style="stroke:rgb(0,0,0);stroke-width:3;" />
<line x1="462" y1="189.9561366949691" x2="462" y2="130.2417272306061"style="stroke:rgb(0,0,0);stroke-width:3;" />
<line x1="467" y1="189.9561366949691" x2="467" y2="126.3312261580335"style="stroke:rgb(0,0,0);stroke-width:3;" />
<line x1="472" y1="189.9561366949691" x2="472" y2="122.4530194045485"style="stroke:rgb(0,0,0);stroke-width:3;" />
<line x1="477" y1="189.9561366949691" x2="477" y2="118.60880807980908"style="stroke:rgb(0,0,0);stroke-width:3;" />
<line x1="482" y1="189.9561366949691" x2="482" y2="114.80027838195456"style="stroke:rgb(0,0,0);stroke-width:3;" />
<line x1="487" y1="189.9561366949691" x2="487" y2="111.02910085798358"style="stroke:rgb(0,0,0);stroke-width:3;" />
<line x1="492" y1="189.9561366949691" x2="492" y2="107.2969296709968"style="stroke:rgb(0,0,0);stroke-width:3;" />
<line x1="497" y1="189.9561366949691" x2="497" y2="103.60540187462601"style="stroke:rgb(0,0,0);stroke-width:3;" />
<line x1="502" y1="189.9561366949691" x2="502" y2="99.95613669496906"style="stroke:rgb(0,0,0);stroke-width:3;" />
<line x1="507" y1="189.9561366949691" x2="507" y2="96.35073482034309"style="stroke:rgb(0,0,0);stroke-width:3;" />
<line x1="512" y1="189.9561366949691" x2="512" y2="92.79077769916972"style="stroke:rgb(0,0,0);stroke-width:3;" />
<line x1="517" y1="189.9561366949691" x2="517" y2="89.2778268463003"style="stroke:rgb(0,0,0);stroke-width:3;" />
<line x1="522" y1="189.9561366949691" x2="522" y2="85.81342315808286"style="stroke:rgb(0,0,0);stroke-width:3;" />
<line x1="527" y1="189.9561366949691" x2="527" y2="82.3990862364745"style="stroke:rgb(0,0,0);stroke-width:3;" />
<line x1="532" y1="189.9561366949691" x2="532" y2="79.03631372249414"style="stroke:rgb(0,0,0);stroke-width:3;" />
<line x1="537" y1="189.9561366949691" x2="537" y2="75.72658063930712"style="stroke:rgb(0,0,0);stroke-width:3;" />
<line x1="542" y1="189.9561366949691" x2="542" y2="72.47133874523115"style="stroke:rgb(0,0,0);stroke-width:3;" />
<line x1="547" y1="189.9561366949691" x2="547" y2="69.272015896948"style="stroke:rgb(0,0,0);stroke-width:3;" />
<line x1="552" y1="189.9561366949691" x2="552" y2="66.13001542319753"style="stroke:rgb(0,0,0);stroke-width:3;" />
<line x1="557" y1="189.9561366949691" x2="557" y2="63.04671550923135"style="stroke:rgb(0,0,0);stroke-width:3;" />
<line x1="562" y1="189.9561366949691" x2="562" y2="60.02346859229601"style="stroke:rgb(0,0,0);stroke-width:3;" />
<line x1="567" y1="189.9561366949691" x2="567" y2="57.06160076840848"style="stroke:rgb(0,0,0);stroke-width:3;" />
<line x1="572" y1="189.9561366949691" x2="572" y2="54.16241121068683"style="stroke:rgb(0,0,0);stroke-width:3;" />
<line x1="577" y1="189.9561366949691" x2="577" y2="51.32717159949024"style="stroke:rgb(0,0,0);stroke-width:3;" />
<line x1="582" y1="189.9561366949691" x2="582" y2="48.55712556461785"style="stroke:rgb(0,0,0);stroke-width:3;" />
<line x1="587" y1="189.9561366949691" x2="587" y2="45.853488139811276"style="stroke:rgb(0,0,0);stroke-width:3;" />
<line x1="592" y1="189.9561366949691" x2="592" y2="43.217445229801115"style="stroke:rgb(0,0,0);stroke-width:3;" />
<line x1="597" y1="189.9561366949691" x2="597" y2="40.65015309012986"style="stroke:rgb(0,0,0);stroke-width:3;" />
<line x1="602" y1="189.9561366949691" x2="602" y2="38.15273781997965"style="stroke:rgb(0,0,0);stroke-width:3;" />
<line x1="607" y1="189.9561366949691" x2="607" y2="35.72629486822825"style="stroke:rgb(0,0,0);stroke-width:3;" />
<line x1="612" y1="189.9561366949691" x2="612" y2="33.37188855294923"style="stroke:rgb(0,0,0);stroke-width:3;" />
<line x1="617" y1="189.9561366949691" x2="617" y2="31.090551594566136"style="stroke:rgb(0,0,0);stroke-width:3;" />
<line x1="622" y1="189.9561366949691" x2="622" y2="28.883284662867794"style="stroke:rgb(0,0,0);stroke-width:3;" />
<line x1="627" y1="189.9561366949691" x2="627" y2="26.751055938081407"style="stroke:rgb(0,0,0);stroke-width:3;" />
<line x1="632" y1="189.9561366949691" x2="632" y2="24.694800686196402"style="stroke:rgb(0,0,0);stroke-width:3;" />
<line x1="637" y1="189.9561366949691" x2="637" y2="22.715420848726154"style="stroke:rgb(0,0,0);stroke-width:3;" />
<line x1="642" y1="189.9561366949691" x2="642" y2="20.813784647086578"style="stroke:rgb(0,0,0);stroke-width:3;" />
<line x1="647" y1="189.9561366949691" x2="647" y2="18.990726201765227"style="stroke:rgb(0,0,0);stroke-width:3;" />
<line x1="652" y1="189.9561366949691" x2="652" y2="17.247045166448913"style="stroke:rgb(0,0,0);stroke-width:3;" />
<line x1="657" y1="189.9561366949691" x2="657" y2="15.583506377269032"style="stroke:rgb(0,0,0);stroke-width:3;" />
<line x1="662" y1="189.9561366949691" x2="662" y2="14.000839517318838"style="stroke:rgb(0,0,0);stroke-width:3;" />
<line x1="667" y1="189.9561366949691" x2="667" y2="12.499738796590805"style="stroke:rgb(0,0,0);stroke-width:3;" />
<line x1="672" y1="189.9561366949691" x2="672" y2="11.080862647472912"style="stroke:rgb(0,0,0);stroke-width:3;" />
<line x1="677" y1="189.9561366949691" x2="677" y2="9.744833435938403"style="stroke:rgb(0,0,0);stroke-width:3;" />
<line x1="682" y1="189.9561366949691" x2="682" y2="8.492237188555663"style="stroke:rgb(0,0,0);stroke-width:3;" />
<line x1="687" y1="189.9561366949691" x2="687" y2="7.323623335437475"style="stroke:rgb(0,0,0);stroke-width:3;" />
<line x1="692" y1="189.9561366949691" x2="692" y2="6.239504469242888"style="stroke:rgb(0,0,0);stroke-width:3;" />
<line x1="697" y1="189.9561366949691" x2="697" y2="5.240356120337054"style="stroke:rgb(0,0,0);stroke-width:3;" />
<line x1="702" y1="189.9561366949691" x2="702" y2="4.326616548207966"style="stroke:rgb(0,0,0);stroke-width:3;" />
<line x1="707" y1="189.9561366949691" x2="707" y2="3.498686549231394"style="stroke:rgb(0,0,0);stroke-width:3;" />
<line x1="712" y1="189.9561366949691" x2="712" y2="2.756929280868121"style="stroke:rgb(0,0,0);stroke-width:3;" />
<line x1="717" y1="189.9561366949691" x2="717" y2="2.1016701023714575"style="stroke:rgb(0,0,0);stroke-width:3;" />
<line x1="722" y1="189.9561366949691" x2="722" y2="1.533196432073538"style="stroke:rgb(0,0,0);stroke-width:3;" />
<line x1="727" y1="189.9561366949691" x2="727" y2="1.0517576213144366"style="stroke:rgb(0,0,0);stroke-width:3;" />
<line x1="732" y1="189.9561366949691" x2="732" y2="0.6575648450682365"style="stroke:rgb(0,0,0);stroke-width:3;" />
<line x1="737" y1="189.9561366949691" x2="737" y2="0.3507910093148041"style="stroke:rgb(0,0,0);stroke-width:3;" />
<line x1="742" y1="189.9561366949691" x2="742" y2="0.13157067519742327"style="stroke:rgb(0,0,0);stroke-width:3;" />
<line x1="747" y1="189.9561366949691" x2="747" y2="0.0"style="stroke:rgb(0,0,0);stroke-width:3;" /></svg>