<svg width="420" height="263" viewBox="0 0 420 263" fill="none" xmlns="http://www.w3.org/2000/svg">
<path d="M160 157L50 97M160 157L50 217M160 157H300M300 157L410 97M300 157L410 217" stroke="#EA0A3C" stroke-width="6"/>
<path d="M50 97.5L160 26.5M50 97.5L252 72M50 97.5L10 152.5L50 217L234.5 253.5L411 217V97.5M160 26.5L252 72M160 26.5L339.5 10L411 97.5M252 72L411 97.5" stroke="black" stroke-width="4"/>
<circle cx="410" cy="217" r="9.5" fill="#929292" stroke="white"/>
<circle cx="410" cy="97" r="9.5" fill="#929292" stroke="white"/>
<circle cx="300" cy="157" r="9.5" fill="#929292" stroke="white"/>
<circle cx="50" cy="217" r="9.5" fill="#929292" stroke="white"/>
<circle cx="10" cy="152" r="9.5" fill="#929292" stroke="white"/>
<circle cx="235" cy="253" r="9.5" fill="#929292" stroke="white"/>
<circle cx="50" cy="97" r="9.5" fill="#929292" stroke="white"/>
<circle cx="160" cy="27" r="9.5" fill="#929292" stroke="white"/>
<circle cx="339" cy="10" r="9.5" fill="#929292" stroke="white"/>
<circle cx="253" cy="72" r="9.5" fill="#929292" stroke="white"/>
<circle cx="160" cy="157" r="9.5" fill="#3F6DB1" stroke="white"/>
<path d="M112.407 122H110.772V111.163L107.494 112.367V110.891L112.152 109.142H112.407V122Z" fill="black"/>
<path d="M228.428 172.811H229.649C230.417 172.799 231.021 172.597 231.46 172.204C231.899 171.812 232.119 171.281 232.119 170.613C232.119 169.113 231.372 168.363 229.878 168.363C229.175 168.363 228.612 168.565 228.19 168.97C227.774 169.368 227.566 169.898 227.566 170.561H225.94C225.94 169.547 226.31 168.706 227.048 168.038C227.792 167.364 228.735 167.027 229.878 167.027C231.085 167.027 232.031 167.347 232.717 167.985C233.402 168.624 233.745 169.512 233.745 170.648C233.745 171.205 233.563 171.744 233.2 172.266C232.843 172.787 232.354 173.177 231.732 173.435C232.436 173.657 232.978 174.026 233.358 174.542C233.745 175.058 233.938 175.688 233.938 176.432C233.938 177.58 233.563 178.491 232.813 179.165C232.063 179.839 231.088 180.176 229.887 180.176C228.686 180.176 227.707 179.851 226.951 179.2C226.201 178.55 225.826 177.691 225.826 176.625H227.461C227.461 177.299 227.681 177.838 228.12 178.242C228.56 178.646 229.148 178.849 229.887 178.849C230.672 178.849 231.272 178.644 231.688 178.233C232.104 177.823 232.312 177.234 232.312 176.467C232.312 175.723 232.084 175.151 231.627 174.753C231.17 174.354 230.511 174.149 229.649 174.138H228.428V172.811Z" fill="black"/>
<path d="M115.448 204H107.063V202.831L111.493 197.909C112.149 197.165 112.601 196.562 112.847 196.099C113.099 195.63 113.225 195.146 113.225 194.648C113.225 193.98 113.022 193.433 112.618 193.005C112.214 192.577 111.675 192.363 111.001 192.363C110.192 192.363 109.562 192.595 109.111 193.058C108.666 193.515 108.443 194.153 108.443 194.974H106.817C106.817 193.796 107.195 192.844 107.951 192.117C108.713 191.391 109.729 191.027 111.001 191.027C112.19 191.027 113.131 191.341 113.822 191.968C114.514 192.589 114.859 193.418 114.859 194.455C114.859 195.715 114.057 197.215 112.451 198.955L109.023 202.673H115.448V204Z" fill="black"/>
<path d="M349.407 204H347.772V193.163L344.494 194.367V192.891L349.152 191.142H349.407V204Z" fill="black"/>
<path d="M352.448 122H344.063V120.831L348.493 115.909C349.149 115.165 349.601 114.562 349.847 114.099C350.099 113.63 350.225 113.146 350.225 112.648C350.225 111.98 350.022 111.433 349.618 111.005C349.214 110.577 348.675 110.363 348.001 110.363C347.192 110.363 346.562 110.595 346.111 111.058C345.666 111.515 345.443 112.153 345.443 112.974H343.817C343.817 111.796 344.195 110.844 344.951 110.117C345.713 109.391 346.729 109.027 348.001 109.027C349.19 109.027 350.131 109.341 350.822 109.968C351.514 110.589 351.859 111.418 351.859 112.455C351.859 113.715 351.057 115.215 349.451 116.955L346.023 120.673H352.448V122Z" fill="black"/>
<path d="M151.188 171.204C151.2 171.204 151.646 171.173 152.526 171.111C153.405 171.05 153.857 171.012 153.882 171C154.031 171 154.105 171.05 154.105 171.149C154.105 171.235 153.653 173.106 152.749 176.76C151.844 180.415 151.38 182.279 151.355 182.353C151.33 182.428 151.324 182.521 151.336 182.632C151.336 183.152 151.51 183.413 151.857 183.413C151.968 183.4 152.092 183.344 152.228 183.245C152.488 182.998 152.742 182.403 152.99 181.461C153.064 181.214 153.126 181.084 153.176 181.071C153.201 181.059 153.263 181.053 153.362 181.053H153.51C153.696 181.053 153.789 181.102 153.789 181.201C153.789 181.263 153.771 181.362 153.733 181.499C153.572 182.118 153.387 182.62 153.176 183.004C152.965 183.388 152.792 183.636 152.656 183.747C152.519 183.859 152.346 183.958 152.135 184.044C152.036 184.069 151.888 184.082 151.689 184.082C151.268 184.082 150.915 183.989 150.63 183.803C150.345 183.617 150.16 183.425 150.073 183.227L149.961 182.948C149.949 182.936 149.924 182.942 149.887 182.967L149.813 183.041C149.082 183.735 148.339 184.082 147.583 184.082C146.902 184.082 146.301 183.834 145.78 183.338C145.26 182.843 145 182.056 145 180.978C145 180.384 145.124 179.777 145.372 179.157C145.619 178.538 145.917 178.005 146.264 177.559C146.846 176.853 147.428 176.364 148.01 176.091C148.592 175.819 149.119 175.683 149.59 175.683C150.283 175.683 150.804 175.943 151.151 176.463C151.212 176.537 151.243 176.562 151.243 176.537C151.256 176.488 151.423 175.813 151.745 174.512C152.067 173.211 152.241 172.524 152.265 172.449C152.265 172.288 152.222 172.189 152.135 172.152C152.049 172.115 151.807 172.084 151.411 172.059H151.02C150.946 171.985 150.909 171.935 150.909 171.91C150.909 171.886 150.921 171.768 150.946 171.557C151.008 171.322 151.089 171.204 151.188 171.204ZM150.928 177.838C150.643 176.859 150.178 176.37 149.534 176.37C149.1 176.37 148.685 176.562 148.289 176.946C147.893 177.33 147.583 177.832 147.36 178.451C147.001 179.43 146.747 180.446 146.598 181.499V181.703C146.598 181.802 146.592 181.876 146.579 181.926C146.579 182.483 146.691 182.867 146.914 183.078C147.137 183.289 147.403 183.4 147.713 183.413C148.382 183.413 149.069 182.967 149.776 182.075L149.924 181.87L150.928 177.838Z" fill="#3F6DB1"/>
<path d="M156.473 178.812C156.473 178.601 156.557 178.417 156.723 178.26C156.889 178.102 157.082 178.019 157.301 178.01C157.459 178.01 157.59 178.063 157.695 178.168C157.8 178.273 157.857 178.404 157.866 178.562C157.866 178.763 157.778 178.947 157.603 179.114C157.428 179.28 157.235 179.368 157.025 179.376C156.894 179.376 156.771 179.333 156.657 179.245C156.543 179.158 156.482 179.013 156.473 178.812ZM154.332 182.924C154.332 182.853 154.371 182.718 154.45 182.516C154.529 182.315 154.634 182.092 154.766 181.846C154.897 181.601 155.09 181.378 155.344 181.176C155.598 180.975 155.86 180.879 156.132 180.887C156.473 180.887 156.758 180.988 156.986 181.189C157.213 181.391 157.332 181.662 157.34 182.004C157.34 182.153 157.279 182.398 157.157 182.74C157.034 183.081 156.859 183.541 156.631 184.119C156.403 184.697 156.219 185.192 156.079 185.604C156.035 185.796 156.014 185.936 156.014 186.024C156.014 186.243 156.088 186.352 156.237 186.352C156.316 186.352 156.399 186.339 156.487 186.313C156.574 186.287 156.675 186.225 156.789 186.129C156.903 186.033 157.021 185.879 157.143 185.669C157.266 185.459 157.375 185.201 157.472 184.894C157.498 184.789 157.52 184.728 157.537 184.71C157.555 184.693 157.629 184.684 157.761 184.684C157.936 184.684 158.024 184.728 158.024 184.815C158.024 184.885 157.984 185.021 157.905 185.223C157.827 185.424 157.717 185.647 157.577 185.893C157.437 186.138 157.24 186.357 156.986 186.549C156.732 186.742 156.46 186.838 156.171 186.838C155.891 186.838 155.633 186.746 155.396 186.563C155.16 186.379 155.037 186.098 155.028 185.722C155.028 185.573 155.05 185.433 155.094 185.301C155.138 185.17 155.326 184.671 155.659 183.804C155.992 182.919 156.184 182.389 156.237 182.214C156.289 182.039 156.32 181.868 156.329 181.702C156.329 181.492 156.254 181.386 156.106 181.386H156.079C155.817 181.386 155.576 181.531 155.357 181.82C155.138 182.109 154.971 182.477 154.857 182.924C154.849 182.932 154.84 182.945 154.831 182.963C154.822 182.98 154.818 182.994 154.818 183.002C154.818 183.011 154.809 183.02 154.792 183.029C154.774 183.037 154.761 183.042 154.752 183.042C154.744 183.042 154.726 183.042 154.7 183.042C154.674 183.042 154.639 183.042 154.595 183.042H154.411C154.358 182.989 154.332 182.95 154.332 182.924Z" fill="#3F6DB1"/>
<path d="M166.647 177.448C166.647 177.287 166.734 177.163 166.908 177.076H178.744C178.93 177.175 179.023 177.299 179.023 177.448C179.023 177.584 178.936 177.702 178.763 177.801L172.854 177.82H166.945C166.747 177.758 166.647 177.634 166.647 177.448ZM166.647 181.053C166.647 180.867 166.747 180.743 166.945 180.681H178.763C178.936 180.805 179.023 180.929 179.023 181.053C179.023 181.214 178.93 181.338 178.744 181.424H166.908C166.734 181.338 166.647 181.214 166.647 181.053Z" fill="#3F6DB1"/>
<path d="M186.01 178.08C186.01 176.06 186.512 174.462 187.515 173.286C188.518 172.109 189.633 171.52 190.86 171.52C191.715 171.52 192.328 171.743 192.699 172.189C193.071 172.635 193.257 173.131 193.257 173.676C193.257 173.985 193.17 174.233 192.997 174.419C192.823 174.605 192.582 174.698 192.272 174.698C191.987 174.698 191.752 174.611 191.566 174.438C191.38 174.264 191.287 174.023 191.287 173.713C191.287 173.168 191.578 172.84 192.16 172.728C191.888 172.456 191.504 172.301 191.008 172.264C190.129 172.264 189.404 172.635 188.834 173.378C188.252 174.196 187.961 175.447 187.961 177.132L187.98 177.206C188.042 177.132 188.091 177.051 188.128 176.965C188.636 176.221 189.299 175.85 190.117 175.85H190.191C190.761 175.85 191.262 175.968 191.696 176.203C191.993 176.376 192.291 176.624 192.588 176.946C192.885 177.268 193.127 177.621 193.313 178.005C193.573 178.612 193.703 179.275 193.703 179.994V180.328C193.703 180.613 193.672 180.879 193.61 181.127C193.474 181.858 193.077 182.57 192.421 183.264C191.764 183.958 190.934 184.305 189.931 184.305C189.584 184.305 189.249 184.255 188.927 184.156C188.605 184.057 188.258 183.871 187.887 183.598C187.515 183.326 187.199 182.96 186.939 182.502C186.679 182.044 186.456 181.443 186.27 180.7C186.084 179.956 185.998 179.083 186.01 178.08ZM190.005 176.519C189.633 176.519 189.311 176.624 189.039 176.835C188.766 177.045 188.556 177.324 188.407 177.671C188.258 178.018 188.153 178.371 188.091 178.73C188.029 179.089 187.992 179.473 187.98 179.882C187.98 180.91 188.054 181.647 188.203 182.093C188.351 182.539 188.587 182.899 188.909 183.171C189.206 183.394 189.534 183.506 189.894 183.506C190.525 183.506 191.008 183.27 191.343 182.799C191.504 182.576 191.615 182.298 191.677 181.963C191.739 181.629 191.77 180.978 191.77 180.012C191.77 179.021 191.739 178.358 191.677 178.024C191.615 177.689 191.504 177.411 191.343 177.188C191.008 176.742 190.562 176.519 190.005 176.519Z" fill="#3F6DB1"/>
<path d="M204.539 136.366C204.551 136.366 204.997 136.335 205.876 136.273C206.756 136.211 207.208 136.174 207.233 136.162C207.381 136.162 207.456 136.211 207.456 136.31C207.456 136.385 207.171 137.58 206.601 139.896L205.709 143.426H205.765L205.951 143.352C206.087 143.302 206.254 143.228 206.452 143.129C206.651 143.03 206.88 142.912 207.14 142.776C207.4 142.64 207.691 142.435 208.013 142.163C208.335 141.89 208.651 141.605 208.961 141.308C210.174 140.082 210.998 138.664 211.432 137.053C211.593 136.459 211.908 136.162 212.379 136.162C212.54 136.162 212.683 136.211 212.806 136.31C212.93 136.409 212.998 136.552 213.011 136.738C213.011 136.998 212.924 137.363 212.751 137.834C212.577 138.304 212.286 138.862 211.877 139.506C211.469 140.15 210.967 140.769 210.373 141.364C209.778 141.958 209.029 142.528 208.125 143.073C207.22 143.618 206.223 144.021 205.133 144.281C204.824 144.367 204.607 144.411 204.483 144.411C204.421 144.411 204.347 144.405 204.26 144.392C204.173 144.38 204.124 144.367 204.111 144.355C204.037 144.305 204 144.244 204 144.169C204 144.144 204.266 143.048 204.799 140.881L205.616 137.611C205.629 137.45 205.585 137.351 205.486 137.314C205.387 137.276 205.146 137.245 204.762 137.221H204.372C204.297 137.146 204.26 137.097 204.26 137.072C204.26 137.047 204.272 136.93 204.297 136.719C204.347 136.484 204.427 136.366 204.539 136.366Z" fill="#EA0A3C"/>
<path d="M214.758 139.279C214.758 139.069 214.842 138.885 215.008 138.728C215.174 138.57 215.367 138.487 215.586 138.478C215.744 138.478 215.875 138.53 215.98 138.636C216.085 138.741 216.142 138.872 216.151 139.03C216.151 139.231 216.063 139.415 215.888 139.581C215.713 139.748 215.52 139.835 215.31 139.844C215.179 139.844 215.056 139.8 214.942 139.713C214.828 139.625 214.767 139.481 214.758 139.279ZM212.617 143.391C212.617 143.32 212.657 143.185 212.736 142.983C212.814 142.782 212.919 142.559 213.051 142.313C213.182 142.068 213.375 141.845 213.629 141.644C213.883 141.442 214.145 141.346 214.417 141.355C214.758 141.355 215.043 141.455 215.271 141.657C215.498 141.858 215.617 142.13 215.625 142.471C215.625 142.62 215.564 142.865 215.441 143.207C215.319 143.548 215.144 144.008 214.916 144.586C214.688 145.164 214.504 145.659 214.364 146.07C214.321 146.263 214.299 146.403 214.299 146.49C214.299 146.709 214.373 146.819 214.522 146.819C214.601 146.819 214.684 146.806 214.771 146.779C214.859 146.753 214.96 146.692 215.074 146.596C215.187 146.499 215.306 146.346 215.428 146.136C215.551 145.926 215.66 145.667 215.757 145.361C215.783 145.256 215.805 145.194 215.822 145.177C215.84 145.159 215.914 145.151 216.046 145.151C216.221 145.151 216.308 145.194 216.308 145.282C216.308 145.352 216.269 145.488 216.19 145.689C216.111 145.891 216.002 146.114 215.862 146.359C215.722 146.604 215.525 146.823 215.271 147.016C215.017 147.209 214.745 147.305 214.456 147.305C214.176 147.305 213.918 147.213 213.681 147.029C213.445 146.845 213.322 146.565 213.313 146.188C213.313 146.04 213.335 145.899 213.379 145.768C213.423 145.637 213.611 145.138 213.944 144.271C214.277 143.386 214.469 142.856 214.522 142.681C214.574 142.506 214.605 142.335 214.614 142.169C214.614 141.959 214.539 141.854 214.391 141.854H214.364C214.102 141.854 213.861 141.998 213.642 142.287C213.423 142.576 213.257 142.944 213.143 143.391C213.134 143.399 213.125 143.412 213.116 143.43C213.108 143.447 213.103 143.461 213.103 143.469C213.103 143.478 213.095 143.487 213.077 143.496C213.06 143.504 213.046 143.509 213.038 143.509C213.029 143.509 213.011 143.509 212.985 143.509C212.959 143.509 212.924 143.509 212.88 143.509H212.696C212.644 143.456 212.617 143.417 212.617 143.391Z" fill="#EA0A3C"/>
<path d="M220.774 139.332C220.774 139.06 220.866 138.85 221.05 138.701C221.234 138.552 221.422 138.478 221.615 138.478C221.764 138.478 221.886 138.522 221.983 138.609C222.079 138.697 222.14 138.82 222.167 138.977C222.167 139.222 222.084 139.428 221.917 139.594C221.751 139.761 221.558 139.844 221.339 139.844C221.182 139.844 221.05 139.8 220.945 139.713C220.84 139.625 220.783 139.498 220.774 139.332ZM220.656 142.222C220.656 141.968 220.542 141.841 220.315 141.841C220.122 141.841 219.938 141.893 219.763 141.998C219.588 142.103 219.435 142.239 219.303 142.405C219.172 142.572 219.067 142.734 218.988 142.891C218.909 143.049 218.835 143.189 218.765 143.312L218.673 143.496C218.655 143.504 218.585 143.509 218.463 143.509H218.279C218.226 143.456 218.2 143.421 218.2 143.404C218.2 143.386 218.217 143.329 218.252 143.233C218.436 142.804 218.695 142.401 219.027 142.025C219.36 141.648 219.745 141.429 220.183 141.368H220.288C220.35 141.368 220.402 141.363 220.446 141.355C220.656 141.363 220.849 141.407 221.024 141.486C221.243 141.609 221.409 141.744 221.523 141.893C221.637 142.042 221.694 142.274 221.694 142.589V142.8L221.05 145.413C220.604 147.165 220.367 148.076 220.341 148.146C220.183 148.583 219.877 148.973 219.421 149.315C218.966 149.656 218.445 149.831 217.858 149.84C217.42 149.84 217.123 149.748 216.965 149.564C216.807 149.38 216.724 149.179 216.716 148.96C216.716 148.724 216.799 148.522 216.965 148.356C217.131 148.189 217.333 148.102 217.569 148.093C217.718 148.093 217.845 148.137 217.95 148.224C218.055 148.312 218.112 148.448 218.121 148.632C218.121 148.947 217.981 149.188 217.701 149.354C217.753 149.363 217.815 149.367 217.885 149.367C218.182 149.367 218.454 149.245 218.699 148.999C218.944 148.754 219.132 148.465 219.264 148.132L219.408 147.581C219.505 147.204 219.618 146.749 219.75 146.215C219.881 145.681 220.021 145.133 220.17 144.573C220.319 144.012 220.437 143.526 220.525 143.115C220.612 142.703 220.661 142.454 220.669 142.366C220.669 142.305 220.665 142.257 220.656 142.222Z" fill="#EA0A3C"/>
<path d="M230.364 137.927C230.364 137.766 230.45 137.642 230.624 137.555H242.459C242.644 137.654 242.737 137.778 242.737 137.927C242.737 138.063 242.65 138.181 242.477 138.28L236.569 138.298H230.661C230.463 138.236 230.364 138.112 230.364 137.927ZM230.364 141.531C230.364 141.345 230.463 141.221 230.661 141.159H242.477C242.65 141.283 242.737 141.407 242.737 141.531C242.737 141.692 242.644 141.816 242.459 141.903H230.624C230.45 141.816 230.364 141.692 230.364 141.531Z" fill="#EA0A3C"/>
<path d="M255.483 139.041C254.888 139.983 254.145 140.453 253.253 140.453C252.287 140.453 251.494 140.088 250.875 139.357C250.256 138.626 249.884 137.846 249.76 137.016C249.735 136.818 249.723 136.57 249.723 136.273V136.125C249.723 134.973 250.15 133.969 251.005 133.115C251.748 132.372 252.566 132 253.457 132H253.569C253.618 132 253.668 132.006 253.718 132.019H253.792C253.94 132.019 254.095 132.031 254.256 132.056C254.417 132.081 254.646 132.155 254.944 132.279C255.241 132.403 255.532 132.601 255.817 132.873C256.102 133.146 256.368 133.511 256.616 133.969C257.148 135.059 257.415 136.459 257.415 138.168C257.415 139.902 257.043 141.37 256.3 142.571C255.866 143.265 255.346 143.804 254.739 144.188C254.132 144.572 253.488 144.77 252.807 144.782C252.052 144.782 251.432 144.603 250.949 144.244C250.466 143.884 250.219 143.352 250.206 142.646C250.194 141.94 250.522 141.593 251.191 141.605C251.463 141.605 251.692 141.692 251.878 141.865C252.064 142.039 252.157 142.28 252.157 142.59C252.157 142.813 252.101 143.005 251.99 143.166C251.878 143.327 251.779 143.426 251.692 143.463C251.606 143.5 251.525 143.531 251.451 143.556L251.377 143.575C251.377 143.599 251.42 143.637 251.507 143.686C251.593 143.736 251.754 143.798 251.99 143.872C252.225 143.946 252.485 143.977 252.77 143.965H252.881C253.625 143.965 254.25 143.568 254.758 142.776C255.241 142.082 255.483 140.881 255.483 139.171V139.041ZM253.476 139.766C254.071 139.766 254.547 139.463 254.907 138.856C255.266 138.249 255.452 137.425 255.464 136.385C255.464 135.419 255.414 134.725 255.315 134.304C255.291 134.18 255.253 134.056 255.204 133.932C255.154 133.808 255.068 133.647 254.944 133.449C254.82 133.251 254.634 133.084 254.386 132.948C254.139 132.811 253.848 132.749 253.513 132.762C253.043 132.762 252.64 132.929 252.306 133.263C252.045 133.536 251.878 133.858 251.804 134.229C251.73 134.601 251.686 135.251 251.674 136.18C251.674 137.208 251.705 137.902 251.767 138.261C251.829 138.62 251.953 138.911 252.138 139.134C252.448 139.555 252.894 139.766 253.476 139.766Z" fill="#EA0A3C"/>
</svg>
