<svg width="380" height="180" viewBox="0 0 380 180" fill="none" xmlns="http://www.w3.org/2000/svg">
<path d="M190 90H10M190 90H370" stroke="#444444" stroke-width="3"/>
<circle cx="370" cy="90" r="9.5" fill="#929292" stroke="white"/>
<circle cx="10" cy="90" r="9.5" fill="#929292" stroke="white"/>
<circle cx="190" cy="90" r="14.5" fill="#3F6DB1" stroke="white"/>
<path d="M98.4072 82H96.7725V71.1631L93.4941 72.3672V70.8906L98.1523 69.1416H98.4072V82Z" fill="black"/>
<path d="M286.448 82H278.063V80.8311L282.493 75.9092C283.149 75.165 283.601 74.5615 283.847 74.0986C284.099 73.6299 284.225 73.1465 284.225 72.6484C284.225 71.9805 284.022 71.4326 283.618 71.0049C283.214 70.5771 282.675 70.3633 282.001 70.3633C281.192 70.3633 280.562 70.5947 280.111 71.0576C279.666 71.5146 279.443 72.1533 279.443 72.9736H277.817C277.817 71.7959 278.195 70.8438 278.951 70.1172C279.713 69.3906 280.729 69.0273 282.001 69.0273C283.19 69.0273 284.131 69.3408 284.822 69.9678C285.514 70.5889 285.859 71.418 285.859 72.4551C285.859 73.7148 285.057 75.2148 283.451 76.9551L280.023 80.6729H286.448V82Z" fill="black"/>
</svg>
