<svg width="1542" height="711" viewBox="0 0 1542 711" fill="none" xmlns="http://www.w3.org/2000/svg">
<g clip-path="url(#clip0)">
<path d="M348.038 193.965L445.311 248.292" stroke="#929292" stroke-width="2"/>
<path d="M348.038 193.965L244.045 290.851" stroke="#929292" stroke-width="2"/>
<path d="M348.038 193.965L250.542 173.726" stroke="#929292" stroke-width="2"/>
<path d="M348.038 193.965L487.774 403.25" stroke="#929292" stroke-width="2"/>
<path d="M348.038 193.965L343.821 263.468" stroke="#929292" stroke-width="2"/>
<path d="M460.469 536.42L474.087 458.258" stroke="#929292" stroke-width="2"/>
<path d="M460.469 536.42L557.157 381.158" stroke="#929292" stroke-width="2"/>
<path d="M460.469 536.42L500.948 313.099" stroke="#929292" stroke-width="2"/>
<path d="M460.469 536.42L267.819 563.743" stroke="#929292" stroke-width="2"/>
<path d="M474.088 458.258L351.776 588.521" stroke="#929292" stroke-width="2"/>
<path d="M474.088 458.259L445.311 248.293" stroke="#929292" stroke-width="2"/>
<path d="M474.087 458.258L630.512 357.713" stroke="#929292" stroke-width="2"/>
<path d="M474.088 458.258L341.912 463.803" stroke="#929292" stroke-width="2"/>
<path d="M474.088 458.258L500.948 313.099" stroke="#929292" stroke-width="2"/>
<path d="M1254.65 220.238L1065.62 392.812" stroke="#929292" stroke-width="2"/>
<path d="M1254.65 220.238L1358.35 177.441" stroke="#929292" stroke-width="2"/>
<path d="M1254.65 220.238L1149.2 400.166" stroke="#929292" stroke-width="2"/>
<path d="M1254.65 220.238L1352.07 52.9819" stroke="#929292" stroke-width="2"/>
<path d="M1254.65 220.238L1141.59 335.001" stroke="#929292" stroke-width="2"/>
<path d="M396.287 330.949L445.311 248.293" stroke="#929292" stroke-width="2"/>
<path d="M396.288 330.949L630.513 357.713" stroke="#929292" stroke-width="2"/>
<path d="M396.288 330.949L323.034 428.255" stroke="#929292" stroke-width="2"/>
<path d="M396.288 330.949L175.712 341.468" stroke="#929292" stroke-width="2"/>
<path d="M496.898 150.476L557.157 381.158" stroke="#929292" stroke-width="2"/>
<path d="M496.898 150.476L343.821 263.468" stroke="#929292" stroke-width="2"/>
<path d="M1065.62 392.812L1176.52 278.918" stroke="#929292" stroke-width="2"/>
<path d="M1065.62 392.812L630.512 357.713" stroke="#929292" stroke-width="2"/>
<path d="M1065.62 392.812L1230.39 348.052" stroke="#929292" stroke-width="2"/>
<path d="M1065.62 392.812L1179.77 563.137" stroke="#929292" stroke-width="2"/>
<path d="M1065.62 392.812L902.709 433.811" stroke="#929292" stroke-width="2"/>
<path d="M1065.62 392.812L1024.4 519.596" stroke="#929292" stroke-width="2"/>
<path d="M1065.62 392.812L1310.22 489.818" stroke="#929292" stroke-width="2"/>
<path d="M1065.62 392.812L1109.38 432.933" stroke="#929292" stroke-width="2"/>
<path d="M1065.62 392.812L1195.71 436.979" stroke="#929292" stroke-width="2"/>
<path d="M1065.62 392.812L1265.47 292.957" stroke="#929292" stroke-width="2"/>
<path d="M1396.11 359.634L1310.22 489.818" stroke="#929292" stroke-width="2"/>
<path d="M1396.11 359.634L1141.59 335.001" stroke="#929292" stroke-width="2"/>
<path d="M1396.11 359.634L1265.47 292.957" stroke="#929292" stroke-width="2"/>
<path d="M351.776 588.521L487.774 403.251" stroke="#929292" stroke-width="2"/>
<path d="M351.776 588.521L195.152 482.131" stroke="#929292" stroke-width="2"/>
<path d="M351.776 588.521L267.819 563.743" stroke="#929292" stroke-width="2"/>
<path d="M445.311 248.292L630.513 357.713" stroke="#929292" stroke-width="2"/>
<path d="M445.31 248.293L250.542 173.726" stroke="#929292" stroke-width="2"/>
<path d="M1176.52 278.918L1358.35 177.441" stroke="#929292" stroke-width="2"/>
<path d="M1176.52 278.918L1173.3 132.22" stroke="#929292" stroke-width="2"/>
<path d="M1176.52 278.918L1109.38 432.933" stroke="#929292" stroke-width="2"/>
<path d="M1176.52 278.918L930.354 254.532" stroke="#929292" stroke-width="2"/>
<path d="M1176.52 278.918L1195.71 436.979" stroke="#929292" stroke-width="2"/>
<path d="M1176.52 278.918L1287.13 430.63" stroke="#929292" stroke-width="2"/>
<path d="M630.512 357.713L557.157 381.158" stroke="#929292" stroke-width="2"/>
<path d="M630.512 357.713L315.819 358.511" stroke="#929292" stroke-width="2"/>
<path d="M1230.39 348.051L1358.35 177.441" stroke="#929292" stroke-width="2"/>
<path d="M1230.39 348.051L1103.86 220.685" stroke="#929292" stroke-width="2"/>
<path d="M1230.39 348.052L1403.85 485.03" stroke="#929292" stroke-width="2"/>
<path d="M1230.39 348.051L1109.38 432.933" stroke="#929292" stroke-width="2"/>
<path d="M1230.39 348.051L977.183 402.295" stroke="#929292" stroke-width="2"/>
<path d="M1230.39 348.051L1265.47 292.957" stroke="#929292" stroke-width="2"/>
<path d="M1179.77 563.137L1149.2 400.166" stroke="#929292" stroke-width="2"/>
<path d="M1179.77 563.137L1014.14 597.109" stroke="#929292" stroke-width="2"/>
<path d="M1179.77 563.137L1287.13 430.63" stroke="#929292" stroke-width="2"/>
<path d="M1358.35 177.441L1352.07 52.9819" stroke="#929292" stroke-width="2"/>
<path d="M902.708 433.81L1024.4 519.596" stroke="#929292" stroke-width="2"/>
<path d="M902.709 433.811L1014.14 597.108" stroke="#929292" stroke-width="2"/>
<path d="M902.709 433.81L1109.38 432.933" stroke="#929292" stroke-width="2"/>
<path d="M902.709 433.811L487.774 403.25" stroke="#929292" stroke-width="2"/>
<path d="M902.709 433.811L1141.59 335.001" stroke="#929292" stroke-width="2"/>
<path d="M902.708 433.811L1065.77 316.226" stroke="#929292" stroke-width="2"/>
<path d="M244.045 290.851L280.717 395.737" stroke="#929292" stroke-width="2"/>
<path d="M244.045 290.851L250.542 173.726" stroke="#929292" stroke-width="2"/>
<path d="M244.045 290.851L175.712 341.468" stroke="#929292" stroke-width="2"/>
<path d="M244.045 290.851L195.152 482.131" stroke="#929292" stroke-width="2"/>
<path d="M244.045 290.851L500.948 313.099" stroke="#929292" stroke-width="2"/>
<path d="M280.716 395.737L557.157 381.158" stroke="#929292" stroke-width="2"/>
<path d="M280.717 395.737L123.418 421.776" stroke="#929292" stroke-width="2"/>
<path d="M280.717 395.737L341.912 463.803" stroke="#929292" stroke-width="2"/>
<path d="M280.717 395.737L487.774 403.25" stroke="#929292" stroke-width="2"/>
<path d="M280.717 395.737L191.464 212.151" stroke="#929292" stroke-width="2"/>
<path d="M280.717 395.737L267.819 563.743" stroke="#929292" stroke-width="2"/>
<path d="M1024.4 519.596L1149.2 400.166" stroke="#929292" stroke-width="2"/>
<path d="M1024.4 519.596L1014.14 597.108" stroke="#929292" stroke-width="2"/>
<path d="M1024.4 519.596L977.183 402.295" stroke="#929292" stroke-width="2"/>
<path d="M1149.2 400.166L1310.22 489.818" stroke="#929292" stroke-width="2"/>
<path d="M1149.2 400.166L1065.77 316.226" stroke="#929292" stroke-width="2"/>
<path d="M1149.2 400.166L930.354 254.532" stroke="#929292" stroke-width="2"/>
<path d="M1149.2 400.166L1195.71 436.979" stroke="#929292" stroke-width="2"/>
<path d="M1103.86 220.685L1173.3 132.22" stroke="#929292" stroke-width="2"/>
<path d="M1103.86 220.685L977.183 402.295" stroke="#929292" stroke-width="2"/>
<path d="M1103.86 220.685L1141.59 335.001" stroke="#929292" stroke-width="2"/>
<path d="M1014.14 597.109L977.183 402.295" stroke="#929292" stroke-width="2"/>
<path d="M1310.22 489.818L1403.85 485.03" stroke="#929292" stroke-width="2"/>
<path d="M557.157 381.158L315.819 358.511" stroke="#929292" stroke-width="2"/>
<path d="M557.158 381.158L323.034 428.255" stroke="#929292" stroke-width="2"/>
<path d="M557.157 381.158L977.183 402.295" stroke="#929292" stroke-width="2"/>
<path d="M1173.3 132.22L1352.07 52.982" stroke="#929292" stroke-width="2"/>
<path d="M1173.3 132.22L930.354 254.532" stroke="#929292" stroke-width="2"/>
<path d="M1173.3 132.22L1265.47 292.957" stroke="#929292" stroke-width="2"/>
<path d="M1403.85 485.03L1195.71 436.979" stroke="#929292" stroke-width="2"/>
<path d="M315.82 358.511L250.542 173.726" stroke="#929292" stroke-width="2"/>
<path d="M315.819 358.511L175.713 341.468" stroke="#929292" stroke-width="2"/>
<path d="M315.819 358.511L123.418 421.776" stroke="#929292" stroke-width="2"/>
<path d="M315.819 358.511L341.912 463.803" stroke="#929292" stroke-width="2"/>
<path d="M315.819 358.511L191.464 212.151" stroke="#929292" stroke-width="2"/>
<path d="M315.819 358.511L195.152 482.131" stroke="#929292" stroke-width="2"/>
<path d="M315.82 358.511L343.821 263.468" stroke="#929292" stroke-width="2"/>
<path d="M315.819 358.511L267.819 563.743" stroke="#929292" stroke-width="2"/>
<path d="M323.034 428.254L175.712 341.468" stroke="#929292" stroke-width="2"/>
<path d="M323.034 428.255L123.418 421.776" stroke="#929292" stroke-width="2"/>
<path d="M323.034 428.254L186.947 603.003" stroke="#929292" stroke-width="2"/>
<path d="M323.034 428.254L487.774 403.25" stroke="#929292" stroke-width="2"/>
<path d="M323.034 428.254L500.948 313.099" stroke="#929292" stroke-width="2"/>
<path d="M250.542 173.726L191.464 212.151" stroke="#929292" stroke-width="2"/>
<path d="M1109.38 432.933L977.183 402.295" stroke="#929292" stroke-width="2"/>
<path d="M1109.38 432.933L1141.59 335.001" stroke="#929292" stroke-width="2"/>
<path d="M1109.38 432.933L1287.13 430.63" stroke="#929292" stroke-width="2"/>
<path d="M977.183 402.295L1141.59 335.001" stroke="#929292" stroke-width="2"/>
<path d="M977.183 402.295L1195.71 436.979" stroke="#929292" stroke-width="2"/>
<path d="M312.809 86.5924L191.464 212.151" stroke="#929292" stroke-width="2"/>
<path d="M312.809 86.5923L500.948 313.099" stroke="#929292" stroke-width="2"/>
<path d="M341.912 463.803L186.947 603.003" stroke="#929292" stroke-width="2"/>
<path d="M341.912 463.803L487.773 403.25" stroke="#929292" stroke-width="2"/>
<path d="M341.912 463.803L195.152 482.131" stroke="#929292" stroke-width="2"/>
<path d="M341.913 463.803L343.821 263.468" stroke="#929292" stroke-width="2"/>
<path d="M341.912 463.803L500.948 313.099" stroke="#929292" stroke-width="2"/>
<path d="M186.947 603.003L267.819 563.743" stroke="#929292" stroke-width="2"/>
<path d="M487.774 403.25L343.821 263.468" stroke="#929292" stroke-width="2"/>
<path d="M191.464 212.151L343.821 263.468" stroke="#929292" stroke-width="2"/>
<path d="M1065.77 316.226L930.354 254.532" stroke="#929292" stroke-width="2"/>
<path d="M1065.77 316.226L1195.71 436.979" stroke="#929292" stroke-width="2"/>
<path d="M1065.77 316.226L1265.47 292.957" stroke="#929292" stroke-width="2"/>
<path d="M930.354 254.532L500.948 313.099" stroke="#929292" stroke-width="2"/>
<path d="M1265.47 292.957L1287.13 430.63" stroke="#929292" stroke-width="2"/>
<line x1="628" y1="349" x2="914" y2="349" stroke="black" stroke-width="32"/>
<circle cx="354" cy="350" r="266" stroke="#3F6DB1" stroke-width="32"/>
<circle cx="1174" cy="350" r="266" stroke="#EE7993" stroke-width="32"/>
</g>
<defs>
<clipPath id="clip0">
<rect width="1542" height="711" fill="white"/>
</clipPath>
</defs>
</svg>
