<svg width="380" height="160" viewBox="0 0 380 160" fill="none" xmlns="http://www.w3.org/2000/svg">
<rect width="380" height="400" transform="translate(0 -240)" fill="white"/>
<path d="M190 70L370 10M190 70L10 10M190 70L370 130M190 70L10 130M190 70V150" stroke="#444444" stroke-width="4"/>
<circle cx="190" cy="150" r="9.5" fill="#929292" stroke="white"/>
<circle cx="370" cy="130" r="9.5" fill="#929292" stroke="white"/>
<circle cx="370" cy="10" r="9.5" fill="#929292" stroke="white"/>
<circle cx="10" cy="130" r="9.5" fill="#929292" stroke="white"/>
<circle cx="10" cy="10" r="9.5" fill="#929292" stroke="white"/>
<circle cx="190" cy="70" r="14.5" fill="#3F6DB1" stroke="white"/>
<path d="M102.407 32H100.772V21.1631L97.4941 22.3672V20.8906L102.152 19.1416H102.407V32Z" fill="black"/>
<path d="M102.407 120H100.772V109.163L97.4941 110.367V108.891L102.152 107.142H102.407V120Z" fill="black"/>
<path d="M180.448 120H172.063V118.831L176.493 113.909C177.149 113.165 177.601 112.562 177.847 112.099C178.099 111.63 178.225 111.146 178.225 110.648C178.225 109.98 178.022 109.433 177.618 109.005C177.214 108.577 176.675 108.363 176.001 108.363C175.192 108.363 174.562 108.595 174.111 109.058C173.666 109.515 173.443 110.153 173.443 110.974H171.817C171.817 109.796 172.195 108.844 172.951 108.117C173.713 107.391 174.729 107.027 176.001 107.027C177.19 107.027 178.131 107.341 178.822 107.968C179.514 108.589 179.859 109.418 179.859 110.455C179.859 111.715 179.057 113.215 177.451 114.955L174.023 118.673H180.448V120Z" fill="black"/>
<path d="M279.407 120H277.772V109.163L274.494 110.367V108.891L279.152 107.142H279.407V120Z" fill="black"/>
<path d="M279.407 32H277.772V21.1631L274.494 22.3672V20.8906L279.152 19.1416H279.407V32Z" fill="black"/>
</svg>
