<svg width="380" height="160" viewBox="0 0 380 160" fill="none" xmlns="http://www.w3.org/2000/svg">
<rect width="380" height="400" fill="white"/>
<path d="M120 70L10 10M120 70L10 130M120 70L190 150L260 70M260 70L370 10M260 70L370 130" stroke="#EE7993" stroke-width="4"/>
<circle cx="370" cy="130" r="9.5" fill="#929292" stroke="white"/>
<circle cx="190" cy="150" r="9.5" fill="#929292" stroke="white"/>
<path d="M120 70H260" stroke="#3F6DB1" stroke-width="6"/>
<circle cx="370" cy="10" r="9.5" fill="#929292" stroke="white"/>
<circle cx="260" cy="70" r="9.5" fill="#3F6DB1" stroke="white"/>
<circle cx="10" cy="130" r="9.5" fill="#929292" stroke="white"/>
<circle cx="10" cy="10" r="9.5" fill="#929292" stroke="white"/>
<circle cx="120" cy="70" r="9.5" fill="#3F6DB1" stroke="white"/>
<path d="M175.169 46.873C175.169 45.7426 175.359 44.7113 175.738 43.7792C176.117 42.847 176.606 42.0736 177.205 41.4588C177.803 40.844 178.472 40.3283 179.21 39.9118C179.948 39.4953 180.646 39.1879 181.305 38.9896C181.963 38.7913 182.592 38.702 183.19 38.7219H183.28C184.178 38.7219 184.956 38.94 185.614 39.3763C186.273 39.8127 186.602 40.4572 186.602 41.31C186.602 43.0949 185.495 44.2651 183.28 44.8204C182.302 45.0782 180.966 45.217 179.27 45.2369C178.531 45.2369 178.152 45.2567 178.132 45.2964C178.132 45.336 178.073 45.6831 177.953 46.3376C177.833 46.992 177.763 47.5672 177.743 48.063C177.743 48.9951 177.953 49.7289 178.372 50.2644C178.791 50.7999 179.419 51.0775 180.257 51.0974C181.095 51.1172 182.023 50.9288 183.041 50.5321C184.058 50.1355 184.976 49.481 185.794 48.5687C185.974 48.3704 186.093 48.2712 186.153 48.2712C186.233 48.2712 186.363 48.3605 186.542 48.539C186.722 48.7175 186.822 48.8563 186.841 48.9555C186.861 49.0546 186.772 49.2133 186.572 49.4314C186.373 49.6496 186.073 49.9173 185.674 50.2347C185.275 50.552 184.816 50.8594 184.298 51.1569C183.779 51.4544 183.15 51.7023 182.412 51.9006C181.674 52.0989 180.916 52.1981 180.138 52.1981C178.561 52.1981 177.344 51.6725 176.486 50.6214C175.628 49.5703 175.189 48.3208 175.169 46.873ZM185.166 41.3695C185.046 40.3382 184.367 39.8226 183.13 39.8226C182.472 39.8226 181.863 39.9614 181.305 40.2391C180.746 40.5167 180.297 40.8539 179.958 41.2505C179.619 41.6472 179.33 42.0537 179.09 42.4702C178.851 42.8867 178.691 43.2437 178.611 43.5412C178.531 43.8387 178.482 44.0271 178.462 44.1064C178.462 44.1262 178.661 44.1362 179.06 44.1362C181.315 44.1362 182.891 43.8982 183.789 43.4222C184.687 42.9462 185.146 42.262 185.166 41.3695Z" fill="black"/>
<path d="M191.842 43.7138C191.842 43.3773 191.976 43.0828 192.244 42.8304C192.512 42.578 192.823 42.4448 193.175 42.4308C193.429 42.4308 193.641 42.515 193.81 42.6832C193.979 42.8515 194.071 43.0618 194.085 43.3142C194.085 43.6367 193.944 43.9311 193.662 44.1975C193.38 44.464 193.069 44.6042 192.731 44.6182C192.519 44.6182 192.322 44.5481 192.138 44.4079C191.955 44.2677 191.856 44.0363 191.842 43.7138ZM188.393 50.2969C188.393 50.1848 188.457 49.9674 188.584 49.6449C188.711 49.3224 188.88 48.9649 189.092 48.5723C189.303 48.1797 189.613 47.8221 190.023 47.4996C190.432 47.1771 190.855 47.0229 191.292 47.0369C191.842 47.0369 192.301 47.1982 192.667 47.5207C193.034 47.8432 193.225 48.2778 193.239 48.8247C193.239 49.063 193.14 49.4556 192.942 50.0025C192.745 50.5493 192.463 51.2855 192.096 52.2109C191.729 53.1363 191.433 53.9285 191.207 54.5875C191.137 54.896 191.102 55.1204 191.102 55.2606C191.102 55.6111 191.222 55.7864 191.461 55.7864C191.588 55.7864 191.722 55.7654 191.863 55.7233C192.004 55.6812 192.167 55.5831 192.35 55.4288C192.533 55.2746 192.724 55.0292 192.921 54.6927C193.119 54.3562 193.295 53.9426 193.45 53.4518C193.493 53.2835 193.528 53.1854 193.556 53.1573C193.584 53.1293 193.704 53.1153 193.916 53.1153C194.198 53.1153 194.339 53.1854 194.339 53.3256C194.339 53.4378 194.276 53.6551 194.149 53.9776C194.022 54.3001 193.845 54.6577 193.62 55.0503C193.394 55.4429 193.076 55.7934 192.667 56.1019C192.258 56.4104 191.821 56.5646 191.356 56.5646C190.904 56.5646 190.488 56.4174 190.107 56.1229C189.726 55.8285 189.529 55.3798 189.515 54.7768C189.515 54.5385 189.55 54.3141 189.62 54.1038C189.691 53.8935 189.994 53.0942 190.53 51.7061C191.066 50.2899 191.377 49.4416 191.461 49.1612C191.546 48.8808 191.595 48.6073 191.609 48.3409C191.609 48.0044 191.49 47.8361 191.25 47.8361H191.207C190.784 47.8361 190.396 48.0675 190.044 48.5302C189.691 48.9929 189.423 49.5818 189.24 50.2969C189.226 50.311 189.211 50.332 189.197 50.36C189.183 50.3881 189.176 50.4091 189.176 50.4231C189.176 50.4372 189.162 50.4512 189.134 50.4652C189.106 50.4792 189.084 50.4862 189.07 50.4862C189.056 50.4862 189.028 50.4862 188.986 50.4862C188.943 50.4862 188.887 50.4862 188.816 50.4862H188.52C188.436 50.4021 188.393 50.339 188.393 50.2969Z" fill="black"/>
<path d="M201.533 43.798C201.533 43.3633 201.681 43.0268 201.977 42.7884C202.274 42.55 202.577 42.4309 202.887 42.4309C203.127 42.4309 203.325 42.501 203.48 42.6412C203.635 42.7814 203.734 42.9777 203.776 43.2301C203.776 43.6227 203.642 43.9522 203.374 44.2186C203.106 44.485 202.796 44.6182 202.443 44.6182C202.189 44.6182 201.977 44.5481 201.808 44.4079C201.639 44.2677 201.547 44.0644 201.533 43.798ZM201.343 48.4251C201.343 48.0185 201.159 47.8151 200.793 47.8151C200.482 47.8151 200.186 47.8993 199.904 48.0675C199.622 48.2358 199.375 48.4531 199.163 48.7195C198.952 48.9859 198.782 49.2453 198.655 49.4977C198.529 49.7501 198.409 49.9745 198.296 50.1708L198.148 50.4652C198.119 50.4792 198.007 50.4863 197.809 50.4863H197.513C197.428 50.4021 197.386 50.346 197.386 50.318C197.386 50.29 197.414 50.1988 197.471 50.0446C197.767 49.3575 198.183 48.7125 198.719 48.1096C199.255 47.5067 199.876 47.1561 200.581 47.058C200.595 47.058 200.651 47.058 200.75 47.058C200.849 47.058 200.934 47.051 201.004 47.0369C201.343 47.051 201.653 47.1211 201.935 47.2473C202.288 47.4436 202.556 47.6609 202.739 47.8993C202.923 48.1376 203.014 48.5092 203.014 49.014V49.3505L201.977 53.536C201.258 56.3403 200.877 57.7985 200.835 57.9107C200.581 58.6118 200.087 59.2357 199.354 59.7826C198.62 60.3294 197.781 60.6098 196.836 60.6239C196.13 60.6239 195.651 60.4766 195.397 60.1822C195.143 59.8877 195.009 59.5652 194.995 59.2147C194.995 58.8361 195.129 58.5136 195.397 58.2472C195.665 57.9808 195.989 57.8406 196.37 57.8266C196.61 57.8266 196.815 57.8967 196.984 58.0369C197.153 58.1771 197.245 58.3944 197.259 58.6889C197.259 59.1937 197.033 59.5793 196.582 59.8457C196.667 59.8597 196.765 59.8667 196.878 59.8667C197.358 59.8667 197.795 59.6704 198.19 59.2778C198.585 58.8852 198.888 58.4225 199.1 57.8897L199.333 57.0063C199.488 56.4034 199.671 55.6742 199.883 54.8189C200.094 53.9636 200.32 53.0873 200.56 52.1899C200.8 51.2925 200.99 50.5143 201.131 49.8553C201.272 49.1963 201.35 48.7967 201.364 48.6564C201.364 48.5583 201.357 48.4812 201.343 48.4251Z" fill="black"/>
<path d="M72.4072 35H70.7725V24.1631L67.4941 25.3672V23.8906L72.1523 22.1416H72.4072V35Z" fill="black"/>
<path d="M72.4072 117H70.7725V106.163L67.4941 107.367V105.891L72.1523 104.142H72.4072V117Z" fill="black"/>
<path d="M140.407 117H138.772V106.163L135.494 107.367V105.891L140.152 104.142H140.407V117Z" fill="black"/>
<path d="M241.407 117H239.772V106.163L236.494 107.367V105.891L241.152 104.142H241.407V117Z" fill="black"/>
<path d="M309.407 117H307.772V106.163L304.494 107.367V105.891L309.152 104.142H309.407V117Z" fill="black"/>
<path d="M309.407 35H307.772V24.1631L304.494 25.3672V23.8906L309.152 22.1416H309.407V35Z" fill="black"/>
</svg>
