<svg width="431" height="265" viewBox="0 0 431 265" fill="none" xmlns="http://www.w3.org/2000/svg">
<g clip-path="url(#clip0)">
<rect width="431" height="264.5" fill="white"/>
<path d="M49.5 124L9.5 155.5L70 220M49.5 124L70 220M49.5 124L148 80.5M70 220L138.5 259.5L177 166M70 220L177 166M177 166L148 80.5M177 166L220 108.5M177 166L260.5 239M177 166L292.5 144.5M148 80.5L220 108.5M220 108.5L292.5 144.5M220 108.5L343 87.5M260.5 239L292.5 144.5M260.5 239L141.5 259.5M260.5 239L372 187M292.5 144.5L343 87.5M292.5 144.5L372 187M343 87.5L372 187M343 87.5L421.5 127L372 187" stroke="black"/>
<path d="M19.5 155C19.5 156.089 18.604 157.21 16.8475 158.088C15.1209 158.952 12.7006 159.5 10 159.5C7.29937 159.5 4.87912 158.952 3.15254 158.088C1.39605 157.21 0.5 156.089 0.5 155C0.5 153.911 1.39605 152.79 3.15254 151.912C4.87912 151.048 7.29937 150.5 10 150.5C12.7006 150.5 15.1209 151.048 16.8475 151.912C18.604 152.79 19.5 153.911 19.5 155Z" fill="#929292" stroke="white"/>
<line x1="10" y1="115" x2="10" y2="155" stroke="#3F6DB1" stroke-width="8"/>
<path d="M59.5 124.396C59.5 125.485 58.604 126.606 56.8475 127.484C55.1209 128.348 52.7006 128.896 50 128.896C47.2994 128.896 44.8791 128.348 43.1525 127.484C41.396 126.606 40.5 125.485 40.5 124.396C40.5 123.307 41.396 122.186 43.1525 121.308C44.8791 120.444 47.2994 119.896 50 119.896C52.7006 119.896 55.1209 120.444 56.8475 121.308C58.604 122.186 59.5 123.307 59.5 124.396Z" fill="#929292" stroke="white"/>
<line x1="50" y1="84.396" x2="50" y2="124.396" stroke="#3F6DB1" stroke-width="8"/>
<path d="M157.5 81C157.5 82.0893 156.604 83.2101 154.847 84.0883C153.121 84.9516 150.701 85.5 148 85.5C145.299 85.5 142.879 84.9516 141.153 84.0883C139.396 83.2101 138.5 82.0893 138.5 81C138.5 79.9107 139.396 78.7899 141.153 77.9117C142.879 77.0484 145.299 76.5 148 76.5C150.701 76.5 153.121 77.0484 154.847 77.9117C156.604 78.7899 157.5 79.9107 157.5 81Z" fill="#929292" stroke="white"/>
<line x1="148" y1="41" x2="148" y2="81" stroke="#3F6DB1" stroke-width="8"/>
<path d="M229.5 108.4C229.5 109.489 228.604 110.61 226.847 111.488C225.121 112.352 222.701 112.9 220 112.9C217.299 112.9 214.879 112.352 213.153 111.488C211.396 110.61 210.5 109.489 210.5 108.4C210.5 107.311 211.396 106.19 213.153 105.312C214.879 104.448 217.299 103.9 220 103.9C222.701 103.9 225.121 104.448 226.847 105.312C228.604 106.19 229.5 107.311 229.5 108.4Z" fill="#929292" stroke="white"/>
<line x1="220" y1="68.4" x2="220" y2="108.4" stroke="#3F6DB1" stroke-width="8"/>
<path d="M187.5 166.1C187.5 167.189 186.604 168.31 184.847 169.188C183.121 170.052 180.701 170.6 178 170.6C175.299 170.6 172.879 170.052 171.153 169.188C169.396 168.31 168.5 167.189 168.5 166.1C168.5 165.011 169.396 163.89 171.153 163.012C172.879 162.148 175.299 161.6 178 161.6C180.701 161.6 183.121 162.148 184.847 163.012C186.604 163.89 187.5 165.011 187.5 166.1Z" fill="#929292" stroke="white"/>
<line x1="178" y1="126.1" x2="178" y2="166.1" stroke="#3F6DB1" stroke-width="8"/>
<path d="M79.5 220.162C79.5 221.251 78.604 222.372 76.8475 223.25C75.1209 224.113 72.7006 224.662 70 224.662C67.2994 224.662 64.8791 224.113 63.1525 223.25C61.396 222.372 60.5 221.251 60.5 220.162C60.5 219.072 61.396 217.951 63.1525 217.073C64.8791 216.21 67.2994 215.662 70 215.662C72.7006 215.662 75.1209 216.21 76.8475 217.073C78.604 217.951 79.5 219.072 79.5 220.162Z" fill="#929292" stroke="white"/>
<line x1="70" y1="180.162" x2="70" y2="220.162" stroke="#3F6DB1" stroke-width="8"/>
<path d="M147.5 259.5C147.5 260.59 146.604 261.711 144.847 262.589C143.121 263.452 140.701 264 138 264C135.299 264 132.879 263.452 131.153 262.589C129.396 261.711 128.5 260.59 128.5 259.5C128.5 258.411 129.396 257.29 131.153 256.412C132.879 255.549 135.299 255 138 255C140.701 255 143.121 255.549 144.847 256.412C146.604 257.29 147.5 258.411 147.5 259.5Z" fill="#929292" stroke="white"/>
<line x1="138" y1="219.5" x2="138" y2="259.5" stroke="#3F6DB1" stroke-width="8"/>
<path d="M430.5 126.983C430.5 128.073 429.604 129.193 427.847 130.072C426.121 130.935 423.701 131.483 421 131.483C418.299 131.483 415.879 130.935 414.153 130.072C412.396 129.193 411.5 128.073 411.5 126.983C411.5 125.894 412.396 124.773 414.153 123.895C415.879 123.032 418.299 122.483 421 122.483C423.701 122.483 426.121 123.032 427.847 123.895C429.604 124.773 430.5 125.894 430.5 126.983Z" fill="#929292" stroke="white"/>
<line x1="421" y1="87" x2="421" y2="127" stroke="#3F6DB1" stroke-width="8"/>
<path d="M269.5 239.162C269.5 240.251 268.604 241.372 266.847 242.25C265.121 243.113 262.701 243.662 260 243.662C257.299 243.662 254.879 243.113 253.153 242.25C251.396 241.372 250.5 240.251 250.5 239.162C250.5 238.072 251.396 236.951 253.153 236.073C254.879 235.21 257.299 234.662 260 234.662C262.701 234.662 265.121 235.21 266.847 236.073C268.604 236.951 269.5 238.072 269.5 239.162Z" fill="#929292" stroke="white"/>
<line x1="260" y1="199.162" x2="260" y2="239.162" stroke="#3F6DB1" stroke-width="8"/>
<path d="M301.5 145.5C301.5 146.59 300.604 147.71 298.847 148.589C297.121 149.452 294.701 150 292 150C289.299 150 286.879 149.452 285.153 148.589C283.396 147.71 282.5 146.59 282.5 145.5C282.5 144.411 283.396 143.29 285.153 142.412C286.879 141.549 289.299 141 292 141C294.701 141 297.121 141.549 298.847 142.412C300.604 143.29 301.5 144.411 301.5 145.5Z" fill="#929292" stroke="white"/>
<line x1="292" y1="105.5" x2="292" y2="145.5" stroke="#3F6DB1" stroke-width="8"/>
<path d="M352.5 88.1782C352.5 89.2675 351.604 90.3883 349.847 91.2665C348.121 92.1298 345.701 92.6782 343 92.6782C340.299 92.6782 337.879 92.1298 336.153 91.2665C334.396 90.3883 333.5 89.2675 333.5 88.1782C333.5 87.0889 334.396 85.9681 336.153 85.0899C337.879 84.2266 340.299 83.6782 343 83.6782C345.701 83.6782 348.121 84.2266 349.847 85.0899C351.604 85.9681 352.5 87.0889 352.5 88.1782Z" fill="#929292" stroke="white"/>
<line x1="343" y1="48.1782" x2="343" y2="88.1782" stroke="#3F6DB1" stroke-width="8"/>
<path d="M380.5 187.104C380.5 188.194 379.604 189.314 377.847 190.193C376.121 191.056 373.701 191.604 371 191.604C368.299 191.604 365.879 191.056 364.153 190.193C362.396 189.314 361.5 188.194 361.5 187.104C361.5 186.015 362.396 184.894 364.153 184.016C365.879 183.153 368.299 182.604 371 182.604C373.701 182.604 376.121 183.153 377.847 184.016C379.604 184.894 380.5 186.015 380.5 187.104Z" fill="#929292" stroke="white"/>
<line x1="371" y1="148.104" x2="371" y2="188.104" stroke="#3F6DB1" stroke-width="8"/>
</g>
<defs>
<clipPath id="clip0">
<rect width="431" height="264.5" fill="white"/>
</clipPath>
</defs>
</svg>
