<svg width="406" height="188" viewBox="0 0 406 188" fill="none" xmlns="http://www.w3.org/2000/svg">
<path d="M406 120L396 114.226V125.774L406 120ZM0 121H397V119H0L0 121Z" fill="url(#paint0_linear)"/>
<path d="M53.5 120C53.5 121.089 52.604 122.21 50.8475 123.088C49.1209 123.952 46.7006 124.5 44 124.5C41.2994 124.5 38.8791 123.952 37.1525 123.088C35.396 122.21 34.5 121.089 34.5 120C34.5 118.911 35.396 117.79 37.1525 116.912C38.8791 116.048 41.2994 115.5 44 115.5C46.7006 115.5 49.1209 116.048 50.8475 116.912C52.604 117.79 53.5 118.911 53.5 120Z" fill="#929292" stroke="white"/>
<line x1="44" y1="110.017" x2="44" y2="120" stroke="#3F6DB1" stroke-width="8"/>
<path d="M83.5 120C83.5 121.089 82.604 122.21 80.8475 123.088C79.1209 123.952 76.7006 124.5 74 124.5C71.2994 124.5 68.8791 123.952 67.1525 123.088C65.396 122.21 64.5 121.089 64.5 120C64.5 118.911 65.396 117.79 67.1525 116.912C68.8791 116.048 71.2994 115.5 74 115.5C76.7006 115.5 79.1209 116.048 80.8475 116.912C82.604 117.79 83.5 118.911 83.5 120Z" fill="#929292" stroke="white"/>
<line x1="74" y1="61.604" x2="74" y2="120" stroke="#3F6DB1" stroke-width="8"/>
<path d="M113.5 120C113.5 121.089 112.604 122.21 110.847 123.088C109.121 123.952 106.701 124.5 104 124.5C101.299 124.5 98.8791 123.952 97.1525 123.088C95.396 122.21 94.5 121.089 94.5 120C94.5 118.911 95.396 117.79 97.1525 116.912C98.8791 116.048 101.299 115.5 104 115.5C106.701 115.5 109.121 116.048 110.847 116.912C112.604 117.79 113.5 118.911 113.5 120Z" fill="#929292" stroke="white"/>
<line x1="104" y1="73" x2="104" y2="120" stroke="#3F6DB1" stroke-width="8"/>
<path d="M143.5 120C143.5 121.089 142.604 122.21 140.847 123.088C139.121 123.952 136.701 124.5 134 124.5C131.299 124.5 128.879 123.952 127.153 123.088C125.396 122.21 124.5 121.089 124.5 120C124.5 118.911 125.396 117.79 127.153 116.912C128.879 116.048 131.299 115.5 134 115.5C136.701 115.5 139.121 116.048 140.847 116.912C142.604 117.79 143.5 118.911 143.5 120Z" fill="#929292" stroke="white"/>
<line x1="134" y1="107" x2="134" y2="120" stroke="#3F6DB1" stroke-width="8"/>
<line x1="164" y1="120" x2="164" y2="188" stroke="#EE7993" stroke-width="8"/>
<path d="M173.5 120C173.5 121.089 172.604 122.21 170.847 123.088C169.121 123.952 166.701 124.5 164 124.5C161.299 124.5 158.879 123.952 157.153 123.088C155.396 122.21 154.5 121.089 154.5 120C154.5 118.911 155.396 117.79 157.153 116.912C158.879 116.048 161.299 115.5 164 115.5C166.701 115.5 169.121 116.048 170.847 116.912C172.604 117.79 173.5 118.911 173.5 120Z" fill="#929292" stroke="white"/>
<line x1="194" y1="119" x2="194" y2="141" stroke="#EE7993" stroke-width="8"/>
<path d="M203.5 120C203.5 121.089 202.604 122.21 200.847 123.088C199.121 123.952 196.701 124.5 194 124.5C191.299 124.5 188.879 123.952 187.153 123.088C185.396 122.21 184.5 121.089 184.5 120C184.5 118.911 185.396 117.79 187.153 116.912C188.879 116.048 191.299 115.5 194 115.5C196.701 115.5 199.121 116.048 200.847 116.912C202.604 117.79 203.5 118.911 203.5 120Z" fill="#929292" stroke="white"/>
<line x1="224" y1="129.983" x2="224" y2="120" stroke="#EE7993" stroke-width="8"/>
<path d="M233.5 120C233.5 121.089 232.604 122.21 230.847 123.088C229.121 123.952 226.701 124.5 224 124.5C221.299 124.5 218.879 123.952 217.153 123.088C215.396 122.21 214.5 121.089 214.5 120C214.5 118.911 215.396 117.79 217.153 116.912C218.879 116.048 221.299 115.5 224 115.5C226.701 115.5 229.121 116.048 230.847 116.912C232.604 117.79 233.5 118.911 233.5 120Z" fill="#929292" stroke="white"/>
<path d="M263.5 120C263.5 121.089 262.604 122.21 260.847 123.088C259.121 123.952 256.701 124.5 254 124.5C251.299 124.5 248.879 123.952 247.153 123.088C245.396 122.21 244.5 121.089 244.5 120C244.5 118.911 245.396 117.79 247.153 116.912C248.879 116.048 251.299 115.5 254 115.5C256.701 115.5 259.121 116.048 260.847 116.912C262.604 117.79 263.5 118.911 263.5 120Z" fill="#929292" stroke="white"/>
<line x1="254" y1="120" x2="254" y2="99" stroke="#3F6DB1" stroke-width="8"/>
<path d="M293.5 120C293.5 121.089 292.604 122.21 290.847 123.088C289.121 123.952 286.701 124.5 284 124.5C281.299 124.5 278.879 123.952 277.153 123.088C275.396 122.21 274.5 121.089 274.5 120C274.5 118.911 275.396 117.79 277.153 116.912C278.879 116.048 281.299 115.5 284 115.5C286.701 115.5 289.121 116.048 290.847 116.912C292.604 117.79 293.5 118.911 293.5 120Z" fill="#929292" stroke="white"/>
<line x1="284" y1="120" x2="284" y2="55" stroke="#3F6DB1" stroke-width="8"/>
<path d="M323.5 120C323.5 121.089 322.604 122.21 320.847 123.088C319.121 123.952 316.701 124.5 314 124.5C311.299 124.5 308.879 123.952 307.153 123.088C305.396 122.21 304.5 121.089 304.5 120C304.5 118.911 305.396 117.79 307.153 116.912C308.879 116.048 311.299 115.5 314 115.5C316.701 115.5 319.121 116.048 320.847 116.912C322.604 117.79 323.5 118.911 323.5 120Z" fill="#929292" stroke="white"/>
<line x1="314" y1="120" x2="314" y2="14" stroke="#3F6DB1" stroke-width="8"/>
<path d="M353.5 120C353.5 121.089 352.604 122.21 350.847 123.088C349.121 123.952 346.701 124.5 344 124.5C341.299 124.5 338.879 123.952 337.153 123.088C335.396 122.21 334.5 121.089 334.5 120C334.5 118.911 335.396 117.79 337.153 116.912C338.879 116.048 341.299 115.5 344 115.5C346.701 115.5 349.121 116.048 350.847 116.912C352.604 117.79 353.5 118.911 353.5 120Z" fill="#929292" stroke="white"/>
<line x1="344" y1="120" x2="344" y2="28" stroke="#3F6DB1" stroke-width="8"/>
<path d="M383.5 120C383.5 121.089 382.604 122.21 380.847 123.088C379.121 123.952 376.701 124.5 374 124.5C371.299 124.5 368.879 123.952 367.153 123.088C365.396 122.21 364.5 121.089 364.5 120C364.5 118.911 365.396 117.79 367.153 116.912C368.879 116.048 371.299 115.5 374 115.5C376.701 115.5 379.121 116.048 380.847 116.912C382.604 117.79 383.5 118.911 383.5 120Z" fill="#929292" stroke="white"/>
<line x1="374" y1="120" x2="374" y2="1.74846e-07" stroke="#3F6DB1" stroke-width="8"/>
<defs>
<linearGradient id="paint0_linear" x1="0" y1="120" x2="31" y2="120" gradientUnits="userSpaceOnUse">
<stop stop-opacity="0"/>
<stop offset="1"/>
</linearGradient>
</defs>
</svg>
