<svg width="664" height="274" viewBox="0 0 664 274" fill="none" xmlns="http://www.w3.org/2000/svg">
<path d="M363 239V274" stroke="#EE7993"/>
<path d="M365.013 239V274" stroke="#EE7993"/>
<path d="M367.027 239V274" stroke="#EE7993"/>
<path d="M369.04 239V274" stroke="#EE7993"/>
<path d="M371.054 239V274" stroke="#EE7993"/>
<path d="M373.067 239V274" stroke="#EE7993"/>
<path d="M375.081 239V274" stroke="#EE7993"/>
<path d="M377.094 239V274" stroke="#EE7993"/>
<path d="M379.107 239V274" stroke="#EE7993"/>
<path d="M381.121 239V274" stroke="#EE7993"/>
<path d="M383.134 239V274" stroke="#EE7993"/>
<path d="M385.148 239V274" stroke="#EE7993"/>
<path d="M387.161 239V274" stroke="#EE7993"/>
<path d="M389.175 239V274" stroke="#EE7993"/>
<path d="M391.188 239V274" stroke="#EE7993"/>
<path d="M393.201 239V274" stroke="#EE7993"/>
<path d="M395.215 239V274" stroke="#EE7993"/>
<path d="M397.228 239V274" stroke="#EE7993"/>
<path d="M399.242 239V274" stroke="#EE7993"/>
<path d="M401.255 239V274" stroke="#EE7993"/>
<path d="M403.269 239V274" stroke="#EE7993"/>
<path d="M405.282 239V274" stroke="#EE7993"/>
<path d="M407.295 239V274" stroke="#EE7993"/>
<path d="M409.309 239V274" stroke="#EE7993"/>
<path d="M411.322 239V274" stroke="#EE7993"/>
<path d="M413.335 239V274" stroke="#EE7993"/>
<path d="M415.349 239V274" stroke="#EE7993"/>
<path d="M417.362 239V274" stroke="#EE7993"/>
<path d="M419.376 239V274" stroke="#EE7993"/>
<path d="M421.389 239V274" stroke="#EE7993"/>
<path d="M423.403 239V274" stroke="#EE7993"/>
<path d="M425.416 239V274" stroke="#EE7993"/>
<path d="M427.429 239V274" stroke="#EE7993"/>
<path d="M429.443 239V274" stroke="#EE7993"/>
<path d="M431.456 239V274" stroke="#EE7993"/>
<path d="M433.47 239V274" stroke="#EE7993"/>
<path d="M435.483 239V274" stroke="#EE7993"/>
<path d="M437.497 239V274" stroke="#EE7993"/>
<path d="M439.51 239V274" stroke="#EE7993"/>
<path d="M441.523 239V274" stroke="#EE7993"/>
<path d="M443.537 239V274" stroke="#EE7993"/>
<path d="M445.55 239V274" stroke="#EE7993"/>
<path d="M447.564 239V274" stroke="#EE7993"/>
<path d="M449.577 239V274" stroke="#EE7993"/>
<path d="M451.591 239V274" stroke="#EE7993"/>
<path d="M453.604 239V274" stroke="#EE7993"/>
<path d="M455.617 239V274" stroke="#EE7993"/>
<path d="M457.631 239V274" stroke="#EE7993"/>
<path d="M459.644 239V274" stroke="#EE7993"/>
<path d="M461.658 239V274" stroke="#EE7993"/>
<path d="M463.671 239V274" stroke="#EE7993"/>
<path d="M465.685 239V274" stroke="#EE7993"/>
<path d="M467.698 239V274" stroke="#EE7993"/>
<path d="M469.711 239V274" stroke="#EE7993"/>
<path d="M471.725 239V274" stroke="#EE7993"/>
<path d="M473.738 239V274" stroke="#EE7993"/>
<path d="M475.752 239V274" stroke="#EE7993"/>
<path d="M477.765 239V274" stroke="#EE7993"/>
<path d="M479.779 239V274" stroke="#EE7993"/>
<path d="M481.792 239V274" stroke="#EE7993"/>
<path d="M483.805 239V274" stroke="#EE7993"/>
<path d="M485.819 239V274" stroke="#EE7993"/>
<path d="M487.832 239V274" stroke="#EE7993"/>
<path d="M489.846 239V274" stroke="#EE7993"/>
<path d="M491.859 239V274" stroke="#EE7993"/>
<path d="M493.873 239V274" stroke="#EE7993"/>
<path d="M495.886 239V274" stroke="#EE7993"/>
<path d="M497.899 239V274" stroke="#EE7993"/>
<path d="M499.913 239V274" stroke="#EE7993"/>
<path d="M501.926 239V274" stroke="#EE7993"/>
<path d="M503.94 239V274" stroke="#EE7993"/>
<path d="M505.953 239V274" stroke="#EE7993"/>
<path d="M507.967 239V274" stroke="#EE7993"/>
<path d="M509.98 239V274" stroke="#EE7993"/>
<path d="M516.02 204V239" stroke="#3F6DB1"/>
<path d="M518.033 204V239" stroke="#3F6DB1"/>
<path d="M520.047 204V239" stroke="#3F6DB1"/>
<path d="M522.06 204V239" stroke="#3F6DB1"/>
<path d="M524.074 204V239" stroke="#3F6DB1"/>
<path d="M526.087 204V239" stroke="#3F6DB1"/>
<path d="M528.101 204V239" stroke="#3F6DB1"/>
<path d="M530.114 204V239" stroke="#3F6DB1"/>
<path d="M532.127 204V239" stroke="#3F6DB1"/>
<path d="M534.141 204V239" stroke="#3F6DB1"/>
<path d="M536.154 204V239" stroke="#3F6DB1"/>
<path d="M538.168 204V239" stroke="#3F6DB1"/>
<path d="M540.181 204V239" stroke="#3F6DB1"/>
<path d="M542.195 204V239" stroke="#3F6DB1"/>
<path d="M544.208 204V239" stroke="#3F6DB1"/>
<path d="M546.221 204V239" stroke="#3F6DB1"/>
<path d="M548.235 204V239" stroke="#3F6DB1"/>
<path d="M550.248 204V239" stroke="#3F6DB1"/>
<path d="M552.262 204V239" stroke="#3F6DB1"/>
<path d="M554.275 204V239" stroke="#3F6DB1"/>
<path d="M556.289 204V239" stroke="#3F6DB1"/>
<path d="M558.302 204V239" stroke="#3F6DB1"/>
<path d="M560.315 204V239" stroke="#3F6DB1"/>
<path d="M562.329 204V239" stroke="#3F6DB1"/>
<path d="M564.342 204V239" stroke="#3F6DB1"/>
<path d="M566.356 204V239" stroke="#3F6DB1"/>
<path d="M568.369 204V239" stroke="#3F6DB1"/>
<path d="M570.383 204V239" stroke="#3F6DB1"/>
<path d="M572.396 204V239" stroke="#3F6DB1"/>
<path d="M574.409 204V239" stroke="#3F6DB1"/>
<path d="M576.423 204V239" stroke="#3F6DB1"/>
<path d="M578.436 204V239" stroke="#3F6DB1"/>
<path d="M580.45 204V239" stroke="#3F6DB1"/>
<path d="M582.463 204V239" stroke="#3F6DB1"/>
<path d="M584.477 204V239" stroke="#3F6DB1"/>
<path d="M586.49 204V239" stroke="#3F6DB1"/>
<path d="M588.503 204V239" stroke="#3F6DB1"/>
<path d="M590.517 204V239" stroke="#3F6DB1"/>
<path d="M592.53 204V239" stroke="#3F6DB1"/>
<path d="M594.544 204V239" stroke="#3F6DB1"/>
<path d="M596.557 204V239" stroke="#3F6DB1"/>
<path d="M598.571 204V239" stroke="#3F6DB1"/>
<path d="M600.584 204V239" stroke="#3F6DB1"/>
<path d="M602.597 204V239" stroke="#3F6DB1"/>
<path d="M604.611 204V239" stroke="#3F6DB1"/>
<path d="M606.624 204V239" stroke="#3F6DB1"/>
<path d="M608.638 204V239" stroke="#3F6DB1"/>
<path d="M610.651 204V239" stroke="#3F6DB1"/>
<path d="M612.665 204V239" stroke="#3F6DB1"/>
<path d="M614.678 204V239" stroke="#3F6DB1"/>
<path d="M616.691 204V239" stroke="#3F6DB1"/>
<path d="M618.705 204V239" stroke="#3F6DB1"/>
<path d="M620.718 204V239" stroke="#3F6DB1"/>
<path d="M622.731 204V239" stroke="#3F6DB1"/>
<path d="M624.745 204V239" stroke="#3F6DB1"/>
<path d="M626.758 204V239" stroke="#3F6DB1"/>
<path d="M628.772 204V239" stroke="#3F6DB1"/>
<path d="M630.785 204V239" stroke="#3F6DB1"/>
<path d="M632.799 204V239" stroke="#3F6DB1"/>
<path d="M634.812 204V239" stroke="#3F6DB1"/>
<path d="M636.825 204V239" stroke="#3F6DB1"/>
<path d="M638.839 204V239" stroke="#3F6DB1"/>
<path d="M640.852 204V239" stroke="#3F6DB1"/>
<path d="M642.866 204V239" stroke="#3F6DB1"/>
<path d="M644.879 204V239" stroke="#3F6DB1"/>
<path d="M646.893 204V239" stroke="#3F6DB1"/>
<path d="M648.906 204V239" stroke="#3F6DB1"/>
<path d="M650.919 204V239" stroke="#3F6DB1"/>
<path d="M652.933 204V239" stroke="#3F6DB1"/>
<path d="M654.946 204V239" stroke="#3F6DB1"/>
<path d="M656.96 204V239" stroke="#3F6DB1"/>
<path d="M658.973 204V239" stroke="#3F6DB1"/>
<path d="M660.987 204V239" stroke="#3F6DB1"/>
<path d="M663 204V239" stroke="#3F6DB1"/>
<path d="M362 239.21L511 239.21M664 239.21H515" stroke="#929292"/>
<path d="M520.047 66.4846V65.5893" stroke="#3F6DB1"/>
<path d="M522.06 66.4846V64.1272" stroke="#3F6DB1"/>
<path d="M524.074 66.4846V62.6676" stroke="#3F6DB1"/>
<path d="M526.087 66.4847V61.2114" stroke="#3F6DB1"/>
<path d="M528.101 66.4846V59.7588" stroke="#3F6DB1"/>
<path d="M530.114 66.4847V58.3109" stroke="#3F6DB1"/>
<path d="M532.127 66.4846V56.8679" stroke="#3F6DB1"/>
<path d="M534.141 66.4846V55.4308" stroke="#3F6DB1"/>
<path d="M536.154 66.4846V54.0001" stroke="#3F6DB1"/>
<path d="M538.168 66.4846V52.5764" stroke="#3F6DB1"/>
<path d="M540.181 66.4846V51.1602" stroke="#3F6DB1"/>
<path d="M542.195 66.4846V49.7524" stroke="#3F6DB1"/>
<path d="M544.208 66.4846V48.3534" stroke="#3F6DB1"/>
<path d="M546.221 66.4847V46.964" stroke="#3F6DB1"/>
<path d="M548.235 66.4846V45.5846" stroke="#3F6DB1"/>
<path d="M550.248 66.4846V44.2159" stroke="#3F6DB1"/>
<path d="M552.262 66.4847V42.8586" stroke="#3F6DB1"/>
<path d="M554.275 66.4846V41.5131" stroke="#3F6DB1"/>
<path d="M556.289 66.4846V40.1801" stroke="#3F6DB1"/>
<path d="M558.302 66.4847V38.8602" stroke="#3F6DB1"/>
<path d="M560.315 66.4847V37.5539" stroke="#3F6DB1"/>
<path d="M562.329 66.4847V36.2619" stroke="#3F6DB1"/>
<path d="M564.342 66.4846V34.9846" stroke="#3F6DB1"/>
<path d="M566.355 66.4847V33.7228" stroke="#3F6DB1"/>
<path d="M568.369 66.4846V32.4768" stroke="#3F6DB1"/>
<path d="M570.382 66.4846V31.2472" stroke="#3F6DB1"/>
<path d="M572.396 66.4846V30.0347" stroke="#3F6DB1"/>
<path d="M574.409 66.4846V28.8397" stroke="#3F6DB1"/>
<path d="M576.423 66.4846V27.6627" stroke="#3F6DB1"/>
<path d="M578.436 66.4846V26.5043" stroke="#3F6DB1"/>
<path d="M580.449 66.4846V25.3649" stroke="#3F6DB1"/>
<path d="M582.463 66.4847V24.2452" stroke="#3F6DB1"/>
<path d="M584.476 66.4846V23.1455" stroke="#3F6DB1"/>
<path d="M586.49 66.4846V22.0663" stroke="#3F6DB1"/>
<path d="M588.503 66.4846V21.0082" stroke="#3F6DB1"/>
<path d="M590.517 66.4846V19.9716" stroke="#3F6DB1"/>
<path d="M592.53 66.4846V18.9568" stroke="#3F6DB1"/>
<path d="M594.543 66.4846V17.9645" stroke="#3F6DB1"/>
<path d="M596.557 66.4846V16.995" stroke="#3F6DB1"/>
<path d="M598.57 66.4847V16.0487" stroke="#3F6DB1"/>
<path d="M600.584 66.4847V15.1261" stroke="#3F6DB1"/>
<path d="M602.597 66.4846V14.2276" stroke="#3F6DB1"/>
<path d="M604.611 66.4846V13.3534" stroke="#3F6DB1"/>
<path d="M606.624 66.4847V12.5042" stroke="#3F6DB1"/>
<path d="M608.637 66.4846V11.6802" stroke="#3F6DB1"/>
<path d="M610.651 66.4847V10.8817" stroke="#3F6DB1"/>
<path d="M612.664 66.4847V10.1092" stroke="#3F6DB1"/>
<path d="M614.678 66.4846V9.36284" stroke="#3F6DB1"/>
<path d="M616.691 66.4846V8.64319" stroke="#3F6DB1"/>
<path d="M618.705 66.4846V7.95036" stroke="#3F6DB1"/>
<path d="M620.718 66.4846V7.28481" stroke="#3F6DB1"/>
<path d="M622.731 66.4847V6.64676" stroke="#3F6DB1"/>
<path d="M624.745 66.4847V6.03647" stroke="#3F6DB1"/>
<path d="M626.758 66.4846V5.45422" stroke="#3F6DB1"/>
<path d="M628.772 66.4847V4.90031" stroke="#3F6DB1"/>
<path d="M630.785 66.4846V4.37491" stroke="#3F6DB1"/>
<path d="M632.799 66.4847V3.87831" stroke="#3F6DB1"/>
<path d="M634.812 66.4846V3.41068" stroke="#3F6DB1"/>
<path d="M636.825 66.4846V2.97229" stroke="#3F6DB1"/>
<path d="M638.839 66.4846V2.56325" stroke="#3F6DB1"/>
<path d="M640.852 66.4846V2.18382" stroke="#3F6DB1"/>
<path d="M642.866 66.4846V1.83411" stroke="#3F6DB1"/>
<path d="M644.879 66.4846V1.5143" stroke="#3F6DB1"/>
<path d="M646.893 66.4846V1.22452" stroke="#3F6DB1"/>
<path d="M648.906 66.4847V0.964951" stroke="#3F6DB1"/>
<path d="M650.919 66.4846V0.73558" stroke="#3F6DB1"/>
<path d="M652.933 66.4847V0.536621" stroke="#3F6DB1"/>
<path d="M654.946 66.4846V0.368118" stroke="#3F6DB1"/>
<path d="M656.959 66.4847V0.230148" stroke="#3F6DB1"/>
<path d="M658.973 66.4846V0.122757" stroke="#3F6DB1"/>
<path d="M660.986 66.4846V0.046051" stroke="#3F6DB1"/>
<path d="M663 66.4847V0" stroke="#3F6DB1"/>
<path d="M363 66.4846V134.47" stroke="#EE7993"/>
<path d="M365.013 66.4846V134.456" stroke="#EE7993"/>
<path d="M367.027 66.4846V134.414" stroke="#EE7993"/>
<path d="M369.04 66.4846V134.343" stroke="#EE7993"/>
<path d="M371.054 66.4846V134.243" stroke="#EE7993"/>
<path d="M373.067 66.4846V134.116" stroke="#EE7993"/>
<path d="M375.081 66.4846V133.96" stroke="#EE7993"/>
<path d="M377.094 66.4846V133.776" stroke="#EE7993"/>
<path d="M379.107 66.4846V133.564" stroke="#EE7993"/>
<path d="M381.121 66.4846V133.324" stroke="#EE7993"/>
<path d="M383.134 66.4846V133.056" stroke="#EE7993"/>
<path d="M385.148 66.4846V132.76" stroke="#EE7993"/>
<path d="M387.161 66.4846V132.436" stroke="#EE7993"/>
<path d="M389.175 66.4846V132.085" stroke="#EE7993"/>
<path d="M391.188 66.4846V131.707" stroke="#EE7993"/>
<path d="M393.201 66.4846V131.301" stroke="#EE7993"/>
<path d="M395.215 66.4846V130.869" stroke="#EE7993"/>
<path d="M397.228 66.4846V130.41" stroke="#EE7993"/>
<path d="M399.242 66.4846V129.924" stroke="#EE7993"/>
<path d="M401.255 66.4846V129.411" stroke="#EE7993"/>
<path d="M403.269 66.4846V128.873" stroke="#EE7993"/>
<path d="M405.282 66.4846V128.308" stroke="#EE7993"/>
<path d="M407.295 66.4846V127.718" stroke="#EE7993"/>
<path d="M409.309 66.4846V127.102" stroke="#EE7993"/>
<path d="M411.322 66.4846V126.461" stroke="#EE7993"/>
<path d="M413.335 66.4846V125.796" stroke="#EE7993"/>
<path d="M415.349 66.4846V125.105" stroke="#EE7993"/>
<path d="M417.362 66.4846V124.391" stroke="#EE7993"/>
<path d="M419.376 66.4846V123.652" stroke="#EE7993"/>
<path d="M421.389 66.4846V122.89" stroke="#EE7993"/>
<path d="M423.403 66.4846V122.105" stroke="#EE7993"/>
<path d="M425.416 66.4846V121.296" stroke="#EE7993"/>
<path d="M427.429 66.4846V120.465" stroke="#EE7993"/>
<path d="M429.443 66.4846V119.612" stroke="#EE7993"/>
<path d="M431.456 66.4846V118.736" stroke="#EE7993"/>
<path d="M433.47 66.4846V117.839" stroke="#EE7993"/>
<path d="M435.483 66.4846V116.922" stroke="#EE7993"/>
<path d="M437.497 66.4846V115.983" stroke="#EE7993"/>
<path d="M439.51 66.4846V115.024" stroke="#EE7993"/>
<path d="M441.523 66.4846V114.045" stroke="#EE7993"/>
<path d="M443.537 66.4846V113.047" stroke="#EE7993"/>
<path d="M445.55 66.4846V112.03" stroke="#EE7993"/>
<path d="M447.564 66.4846V110.994" stroke="#EE7993"/>
<path d="M449.577 66.4846V109.94" stroke="#EE7993"/>
<path d="M451.591 66.4846V108.869" stroke="#EE7993"/>
<path d="M453.604 66.4846V107.78" stroke="#EE7993"/>
<path d="M455.617 66.4846V106.675" stroke="#EE7993"/>
<path d="M457.631 66.4846V105.553" stroke="#EE7993"/>
<path d="M459.644 66.4846V104.416" stroke="#EE7993"/>
<path d="M461.658 66.4846V103.263" stroke="#EE7993"/>
<path d="M463.671 66.4846V102.096" stroke="#EE7993"/>
<path d="M465.685 66.4846V100.915" stroke="#EE7993"/>
<path d="M467.698 66.4846V99.7197" stroke="#EE7993"/>
<path d="M469.711 66.4846V98.5115" stroke="#EE7993"/>
<path d="M471.725 66.4846V97.2906" stroke="#EE7993"/>
<path d="M473.738 66.4846V96.0576" stroke="#EE7993"/>
<path d="M475.752 66.4846V94.8131" stroke="#EE7993"/>
<path d="M477.765 66.4846V93.5575" stroke="#EE7993"/>
<path d="M479.779 66.4846V92.2915" stroke="#EE7993"/>
<path d="M481.792 66.4846V91.0156" stroke="#EE7993"/>
<path d="M483.805 66.4846V89.7304" stroke="#EE7993"/>
<path d="M485.819 66.4846V88.4364" stroke="#EE7993"/>
<path d="M487.832 66.4846V87.1342" stroke="#EE7993"/>
<path d="M489.846 66.4846V85.8243" stroke="#EE7993"/>
<path d="M491.859 66.4846V84.5074" stroke="#EE7993"/>
<path d="M493.873 66.4846V83.184" stroke="#EE7993"/>
<path d="M495.886 66.4846V81.8547" stroke="#EE7993"/>
<path d="M497.899 66.4846V80.5201" stroke="#EE7993"/>
<path d="M499.913 66.4846V79.1807" stroke="#EE7993"/>
<path d="M501.926 66.4846V77.8372" stroke="#EE7993"/>
<path d="M503.939 66.4846V76.4901" stroke="#EE7993"/>
<path d="M505.953 66.4846V75.1401" stroke="#EE7993"/>
<path d="M507.966 66.4846V73.7877" stroke="#EE7993"/>
<path d="M509.98 66.4846V72.4334" stroke="#EE7993"/>
<path d="M511.993 66.4846V71.0781" stroke="#EE7993"/>
<path d="M514.007 66.4846V69.7221" stroke="#EE7993"/>
<path d="M516.02 66.4846V68.3661" stroke="#EE7993"/>
<path d="M518.034 66.4846V67.0107" stroke="#EE7993"/>
<line x1="362" y1="66.5" x2="664" y2="66.5" stroke="#929292"/>
<path d="M1 151V186" stroke="#3F6DB1"/>
<path d="M3.01343 151V186" stroke="#3F6DB1"/>
<path d="M5.02686 151V186" stroke="#3F6DB1"/>
<path d="M7.04028 151V186" stroke="#3F6DB1"/>
<path d="M9.05371 151V186" stroke="#3F6DB1"/>
<path d="M11.0671 151V186" stroke="#3F6DB1"/>
<path d="M13.0806 151V186" stroke="#3F6DB1"/>
<path d="M15.094 151V186" stroke="#3F6DB1"/>
<path d="M17.1074 151V186" stroke="#3F6DB1"/>
<path d="M19.1208 151V186" stroke="#3F6DB1"/>
<path d="M21.1343 151V186" stroke="#3F6DB1"/>
<path d="M23.1477 151V186" stroke="#3F6DB1"/>
<path d="M25.1611 151V186" stroke="#3F6DB1"/>
<path d="M27.1744 151V186" stroke="#3F6DB1"/>
<path d="M29.1879 151V186" stroke="#3F6DB1"/>
<path d="M31.2013 151V186" stroke="#3F6DB1"/>
<path d="M33.2147 151V186" stroke="#3F6DB1"/>
<path d="M35.2281 151V186" stroke="#3F6DB1"/>
<path d="M37.2416 151V186" stroke="#3F6DB1"/>
<path d="M39.255 151V186" stroke="#3F6DB1"/>
<path d="M41.2684 151V186" stroke="#3F6DB1"/>
<path d="M43.2819 151V186" stroke="#3F6DB1"/>
<path d="M45.2953 151V186" stroke="#3F6DB1"/>
<path d="M47.3087 151V186" stroke="#3F6DB1"/>
<path d="M49.3221 151V186" stroke="#3F6DB1"/>
<path d="M51.3356 151V186" stroke="#3F6DB1"/>
<path d="M53.349 151V186" stroke="#3F6DB1"/>
<path d="M55.3624 151V186" stroke="#3F6DB1"/>
<path d="M57.3759 151V186" stroke="#3F6DB1"/>
<path d="M59.3893 151V186" stroke="#3F6DB1"/>
<path d="M61.4027 151V186" stroke="#3F6DB1"/>
<path d="M63.4161 151V186" stroke="#3F6DB1"/>
<path d="M65.4296 151V186" stroke="#3F6DB1"/>
<path d="M67.443 151V186" stroke="#3F6DB1"/>
<path d="M69.4564 151V186" stroke="#3F6DB1"/>
<path d="M71.4698 151V186" stroke="#3F6DB1"/>
<path d="M73.4832 151V186" stroke="#3F6DB1"/>
<path d="M75.4966 151V186" stroke="#3F6DB1"/>
<path d="M77.51 151V186" stroke="#3F6DB1"/>
<path d="M79.5234 151V186" stroke="#3F6DB1"/>
<path d="M81.5369 151V186" stroke="#3F6DB1"/>
<path d="M83.5503 151V186" stroke="#3F6DB1"/>
<path d="M85.5637 151V186" stroke="#3F6DB1"/>
<path d="M87.5771 151V186" stroke="#3F6DB1"/>
<path d="M89.5906 151V186" stroke="#3F6DB1"/>
<path d="M91.604 151V186" stroke="#3F6DB1"/>
<path d="M93.6174 151V186" stroke="#3F6DB1"/>
<path d="M95.6309 151V186" stroke="#3F6DB1"/>
<path d="M97.6443 151V186" stroke="#3F6DB1"/>
<path d="M99.6577 151V186" stroke="#3F6DB1"/>
<path d="M101.671 151V186" stroke="#3F6DB1"/>
<path d="M103.685 151V186" stroke="#3F6DB1"/>
<path d="M105.698 151V186" stroke="#3F6DB1"/>
<path d="M107.711 151V186" stroke="#3F6DB1"/>
<path d="M109.725 151V186" stroke="#3F6DB1"/>
<path d="M111.738 151V186" stroke="#3F6DB1"/>
<path d="M113.752 151V186" stroke="#3F6DB1"/>
<path d="M115.765 151V186" stroke="#3F6DB1"/>
<path d="M117.779 151V186" stroke="#3F6DB1"/>
<path d="M119.792 151V186" stroke="#3F6DB1"/>
<path d="M121.805 151V186" stroke="#3F6DB1"/>
<path d="M123.819 151V186" stroke="#3F6DB1"/>
<path d="M125.832 151V186" stroke="#3F6DB1"/>
<path d="M127.846 151V186" stroke="#3F6DB1"/>
<path d="M129.859 151V186" stroke="#3F6DB1"/>
<path d="M131.873 151V186" stroke="#3F6DB1"/>
<path d="M133.886 151V186" stroke="#3F6DB1"/>
<path d="M135.899 151V186" stroke="#3F6DB1"/>
<path d="M137.913 151V186" stroke="#3F6DB1"/>
<path d="M139.926 151V186" stroke="#3F6DB1"/>
<path d="M141.94 151V186" stroke="#3F6DB1"/>
<path d="M143.953 151V186" stroke="#3F6DB1"/>
<path d="M145.967 151V186" stroke="#3F6DB1"/>
<path d="M147.98 151V186" stroke="#3F6DB1"/>
<path d="M149.993 151V186" stroke="#3F6DB1"/>
<path d="M152.007 151V186" stroke="#3F6DB1"/>
<path d="M154.02 151V186" stroke="#3F6DB1"/>
<path d="M156.033 151V186" stroke="#3F6DB1"/>
<path d="M158.047 151V186" stroke="#3F6DB1"/>
<path d="M160.06 151V186" stroke="#3F6DB1"/>
<path d="M162.074 151V186" stroke="#3F6DB1"/>
<path d="M164.087 151V186" stroke="#3F6DB1"/>
<path d="M166.101 151V186" stroke="#3F6DB1"/>
<path d="M168.114 151V186" stroke="#3F6DB1"/>
<path d="M170.127 151V186" stroke="#3F6DB1"/>
<path d="M172.141 151V186" stroke="#3F6DB1"/>
<path d="M174.154 151V186" stroke="#3F6DB1"/>
<path d="M176.168 151V186" stroke="#3F6DB1"/>
<path d="M178.181 151V186" stroke="#3F6DB1"/>
<path d="M180.195 151V186" stroke="#3F6DB1"/>
<path d="M182.208 151V186" stroke="#3F6DB1"/>
<path d="M184.221 151V186" stroke="#3F6DB1"/>
<path d="M186.235 151V186" stroke="#3F6DB1"/>
<path d="M188.248 151V186" stroke="#3F6DB1"/>
<path d="M190.262 151V186" stroke="#3F6DB1"/>
<path d="M192.275 151V186" stroke="#3F6DB1"/>
<path d="M194.289 151V186" stroke="#3F6DB1"/>
<path d="M196.302 151V186" stroke="#3F6DB1"/>
<path d="M198.315 151V186" stroke="#3F6DB1"/>
<path d="M200.329 151V186" stroke="#3F6DB1"/>
<path d="M202.342 151V186" stroke="#3F6DB1"/>
<path d="M204.356 151V186" stroke="#3F6DB1"/>
<path d="M206.369 151V186" stroke="#3F6DB1"/>
<path d="M208.383 151V186" stroke="#3F6DB1"/>
<path d="M210.396 151V186" stroke="#3F6DB1"/>
<path d="M212.409 151V186" stroke="#3F6DB1"/>
<path d="M214.423 151V186" stroke="#3F6DB1"/>
<path d="M216.436 151V186" stroke="#3F6DB1"/>
<path d="M218.45 151V186" stroke="#3F6DB1"/>
<path d="M220.463 151V186" stroke="#3F6DB1"/>
<path d="M222.477 151V186" stroke="#3F6DB1"/>
<path d="M224.49 151V186" stroke="#3F6DB1"/>
<path d="M226.503 151V186" stroke="#3F6DB1"/>
<path d="M228.517 151V186" stroke="#3F6DB1"/>
<path d="M230.53 151V186" stroke="#3F6DB1"/>
<path d="M232.544 151V186" stroke="#3F6DB1"/>
<path d="M234.557 151V186" stroke="#3F6DB1"/>
<path d="M236.571 151V186" stroke="#3F6DB1"/>
<path d="M238.584 151V186" stroke="#3F6DB1"/>
<path d="M240.597 151V186" stroke="#3F6DB1"/>
<path d="M242.611 151V186" stroke="#3F6DB1"/>
<path d="M244.624 151V186" stroke="#3F6DB1"/>
<path d="M246.638 151V186" stroke="#3F6DB1"/>
<path d="M248.651 151V186" stroke="#3F6DB1"/>
<path d="M250.665 151V186" stroke="#3F6DB1"/>
<path d="M252.678 151V186" stroke="#3F6DB1"/>
<path d="M254.691 151V186" stroke="#3F6DB1"/>
<path d="M256.705 151V186" stroke="#3F6DB1"/>
<path d="M258.718 151V186" stroke="#3F6DB1"/>
<path d="M260.731 151V186" stroke="#3F6DB1"/>
<path d="M262.745 151V186" stroke="#3F6DB1"/>
<path d="M264.758 151V186" stroke="#3F6DB1"/>
<path d="M266.772 151V186" stroke="#3F6DB1"/>
<path d="M268.785 151V186" stroke="#3F6DB1"/>
<path d="M270.799 151V186" stroke="#3F6DB1"/>
<path d="M272.812 151V186" stroke="#3F6DB1"/>
<path d="M274.825 151V186" stroke="#3F6DB1"/>
<path d="M276.839 151V186" stroke="#3F6DB1"/>
<path d="M278.852 151V186" stroke="#3F6DB1"/>
<path d="M280.866 151V186" stroke="#3F6DB1"/>
<path d="M282.879 151V186" stroke="#3F6DB1"/>
<path d="M284.893 151V186" stroke="#3F6DB1"/>
<path d="M286.906 151V186" stroke="#3F6DB1"/>
<path d="M288.919 151V186" stroke="#3F6DB1"/>
<path d="M290.933 151V186" stroke="#3F6DB1"/>
<path d="M292.946 151V186" stroke="#3F6DB1"/>
<path d="M294.96 151V186" stroke="#3F6DB1"/>
<path d="M296.973 151V186" stroke="#3F6DB1"/>
<path d="M298.987 151V186" stroke="#3F6DB1"/>
<path d="M301 151V186" stroke="#3F6DB1"/>
<line y1="186.21" x2="302" y2="186.21" stroke="#929292"/>
</svg>
