<svg width="140" height="126" viewBox="0 0 140 126" fill="none" xmlns="http://www.w3.org/2000/svg">
<g clip-path="url(#clip0)">
<line x1="20" y1="100" x2="120" y2="100" stroke="black" stroke-width="2"/>
<path d="M129.5 100C129.5 101.089 128.604 102.21 126.847 103.088C125.121 103.952 122.701 104.5 120 104.5C117.299 104.5 114.879 103.952 113.153 103.088C111.396 102.21 110.5 101.089 110.5 100C110.5 98.9107 111.396 97.7899 113.153 96.9117C114.879 96.0484 117.299 95.5 120 95.5C122.701 95.5 125.121 96.0484 126.847 96.9117C128.604 97.7899 129.5 98.9107 129.5 100Z" fill="#929292" stroke="white"/>
<line x1="120" y1="71" x2="120" y2="100" stroke="#3F6DB1" stroke-width="8"/>
<path d="M79.5 100C79.5 101.089 78.604 102.21 76.8475 103.088C75.1209 103.952 72.7006 104.5 70 104.5C67.2994 104.5 64.8791 103.952 63.1525 103.088C61.396 102.21 60.5 101.089 60.5 100C60.5 98.9107 61.396 97.7899 63.1525 96.9117C64.8791 96.0484 67.2994 95.5 70 95.5C72.7006 95.5 75.1209 96.0484 76.8475 96.9117C78.604 97.7899 79.5 98.9107 79.5 100Z" fill="#929292" stroke="white"/>
<line x1="70" y1="25" x2="70" y2="100" stroke="#3F6DB1" stroke-width="8"/>
<path d="M29.5 100C29.5 101.089 28.604 102.21 26.8475 103.088C25.1209 103.952 22.7006 104.5 20 104.5C17.2994 104.5 14.8791 103.952 13.1525 103.088C11.396 102.21 10.5 101.089 10.5 100C10.5 98.9107 11.396 97.7899 13.1525 96.9117C14.8791 96.0484 17.2994 95.5 20 95.5C22.7006 95.5 25.1209 96.0484 26.8475 96.9117C28.604 97.7899 29.5 98.9107 29.5 100Z" fill="#929292" stroke="white"/>
<line x1="20" x2="20" y2="100" stroke="#3F6DB1" stroke-width="8"/>
<path d="M67.13 116.477C67.0433 116.39 67 116.328 67 116.291C67 116.242 67.0186 116.143 67.0557 115.994C67.0929 115.845 67.1238 115.759 67.1486 115.734C67.1734 115.672 67.2291 115.641 67.3158 115.641C67.4025 115.641 67.7183 115.635 68.2632 115.623H69.2478L69.6008 114.136C69.638 114 69.6813 113.821 69.7308 113.598C69.7804 113.375 69.8237 113.214 69.8609 113.115C69.898 113.016 69.9352 112.892 69.9724 112.743C70.0095 112.594 70.059 112.489 70.121 112.427C70.1829 112.365 70.2448 112.291 70.3067 112.204C70.3687 112.118 70.4554 112.062 70.5668 112.037C70.6783 112.012 70.7897 112 70.9012 112C71.1241 112.012 71.2789 112.081 71.3656 112.204C71.4523 112.328 71.4957 112.446 71.4957 112.557C71.4957 112.644 71.4399 112.935 71.3285 113.43C71.217 113.926 71.0932 114.415 70.9569 114.898L70.7712 115.585C70.7712 115.61 71.0808 115.623 71.7 115.623H72.6475C72.7342 115.709 72.7775 115.777 72.7775 115.827C72.7775 116.099 72.697 116.316 72.536 116.477H70.5482L69.8795 119.171C69.3965 121.152 69.155 122.217 69.155 122.366C69.155 122.886 69.3221 123.146 69.6565 123.146C70.09 123.146 70.5111 122.936 70.9198 122.515C71.3285 122.094 71.6567 121.573 71.9044 120.954C71.9291 120.88 71.9601 120.837 71.9973 120.824C72.0344 120.812 72.1273 120.799 72.2759 120.787H72.3502C72.536 120.787 72.6289 120.837 72.6289 120.936C72.6289 120.973 72.6103 121.047 72.5732 121.159C72.5112 121.357 72.3998 121.592 72.2388 121.864C72.0778 122.137 71.8672 122.428 71.6071 122.738C71.3471 123.047 71.0313 123.307 70.6597 123.518C70.2882 123.728 69.9104 123.834 69.5265 123.834C69.155 123.834 68.802 123.741 68.4676 123.555C68.1332 123.369 67.8917 123.047 67.7431 122.589C67.7183 122.49 67.7059 122.323 67.7059 122.087V121.753L68.3561 119.152C68.7896 117.406 69.0125 116.527 69.0249 116.514C69.0249 116.489 68.7091 116.477 68.0775 116.477H67.13Z" fill="black"/>
<path d="M100.13 116.741C100.043 116.654 100 116.592 100 116.555C100 116.505 100.019 116.406 100.056 116.258C100.093 116.109 100.124 116.022 100.149 115.998C100.173 115.936 100.229 115.905 100.316 115.905C100.403 115.905 100.718 115.899 101.263 115.886H102.248L102.601 114.4C102.638 114.264 102.682 114.084 102.731 113.861C102.781 113.638 102.824 113.477 102.861 113.378C102.898 113.279 102.935 113.155 102.973 113.006C103.01 112.858 103.059 112.753 103.121 112.691C103.183 112.629 103.245 112.554 103.307 112.468C103.369 112.381 103.456 112.325 103.567 112.301C103.679 112.276 103.79 112.263 103.901 112.263C104.124 112.276 104.279 112.344 104.366 112.468C104.453 112.592 104.496 112.709 104.496 112.821C104.496 112.907 104.44 113.198 104.329 113.694C104.217 114.189 104.093 114.679 103.957 115.162L103.771 115.849C103.771 115.874 104.081 115.886 104.7 115.886H105.648C105.735 115.973 105.778 116.041 105.778 116.091C105.778 116.363 105.697 116.58 105.536 116.741H103.549L102.88 119.435C102.397 121.416 102.155 122.482 102.155 122.63C102.155 123.15 102.322 123.41 102.657 123.41C103.09 123.41 103.511 123.2 103.92 122.779C104.329 122.358 104.657 121.837 104.905 121.218C104.93 121.144 104.96 121.101 104.998 121.088C105.035 121.076 105.128 121.063 105.276 121.051H105.351C105.536 121.051 105.629 121.101 105.629 121.2C105.629 121.237 105.611 121.311 105.574 121.423C105.512 121.621 105.4 121.856 105.239 122.129C105.078 122.401 104.868 122.692 104.607 123.002C104.347 123.311 104.032 123.571 103.66 123.782C103.288 123.993 102.911 124.098 102.527 124.098C102.155 124.098 101.802 124.005 101.468 123.819C101.133 123.633 100.892 123.311 100.743 122.853C100.718 122.754 100.706 122.587 100.706 122.351V122.017L101.356 119.416C101.79 117.67 102.013 116.79 102.025 116.778C102.025 116.753 101.709 116.741 101.078 116.741H100.13Z" fill="black"/>
<path d="M111.519 119.49V119.249L111.779 118.877H117.334V116.091L117.352 113.304C117.476 113.143 117.594 113.062 117.705 113.062C117.866 113.062 117.99 113.155 118.077 113.341V118.877H123.613C123.799 118.976 123.892 119.1 123.892 119.249C123.892 119.398 123.799 119.521 123.613 119.62H118.077V125.157C117.978 125.33 117.866 125.417 117.742 125.417H117.668C117.52 125.417 117.408 125.33 117.334 125.157V119.62H111.779C111.605 119.534 111.519 119.41 111.519 119.249V119.49Z" fill="black"/>
<path d="M131.621 111.204C131.633 111.204 132.079 111.173 132.958 111.111C133.838 111.05 134.29 111.012 134.315 111C134.463 111 134.538 111.056 134.538 111.167C134.538 111.303 134.315 112.239 133.869 113.973C133.398 115.806 133.163 116.741 133.163 116.778C133.163 116.803 133.206 116.772 133.293 116.685C134.048 116.016 134.853 115.682 135.708 115.682C136.377 115.682 136.916 115.849 137.324 116.183C137.733 116.518 137.944 117.007 137.956 117.651C137.956 118.283 137.721 119.261 137.25 120.587C136.779 121.912 136.544 122.704 136.544 122.965C136.556 123.138 136.587 123.256 136.637 123.318C136.686 123.379 136.779 123.41 136.916 123.41C137.262 123.41 137.584 123.225 137.882 122.853C138.179 122.482 138.42 121.974 138.606 121.33C138.643 121.193 138.681 121.113 138.718 121.088C138.755 121.063 138.854 121.051 139.015 121.051C139.263 121.051 139.387 121.101 139.387 121.2C139.387 121.212 139.362 121.305 139.312 121.478C139.114 122.209 138.798 122.81 138.365 123.28C137.944 123.813 137.442 124.079 136.86 124.079H136.767C136.185 124.079 135.764 123.912 135.504 123.578C135.244 123.243 135.113 122.89 135.113 122.519C135.113 122.321 135.336 121.59 135.782 120.326C136.228 119.063 136.457 118.116 136.47 117.484C136.47 116.753 136.197 116.388 135.652 116.388H135.559C134.531 116.388 133.64 116.995 132.884 118.208L132.754 118.45L132.122 120.958C131.726 122.568 131.497 123.448 131.435 123.596C131.274 123.931 131.001 124.098 130.617 124.098C130.444 124.098 130.295 124.042 130.172 123.931C130.048 123.819 129.98 123.708 129.967 123.596C129.967 123.423 130.419 121.54 131.323 117.948L132.698 112.449C132.698 112.288 132.655 112.189 132.568 112.152C132.482 112.115 132.24 112.084 131.844 112.059H131.454C131.379 111.985 131.342 111.935 131.342 111.91C131.342 111.886 131.354 111.768 131.379 111.557C131.441 111.322 131.522 111.204 131.621 111.204Z" fill="black"/>
<path d="M0.13005 116.741C0.0433499 116.654 0 116.592 0 116.555C0 116.505 0.0185785 116.406 0.0557356 116.258C0.0928927 116.109 0.123857 116.022 0.148628 115.998C0.1734 115.936 0.229135 115.905 0.315835 115.905C0.402535 115.905 0.71837 115.899 1.26334 115.886H2.248L2.601 114.4C2.63815 114.264 2.6815 114.084 2.73104 113.861C2.78059 113.638 2.82394 113.477 2.86109 113.378C2.89825 113.279 2.93541 113.155 2.97257 113.006C3.00972 112.858 3.05927 112.753 3.12119 112.691C3.18312 112.629 3.24505 112.554 3.30698 112.468C3.36891 112.381 3.45561 112.325 3.56708 112.301C3.67855 112.276 3.79002 112.263 3.90149 112.263C4.12444 112.276 4.27926 112.344 4.36596 112.468C4.45266 112.592 4.49601 112.709 4.49601 112.821C4.49601 112.907 4.44027 113.198 4.3288 113.694C4.21733 114.189 4.09347 114.679 3.95723 115.162L3.77144 115.849C3.77144 115.874 4.08109 115.886 4.70037 115.886H5.64788C5.73458 115.973 5.77792 116.041 5.77792 116.091C5.77792 116.363 5.69742 116.58 5.5364 116.741H3.5485L2.87967 119.435C2.39663 121.416 2.15511 122.482 2.15511 122.63C2.15511 123.15 2.32232 123.41 2.65673 123.41C3.09023 123.41 3.51134 123.2 3.92007 122.779C4.3288 122.358 4.65702 121.837 4.90473 121.218C4.92951 121.144 4.96047 121.101 4.99763 121.088C5.03478 121.076 5.12768 121.063 5.2763 121.051H5.35062C5.5364 121.051 5.6293 121.101 5.6293 121.2C5.6293 121.237 5.61072 121.311 5.57356 121.423C5.51163 121.621 5.40016 121.856 5.23915 122.129C5.07813 122.401 4.86758 122.692 4.60748 123.002C4.34738 123.311 4.03154 123.571 3.65997 123.782C3.2884 123.993 2.91064 124.098 2.52668 124.098C2.15511 124.098 1.80212 124.005 1.4677 123.819C1.13329 123.633 0.89177 123.311 0.743141 122.853C0.71837 122.754 0.705984 122.587 0.705984 122.351V122.017L1.35623 119.416C1.78973 117.67 2.01267 116.79 2.02506 116.778C2.02506 116.753 1.70923 116.741 1.07756 116.741H0.13005Z" fill="black"/>
<path d="M12.0388 119.49V119.249L12.2989 118.877H23.0931C23.2789 118.976 23.3718 119.1 23.3718 119.249C23.3718 119.398 23.2789 119.521 23.0931 119.621H12.2989C12.1255 119.534 12.0388 119.41 12.0388 119.249V119.49Z" fill="black"/>
<path d="M31.6207 111.204C31.6331 111.204 32.079 111.173 32.9584 111.111C33.8378 111.05 34.2898 111.012 34.3146 111C34.4632 111 34.5375 111.056 34.5375 111.167C34.5375 111.303 34.3146 112.239 33.8687 113.973C33.3981 115.806 33.1627 116.741 33.1627 116.778C33.1627 116.803 33.2061 116.772 33.2928 116.685C34.0483 116.016 34.8534 115.682 35.708 115.682C36.3768 115.682 36.9156 115.849 37.3243 116.183C37.7331 116.518 37.9436 117.007 37.956 117.651C37.956 118.283 37.7207 119.261 37.25 120.587C36.7794 121.912 36.544 122.704 36.544 122.965C36.5564 123.138 36.5874 123.256 36.6369 123.318C36.6865 123.379 36.7794 123.41 36.9156 123.41C37.2624 123.41 37.5844 123.225 37.8817 122.853C38.1789 122.482 38.4205 121.974 38.6062 121.33C38.6434 121.193 38.6806 121.113 38.7177 121.088C38.7549 121.063 38.854 121.051 39.015 121.051C39.2627 121.051 39.3865 121.101 39.3865 121.2C39.3865 121.212 39.3618 121.305 39.3122 121.478C39.1141 122.209 38.7982 122.81 38.3647 123.28C37.9436 123.813 37.442 124.079 36.8599 124.079H36.767C36.1848 124.079 35.7637 123.912 35.5036 123.578C35.2435 123.243 35.1135 122.89 35.1135 122.519C35.1135 122.321 35.3364 121.59 35.7823 120.326C36.2282 119.063 36.4573 118.116 36.4697 117.484C36.4697 116.753 36.1972 116.388 35.6523 116.388H35.5594C34.5313 116.388 33.6396 116.995 32.8841 118.208L32.754 118.45L32.1223 120.958C31.726 122.568 31.4969 123.448 31.4349 123.596C31.2739 123.931 31.0014 124.098 30.6175 124.098C30.4441 124.098 30.2954 124.042 30.1716 123.931C30.0477 123.819 29.9796 123.708 29.9672 123.596C29.9672 123.423 30.4193 121.54 31.3235 117.948L32.6983 112.449C32.6983 112.288 32.6549 112.189 32.5682 112.152C32.4815 112.115 32.24 112.084 31.8437 112.059H31.4535C31.3792 111.985 31.342 111.935 31.342 111.91C31.342 111.886 31.3544 111.768 31.3792 111.557C31.4411 111.322 31.5216 111.204 31.6207 111.204Z" fill="black"/>
<line x1="30.5" y1="24.5" x2="109.5" y2="24.5" stroke="#929292" stroke-linecap="square" stroke-dasharray="5 5"/>
<path d="M30 1L25.6699 8.5H34.3301L30 1ZM30.75 25V7.75H29.25V25H30.75Z" fill="#3FB17D"/>
<path d="M110 71L114.33 63.5H105.67L110 71ZM109.25 24V64.25H110.75V24H109.25Z" fill="#EE7993"/>
</g>
<defs>
<clipPath id="clip0">
<rect width="139.387" height="125.417" fill="white"/>
</clipPath>
</defs>
</svg>
