<svg width="406" height="199" viewBox="0 0 406 199" fill="none" xmlns="http://www.w3.org/2000/svg">
<path d="M406 99.5004L396 93.7269V105.274L406 99.5004ZM0 100.5H397V98.5004H0L0 100.5Z" fill="url(#paint0_linear)"/>
<path d="M29 99.5L31.598 90.3095L34.4847 81.119L37.0828 72.3463L39.6808 63.5736L42.2789 55.2186L45.1656 47.2814L47.7636 39.7619L50.3617 32.6602L52.9597 26.3939L55.8464 20.9632L58.4444 15.9502L61.0425 11.7727L63.9292 8.01299L66.5272 5.50649L69.1253 3.8355L71.7233 3H74.61L77.2081 3.8355L79.8061 5.50649L82.4041 8.01299L85.2908 11.7727L87.8889 15.9502L90.4869 20.9632L93.3736 26.3939L95.9717 32.6602L98.5697 39.7619L101.168 47.2814L104.054 55.2186L106.652 63.5736L109.251 72.3463L111.849 81.119L114.735 90.3095L117.333 99.5L119.931 108.69L122.818 117.881L125.416 126.654L128.014 135.426L130.612 143.781L133.499 151.719L136.097 159.238L138.695 166.34L141.293 172.606L144.18 178.037L146.778 183.05L149.376 187.227L152.263 190.987L154.861 193.493L157.459 195.164L160.057 196H162.943L165.541 195.164L168.139 193.493L170.737 190.987L173.624 187.227L176.222 183.05L178.82 178.037L181.707 172.606L184.305 166.34L186.903 159.238L189.501 151.719L192.388 143.781L194.986 135.426L197.584 126.654L200.182 117.881L203.069 108.69L205.667 99.5L208.265 90.3095L211.151 81.119L213.749 72.3463L216.347 63.5736L218.946 55.2186L221.832 47.2814L224.43 39.7619L227.028 32.6602L229.626 26.3939L232.513 20.9632L235.111 15.9502L237.709 11.7727L240.596 8.01299L243.194 5.50649L245.792 3.8355L248.39 3H251.277L253.875 3.8355L256.473 5.50649L259.071 8.01299L261.958 11.7727L264.556 15.9502L267.154 20.9632L270.04 26.3939L272.638 32.6602L275.236 39.7619L277.834 47.2814L280.721 55.2186L283.319 63.5736L285.917 72.3463L288.515 81.119L291.402 90.3095L294 99.5L296.931 108.69L299.818 117.881L302.416 126.654L305.014 135.426L307.612 143.781L310.499 151.719L313.097 159.238L315.695 166.34L318.293 172.606L321.18 178.037L323.778 183.05L326.376 187.227L329.263 190.987L331.861 193.493L334.459 195.164L337.057 196H339.943L342.541 195.164L345.139 193.493L347.737 190.987L350.624 187.227L353.222 183.05L355.82 178.037L358.707 172.606L361.305 166.34L363.903 159.238L366.501 151.719L369.388 143.781L371.986 135.426L374.584 126.654L377.182 117.881L380.069 108.69L382.667 99.5" stroke="url(#paint1_linear)" stroke-width="3"/>
<defs>
<linearGradient id="paint0_linear" x1="0" y1="99.5004" x2="31" y2="99.5004" gradientUnits="userSpaceOnUse">
<stop stop-opacity="0"/>
<stop offset="1"/>
</linearGradient>
<linearGradient id="paint1_linear" x1="159.957" y1="1.95957" x2="159.957" y2="196" gradientUnits="userSpaceOnUse">
<stop offset="0.469301" stop-color="#3F6DB1"/>
<stop offset="0.535448" stop-color="#EE7993"/>
</linearGradient>
</defs>
</svg>
