<svg width="406" height="199" viewBox="0 0 406 199" fill="none" xmlns="http://www.w3.org/2000/svg">
<path d="M406 99.5004L396 93.7269V105.274L406 99.5004ZM0 100.5H397V98.5004H0L0 100.5Z" fill="url(#paint0_linear)"/>
<path d="M53.5 99.5004C53.5 100.59 52.604 101.71 50.8475 102.589C49.1209 103.452 46.7006 104 44 104C41.2994 104 38.8791 103.452 37.1525 102.589C35.396 101.71 34.5 100.59 34.5 99.5004C34.5 98.4111 35.396 97.2903 37.1525 96.4121C38.8791 95.5488 41.2994 95.0004 44 95.0004C46.7006 95.0004 49.1209 95.5488 50.8475 96.4121C52.604 97.2903 53.5 98.4111 53.5 99.5004Z" fill="#929292" stroke="white"/>
<line x1="44" y1="89.5171" x2="44" y2="99.5004" stroke="#3F6DB1" stroke-width="8"/>
<path d="M83.5 99.5004C83.5 100.59 82.604 101.711 80.8475 102.589C79.1209 103.452 76.7006 104 74 104C71.2994 104 68.8791 103.452 67.1525 102.589C65.396 101.711 64.5 100.59 64.5 99.5004C64.5 98.4111 65.396 97.2904 67.1525 96.4121C68.8791 95.5488 71.2994 95.0004 74 95.0004C76.7006 95.0004 79.1209 95.5488 80.8475 96.4121C82.604 97.2904 83.5 98.4111 83.5 99.5004Z" fill="#929292" stroke="white"/>
<line x1="74" y1="41.1044" x2="74" y2="99.5004" stroke="#3F6DB1" stroke-width="8"/>
<path d="M113.5 99.5004C113.5 100.59 112.604 101.711 110.847 102.589C109.121 103.452 106.701 104 104 104C101.299 104 98.8791 103.452 97.1525 102.589C95.396 101.711 94.5 100.59 94.5 99.5004C94.5 98.4111 95.396 97.2904 97.1525 96.4121C98.8791 95.5488 101.299 95.0004 104 95.0004C106.701 95.0004 109.121 95.5488 110.847 96.4121C112.604 97.2904 113.5 98.4111 113.5 99.5004Z" fill="#929292" stroke="white"/>
<line x1="104" y1="8.33887" x2="104" y2="99.5004" stroke="#3F6DB1" stroke-width="8"/>
<path d="M143.5 99.5004C143.5 100.59 142.604 101.711 140.847 102.589C139.121 103.452 136.701 104 134 104C131.299 104 128.879 103.452 127.153 102.589C125.396 101.711 124.5 100.59 124.5 99.5004C124.5 98.4111 125.396 97.2904 127.153 96.4121C128.879 95.5488 131.299 95.0004 134 95.0004C136.701 95.0004 139.121 95.5488 140.847 96.4121C142.604 97.2904 143.5 98.4111 143.5 99.5004Z" fill="#929292" stroke="white"/>
<line x1="134" y1="7.62939e-06" x2="134" y2="99.5004" stroke="#3F6DB1" stroke-width="8"/>
<path d="M173.5 99.5004C173.5 100.59 172.604 101.711 170.847 102.589C169.121 103.452 166.701 104 164 104C161.299 104 158.879 103.452 157.153 102.589C155.396 101.711 154.5 100.59 154.5 99.5004C154.5 98.4111 155.396 97.2904 157.153 96.4121C158.879 95.5488 161.299 95.0004 164 95.0004C166.701 95.0004 169.121 95.5488 170.847 96.4121C172.604 97.2904 173.5 98.4111 173.5 99.5004Z" fill="#929292" stroke="white"/>
<line x1="164" y1="18.3222" x2="164" y2="99.5004" stroke="#3F6DB1" stroke-width="8"/>
<path d="M203.5 99.5004C203.5 100.59 202.604 101.711 200.847 102.589C199.121 103.452 196.701 104 194 104C191.299 104 188.879 103.452 187.153 102.589C185.396 101.711 184.5 100.59 184.5 99.5004C184.5 98.4111 185.396 97.2904 187.153 96.4121C188.879 95.5488 191.299 95.0004 194 95.0004C196.701 95.0004 199.121 95.5488 200.847 96.4121C202.604 97.2904 203.5 98.4111 203.5 99.5004Z" fill="#929292" stroke="white"/>
<line x1="194" y1="58.396" x2="194" y2="99.5004" stroke="#3F6DB1" stroke-width="8"/>
<line x1="224" y1="109.484" x2="224" y2="99.5004" stroke="#EE7993" stroke-width="8"/>
<path d="M233.5 99.5004C233.5 100.59 232.604 101.711 230.847 102.589C229.121 103.452 226.701 104 224 104C221.299 104 218.879 103.452 217.153 102.589C215.396 101.711 214.5 100.59 214.5 99.5004C214.5 98.4111 215.396 97.2904 217.153 96.4121C218.879 95.5488 221.299 95.0004 224 95.0004C226.701 95.0004 229.121 95.5488 230.847 96.4121C232.604 97.2904 233.5 98.4111 233.5 99.5004Z" fill="#929292" stroke="white"/>
<line x1="254" y1="157.896" x2="254" y2="99.5004" stroke="#EE7993" stroke-width="8"/>
<path d="M263.5 99.5004C263.5 100.59 262.604 101.711 260.847 102.589C259.121 103.452 256.701 104 254 104C251.299 104 248.879 103.452 247.153 102.589C245.396 101.711 244.5 100.59 244.5 99.5004C244.5 98.4111 245.396 97.2904 247.153 96.4121C248.879 95.5488 251.299 95.0004 254 95.0004C256.701 95.0004 259.121 95.5488 260.847 96.4121C262.604 97.2904 263.5 98.4111 263.5 99.5004Z" fill="#929292" stroke="white"/>
<line x1="284" y1="190.662" x2="284" y2="99.5004" stroke="#EE7993" stroke-width="8"/>
<path d="M293.5 99.5004C293.5 100.59 292.604 101.711 290.847 102.589C289.121 103.452 286.701 104 284 104C281.299 104 278.879 103.452 277.153 102.589C275.396 101.711 274.5 100.59 274.5 99.5004C274.5 98.4111 275.396 97.2904 277.153 96.4121C278.879 95.5488 281.299 95.0004 284 95.0004C286.701 95.0004 289.121 95.5488 290.847 96.4121C292.604 97.2904 293.5 98.4111 293.5 99.5004Z" fill="#929292" stroke="white"/>
<line x1="314" y1="199.001" x2="314" y2="99.5004" stroke="#EE7993" stroke-width="8"/>
<path d="M323.5 99.5004C323.5 100.59 322.604 101.711 320.847 102.589C319.121 103.452 316.701 104 314 104C311.299 104 308.879 103.452 307.153 102.589C305.396 101.711 304.5 100.59 304.5 99.5004C304.5 98.4111 305.396 97.2904 307.153 96.4121C308.879 95.5488 311.299 95.0004 314 95.0004C316.701 95.0004 319.121 95.5488 320.847 96.4121C322.604 97.2904 323.5 98.4111 323.5 99.5004Z" fill="#929292" stroke="white"/>
<line x1="344" y1="180.679" x2="344" y2="99.5004" stroke="#EE7993" stroke-width="8"/>
<path d="M353.5 99.5004C353.5 100.59 352.604 101.711 350.847 102.589C349.121 103.452 346.701 104 344 104C341.299 104 338.879 103.452 337.153 102.589C335.396 101.711 334.5 100.59 334.5 99.5004C334.5 98.4111 335.396 97.2904 337.153 96.4121C338.879 95.5488 341.299 95.0004 344 95.0004C346.701 95.0004 349.121 95.5488 350.847 96.4121C352.604 97.2904 353.5 98.4111 353.5 99.5004Z" fill="#929292" stroke="white"/>
<line x1="374" y1="140.605" x2="374" y2="99.5004" stroke="#EE7993" stroke-width="8"/>
<path d="M383.5 99.5004C383.5 100.59 382.604 101.711 380.847 102.589C379.121 103.452 376.701 104 374 104C371.299 104 368.879 103.452 367.153 102.589C365.396 101.711 364.5 100.59 364.5 99.5004C364.5 98.4111 365.396 97.2904 367.153 96.4121C368.879 95.5488 371.299 95.0004 374 95.0004C376.701 95.0004 379.121 95.5488 380.847 96.4121C382.604 97.2904 383.5 98.4111 383.5 99.5004Z" fill="#929292" stroke="white"/>
<defs>
<linearGradient id="paint0_linear" x1="0" y1="99.5004" x2="31" y2="99.5004" gradientUnits="userSpaceOnUse">
<stop stop-opacity="0"/>
<stop offset="1"/>
</linearGradient>
</defs>
</svg>
