<svg width="406" height="199" viewBox="0 0 406 199" fill="none" xmlns="http://www.w3.org/2000/svg">
<path d="M406 99.5004L396 93.7269V105.274L406 99.5004ZM0 100.5H397V98.5004H0L0 100.5Z" fill="url(#paint0_linear)"/>
<path d="M37 99.5L42.2549 90.3095L48.0937 81.119L53.3486 72.3463L58.6035 63.5736L63.8584 55.2186L69.6972 47.2814L74.9521 39.7619L80.207 32.6602L85.4619 26.3939L91.3007 20.9632L96.5556 15.9502L101.81 11.7727L107.649 8.01299L112.904 5.50649L118.159 3.8355L123.414 3H129.253L134.508 3.8355L139.763 5.50649L145.017 8.01299L150.856 11.7727L156.111 15.9502L161.366 20.9632L167.205 26.3939L172.46 32.6602L177.715 39.7619L182.969 47.2814L188.808 55.2186L194.063 63.5736L199.318 72.3463L204.573 81.119L210.412 90.3095L215.667 99.5L220.922 108.69L226.76 117.881L232.015 126.654L237.27 135.426L242.525 143.781L248.364 151.719L253.619 159.238L258.874 166.34L264.129 172.606L269.967 178.037L275.222 183.05L280.477 187.227L286.316 190.987L291.571 193.493L296.826 195.164L302.081 196H307.919L313.174 195.164L318.429 193.493L323.684 190.987L329.523 187.227L334.778 183.05L340.033 178.037L345.871 172.606L351.126 166.34L356.381 159.238L361.636 151.719L367.475 143.781L372.73 135.426L377.985 126.654L383.24 117.881L389.078 108.69L394.333 99.5" stroke="url(#paint1_linear)" stroke-width="3"/>
<defs>
<linearGradient id="paint0_linear" x1="0" y1="99.5004" x2="31" y2="99.5004" gradientUnits="userSpaceOnUse">
<stop stop-opacity="0"/>
<stop offset="1"/>
</linearGradient>
<linearGradient id="paint1_linear" x1="301.879" y1="1.95957" x2="301.879" y2="196" gradientUnits="userSpaceOnUse">
<stop offset="0.469301" stop-color="#3F6DB1"/>
<stop offset="0.535448" stop-color="#EE7993"/>
</linearGradient>
</defs>
</svg>
