<svg width="380" height="180" viewBox="0 0 380 180" fill="none" xmlns="http://www.w3.org/2000/svg">
<path d="M370 90L280 170L10 90M370 90L190 10L10 90M370 90L100 170L10 90" stroke="#444444" stroke-width="3"/>
<path d="M280 170H100L190 10L280 170Z" stroke="#EE7993" stroke-width="4"/>
<circle cx="370" cy="90" r="9.5" fill="#929292" stroke="white"/>
<circle cx="10" cy="90" r="9.5" fill="#929292" stroke="white"/>
<circle cx="100" cy="170" r="9.5" fill="#EE7993" stroke="white"/>
<circle cx="190" cy="10" r="9.5" fill="#EE7993" stroke="white"/>
<circle cx="280" cy="170" r="9.5" fill="#EE7993" stroke="white"/>
<path d="M76.4072 46H74.7725V35.1631L71.4941 36.3672V34.8906L76.1523 33.1416H76.4072V46ZM81.6631 47.0986H80.2656L85.6094 33.2031H86.998L81.6631 47.0986ZM90.9531 38.8105H92.1748C92.9424 38.7988 93.5459 38.5967 93.9854 38.2041C94.4248 37.8115 94.6445 37.2812 94.6445 36.6133C94.6445 35.1133 93.8975 34.3633 92.4033 34.3633C91.7002 34.3633 91.1377 34.5654 90.7158 34.9697C90.2998 35.3682 90.0918 35.8984 90.0918 36.5605H88.4658C88.4658 35.5469 88.835 34.7061 89.5732 34.0381C90.3174 33.3643 91.2607 33.0273 92.4033 33.0273C93.6104 33.0273 94.5566 33.3467 95.2422 33.9854C95.9277 34.624 96.2705 35.5117 96.2705 36.6484C96.2705 37.2051 96.0889 37.7441 95.7256 38.2656C95.3682 38.7871 94.8789 39.1768 94.2578 39.4346C94.9609 39.6572 95.5029 40.0264 95.8838 40.542C96.2705 41.0576 96.4639 41.6875 96.4639 42.4316C96.4639 43.5801 96.0889 44.4912 95.3389 45.165C94.5889 45.8389 93.6133 46.1758 92.4121 46.1758C91.2109 46.1758 90.2324 45.8506 89.4766 45.2002C88.7266 44.5498 88.3516 43.6914 88.3516 42.625H89.9863C89.9863 43.2988 90.2061 43.8379 90.6455 44.2422C91.085 44.6465 91.6738 44.8486 92.4121 44.8486C93.1973 44.8486 93.7979 44.6436 94.2139 44.2334C94.6299 43.8232 94.8379 43.2344 94.8379 42.4668C94.8379 41.7227 94.6094 41.1514 94.1523 40.7529C93.6953 40.3545 93.0361 40.1494 92.1748 40.1377H90.9531V38.8105Z" fill="black"/>
<path d="M296.448 46H288.063V44.8311L292.493 39.9092C293.149 39.165 293.601 38.5615 293.847 38.0986C294.099 37.6299 294.225 37.1465 294.225 36.6484C294.225 35.9805 294.022 35.4326 293.618 35.0049C293.214 34.5771 292.675 34.3633 292.001 34.3633C291.192 34.3633 290.562 34.5947 290.111 35.0576C289.666 35.5146 289.443 36.1533 289.443 36.9736H287.817C287.817 35.7959 288.195 34.8438 288.951 34.1172C289.713 33.3906 290.729 33.0273 292.001 33.0273C293.19 33.0273 294.131 33.3408 294.822 33.9678C295.514 34.5889 295.859 35.418 295.859 36.4551C295.859 37.7148 295.057 39.2148 293.451 40.9551L290.023 44.6729H296.448V46ZM298.663 47.0986H297.266L302.609 33.2031H303.998L298.663 47.0986ZM307.953 38.8105H309.175C309.942 38.7988 310.546 38.5967 310.985 38.2041C311.425 37.8115 311.645 37.2812 311.645 36.6133C311.645 35.1133 310.897 34.3633 309.403 34.3633C308.7 34.3633 308.138 34.5654 307.716 34.9697C307.3 35.3682 307.092 35.8984 307.092 36.5605H305.466C305.466 35.5469 305.835 34.7061 306.573 34.0381C307.317 33.3643 308.261 33.0273 309.403 33.0273C310.61 33.0273 311.557 33.3467 312.242 33.9854C312.928 34.624 313.271 35.5117 313.271 36.6484C313.271 37.2051 313.089 37.7441 312.726 38.2656C312.368 38.7871 311.879 39.1768 311.258 39.4346C311.961 39.6572 312.503 40.0264 312.884 40.542C313.271 41.0576 313.464 41.6875 313.464 42.4316C313.464 43.5801 313.089 44.4912 312.339 45.165C311.589 45.8389 310.613 46.1758 309.412 46.1758C308.211 46.1758 307.232 45.8506 306.477 45.2002C305.727 44.5498 305.352 43.6914 305.352 42.625H306.986C306.986 43.2988 307.206 43.8379 307.646 44.2422C308.085 44.6465 308.674 44.8486 309.412 44.8486C310.197 44.8486 310.798 44.6436 311.214 44.2334C311.63 43.8232 311.838 43.2344 311.838 42.4668C311.838 41.7227 311.609 41.1514 311.152 40.7529C310.695 40.3545 310.036 40.1494 309.175 40.1377H307.953V38.8105Z" fill="black"/>
<path d="M285.448 103H277.063V101.831L281.493 96.9092C282.149 96.165 282.601 95.5615 282.847 95.0986C283.099 94.6299 283.225 94.1465 283.225 93.6484C283.225 92.9805 283.022 92.4326 282.618 92.0049C282.214 91.5771 281.675 91.3633 281.001 91.3633C280.192 91.3633 279.562 91.5947 279.111 92.0576C278.666 92.5146 278.443 93.1533 278.443 93.9736H276.817C276.817 92.7959 277.195 91.8438 277.951 91.1172C278.713 90.3906 279.729 90.0273 281.001 90.0273C282.19 90.0273 283.131 90.3408 283.822 90.9678C284.514 91.5889 284.859 92.418 284.859 93.4551C284.859 94.7148 284.057 96.2148 282.451 97.9551L279.023 101.673H285.448V103ZM287.663 104.099H286.266L291.609 90.2031H292.998L287.663 104.099ZM296.953 95.8105H298.175C298.942 95.7988 299.546 95.5967 299.985 95.2041C300.425 94.8115 300.645 94.2812 300.645 93.6133C300.645 92.1133 299.897 91.3633 298.403 91.3633C297.7 91.3633 297.138 91.5654 296.716 91.9697C296.3 92.3682 296.092 92.8984 296.092 93.5605H294.466C294.466 92.5469 294.835 91.7061 295.573 91.0381C296.317 90.3643 297.261 90.0273 298.403 90.0273C299.61 90.0273 300.557 90.3467 301.242 90.9854C301.928 91.624 302.271 92.5117 302.271 93.6484C302.271 94.2051 302.089 94.7441 301.726 95.2656C301.368 95.7871 300.879 96.1768 300.258 96.4346C300.961 96.6572 301.503 97.0264 301.884 97.542C302.271 98.0576 302.464 98.6875 302.464 99.4316C302.464 100.58 302.089 101.491 301.339 102.165C300.589 102.839 299.613 103.176 298.412 103.176C297.211 103.176 296.232 102.851 295.477 102.2C294.727 101.55 294.352 100.691 294.352 99.625H295.986C295.986 100.299 296.206 100.838 296.646 101.242C297.085 101.646 297.674 101.849 298.412 101.849C299.197 101.849 299.798 101.644 300.214 101.233C300.63 100.823 300.838 100.234 300.838 99.4668C300.838 98.7227 300.609 98.1514 300.152 97.7529C299.695 97.3545 299.036 97.1494 298.175 97.1377H296.953V95.8105Z" fill="black"/>
<path d="M209.448 103H201.063V101.831L205.493 96.9092C206.149 96.165 206.601 95.5615 206.847 95.0986C207.099 94.6299 207.225 94.1465 207.225 93.6484C207.225 92.9805 207.022 92.4326 206.618 92.0049C206.214 91.5771 205.675 91.3633 205.001 91.3633C204.192 91.3633 203.562 91.5947 203.111 92.0576C202.666 92.5146 202.443 93.1533 202.443 93.9736H200.817C200.817 92.7959 201.195 91.8438 201.951 91.1172C202.713 90.3906 203.729 90.0273 205.001 90.0273C206.19 90.0273 207.131 90.3408 207.822 90.9678C208.514 91.5889 208.859 92.418 208.859 93.4551C208.859 94.7148 208.057 96.2148 206.451 97.9551L203.023 101.673H209.448V103ZM211.663 104.099H210.266L215.609 90.2031H216.998L211.663 104.099ZM220.953 95.8105H222.175C222.942 95.7988 223.546 95.5967 223.985 95.2041C224.425 94.8115 224.645 94.2812 224.645 93.6133C224.645 92.1133 223.897 91.3633 222.403 91.3633C221.7 91.3633 221.138 91.5654 220.716 91.9697C220.3 92.3682 220.092 92.8984 220.092 93.5605H218.466C218.466 92.5469 218.835 91.7061 219.573 91.0381C220.317 90.3643 221.261 90.0273 222.403 90.0273C223.61 90.0273 224.557 90.3467 225.242 90.9854C225.928 91.624 226.271 92.5117 226.271 93.6484C226.271 94.2051 226.089 94.7441 225.726 95.2656C225.368 95.7871 224.879 96.1768 224.258 96.4346C224.961 96.6572 225.503 97.0264 225.884 97.542C226.271 98.0576 226.464 98.6875 226.464 99.4316C226.464 100.58 226.089 101.491 225.339 102.165C224.589 102.839 223.613 103.176 222.412 103.176C221.211 103.176 220.232 102.851 219.477 102.2C218.727 101.55 218.352 100.691 218.352 99.625H219.986C219.986 100.299 220.206 100.838 220.646 101.242C221.085 101.646 221.674 101.849 222.412 101.849C223.197 101.849 223.798 101.644 224.214 101.233C224.63 100.823 224.838 100.234 224.838 99.4668C224.838 98.7227 224.609 98.1514 224.152 97.7529C223.695 97.3545 223.036 97.1494 222.175 97.1377H220.953V95.8105Z" fill="black"/>
<path d="M161.448 103H153.063V101.831L157.493 96.9092C158.149 96.165 158.601 95.5615 158.847 95.0986C159.099 94.6299 159.225 94.1465 159.225 93.6484C159.225 92.9805 159.022 92.4326 158.618 92.0049C158.214 91.5771 157.675 91.3633 157.001 91.3633C156.192 91.3633 155.562 91.5947 155.111 92.0576C154.666 92.5146 154.443 93.1533 154.443 93.9736H152.817C152.817 92.7959 153.195 91.8438 153.951 91.1172C154.713 90.3906 155.729 90.0273 157.001 90.0273C158.19 90.0273 159.131 90.3408 159.822 90.9678C160.514 91.5889 160.859 92.418 160.859 93.4551C160.859 94.7148 160.057 96.2148 158.451 97.9551L155.023 101.673H161.448V103ZM163.663 104.099H162.266L167.609 90.2031H168.998L163.663 104.099ZM172.953 95.8105H174.175C174.942 95.7988 175.546 95.5967 175.985 95.2041C176.425 94.8115 176.645 94.2812 176.645 93.6133C176.645 92.1133 175.897 91.3633 174.403 91.3633C173.7 91.3633 173.138 91.5654 172.716 91.9697C172.3 92.3682 172.092 92.8984 172.092 93.5605H170.466C170.466 92.5469 170.835 91.7061 171.573 91.0381C172.317 90.3643 173.261 90.0273 174.403 90.0273C175.61 90.0273 176.557 90.3467 177.242 90.9854C177.928 91.624 178.271 92.5117 178.271 93.6484C178.271 94.2051 178.089 94.7441 177.726 95.2656C177.368 95.7871 176.879 96.1768 176.258 96.4346C176.961 96.6572 177.503 97.0264 177.884 97.542C178.271 98.0576 178.464 98.6875 178.464 99.4316C178.464 100.58 178.089 101.491 177.339 102.165C176.589 102.839 175.613 103.176 174.412 103.176C173.211 103.176 172.232 102.851 171.477 102.2C170.727 101.55 170.352 100.691 170.352 99.625H171.986C171.986 100.299 172.206 100.838 172.646 101.242C173.085 101.646 173.674 101.849 174.412 101.849C175.197 101.849 175.798 101.644 176.214 101.233C176.63 100.823 176.838 100.234 176.838 99.4668C176.838 98.7227 176.609 98.1514 176.152 97.7529C175.695 97.3545 175.036 97.1494 174.175 97.1377H172.953V95.8105Z" fill="black"/>
<path d="M185.448 165H177.063V163.831L181.493 158.909C182.149 158.165 182.601 157.562 182.847 157.099C183.099 156.63 183.225 156.146 183.225 155.648C183.225 154.98 183.022 154.433 182.618 154.005C182.214 153.577 181.675 153.363 181.001 153.363C180.192 153.363 179.562 153.595 179.111 154.058C178.666 154.515 178.443 155.153 178.443 155.974H176.817C176.817 154.796 177.195 153.844 177.951 153.117C178.713 152.391 179.729 152.027 181.001 152.027C182.19 152.027 183.131 152.341 183.822 152.968C184.514 153.589 184.859 154.418 184.859 155.455C184.859 156.715 184.057 158.215 182.451 159.955L179.023 163.673H185.448V165ZM187.663 166.099H186.266L191.609 152.203H192.998L187.663 166.099ZM196.953 157.811H198.175C198.942 157.799 199.546 157.597 199.985 157.204C200.425 156.812 200.645 156.281 200.645 155.613C200.645 154.113 199.897 153.363 198.403 153.363C197.7 153.363 197.138 153.565 196.716 153.97C196.3 154.368 196.092 154.898 196.092 155.561H194.466C194.466 154.547 194.835 153.706 195.573 153.038C196.317 152.364 197.261 152.027 198.403 152.027C199.61 152.027 200.557 152.347 201.242 152.985C201.928 153.624 202.271 154.512 202.271 155.648C202.271 156.205 202.089 156.744 201.726 157.266C201.368 157.787 200.879 158.177 200.258 158.435C200.961 158.657 201.503 159.026 201.884 159.542C202.271 160.058 202.464 160.688 202.464 161.432C202.464 162.58 202.089 163.491 201.339 164.165C200.589 164.839 199.613 165.176 198.412 165.176C197.211 165.176 196.232 164.851 195.477 164.2C194.727 163.55 194.352 162.691 194.352 161.625H195.986C195.986 162.299 196.206 162.838 196.646 163.242C197.085 163.646 197.674 163.849 198.412 163.849C199.197 163.849 199.798 163.644 200.214 163.233C200.63 162.823 200.838 162.234 200.838 161.467C200.838 160.723 200.609 160.151 200.152 159.753C199.695 159.354 199.036 159.149 198.175 159.138H196.953V157.811Z" fill="black"/>
<path d="M331.448 151H323.063V149.831L327.493 144.909C328.149 144.165 328.601 143.562 328.847 143.099C329.099 142.63 329.225 142.146 329.225 141.648C329.225 140.98 329.022 140.433 328.618 140.005C328.214 139.577 327.675 139.363 327.001 139.363C326.192 139.363 325.562 139.595 325.111 140.058C324.666 140.515 324.443 141.153 324.443 141.974H322.817C322.817 140.796 323.195 139.844 323.951 139.117C324.713 138.391 325.729 138.027 327.001 138.027C328.19 138.027 329.131 138.341 329.822 138.968C330.514 139.589 330.859 140.418 330.859 141.455C330.859 142.715 330.057 144.215 328.451 145.955L325.023 149.673H331.448V151ZM333.663 152.099H332.266L337.609 138.203H338.998L333.663 152.099ZM342.953 143.811H344.175C344.942 143.799 345.546 143.597 345.985 143.204C346.425 142.812 346.645 142.281 346.645 141.613C346.645 140.113 345.897 139.363 344.403 139.363C343.7 139.363 343.138 139.565 342.716 139.97C342.3 140.368 342.092 140.898 342.092 141.561H340.466C340.466 140.547 340.835 139.706 341.573 139.038C342.317 138.364 343.261 138.027 344.403 138.027C345.61 138.027 346.557 138.347 347.242 138.985C347.928 139.624 348.271 140.512 348.271 141.648C348.271 142.205 348.089 142.744 347.726 143.266C347.368 143.787 346.879 144.177 346.258 144.435C346.961 144.657 347.503 145.026 347.884 145.542C348.271 146.058 348.464 146.688 348.464 147.432C348.464 148.58 348.089 149.491 347.339 150.165C346.589 150.839 345.613 151.176 344.412 151.176C343.211 151.176 342.232 150.851 341.477 150.2C340.727 149.55 340.352 148.691 340.352 147.625H341.986C341.986 148.299 342.206 148.838 342.646 149.242C343.085 149.646 343.674 149.849 344.412 149.849C345.197 149.849 345.798 149.644 346.214 149.233C346.63 148.823 346.838 148.234 346.838 147.467C346.838 146.723 346.609 146.151 346.152 145.753C345.695 145.354 345.036 145.149 344.175 145.138H342.953V143.811Z" fill="black"/>
<path d="M76.4072 103H74.7725V92.1631L71.4941 93.3672V91.8906L76.1523 90.1416H76.4072V103ZM81.6631 104.099H80.2656L85.6094 90.2031H86.998L81.6631 104.099ZM90.9531 95.8105H92.1748C92.9424 95.7988 93.5459 95.5967 93.9854 95.2041C94.4248 94.8115 94.6445 94.2812 94.6445 93.6133C94.6445 92.1133 93.8975 91.3633 92.4033 91.3633C91.7002 91.3633 91.1377 91.5654 90.7158 91.9697C90.2998 92.3682 90.0918 92.8984 90.0918 93.5605H88.4658C88.4658 92.5469 88.835 91.7061 89.5732 91.0381C90.3174 90.3643 91.2607 90.0273 92.4033 90.0273C93.6104 90.0273 94.5566 90.3467 95.2422 90.9854C95.9277 91.624 96.2705 92.5117 96.2705 93.6484C96.2705 94.2051 96.0889 94.7441 95.7256 95.2656C95.3682 95.7871 94.8789 96.1768 94.2578 96.4346C94.9609 96.6572 95.5029 97.0264 95.8838 97.542C96.2705 98.0576 96.4639 98.6875 96.4639 99.4316C96.4639 100.58 96.0889 101.491 95.3389 102.165C94.5889 102.839 93.6133 103.176 92.4121 103.176C91.2109 103.176 90.2324 102.851 89.4766 102.2C88.7266 101.55 88.3516 100.691 88.3516 99.625H89.9863C89.9863 100.299 90.2061 100.838 90.6455 101.242C91.085 101.646 91.6738 101.849 92.4121 101.849C93.1973 101.849 93.7979 101.644 94.2139 101.233C94.6299 100.823 94.8379 100.234 94.8379 99.4668C94.8379 98.7227 94.6094 98.1514 94.1523 97.7529C93.6953 97.3545 93.0361 97.1494 92.1748 97.1377H90.9531V95.8105Z" fill="black"/>
<path d="M36.4072 151H34.7725V140.163L31.4941 141.367V139.891L36.1523 138.142H36.4072V151ZM41.6631 152.099H40.2656L45.6094 138.203H46.998L41.6631 152.099ZM50.9531 143.811H52.1748C52.9424 143.799 53.5459 143.597 53.9854 143.204C54.4248 142.812 54.6445 142.281 54.6445 141.613C54.6445 140.113 53.8975 139.363 52.4033 139.363C51.7002 139.363 51.1377 139.565 50.7158 139.97C50.2998 140.368 50.0918 140.898 50.0918 141.561H48.4658C48.4658 140.547 48.835 139.706 49.5732 139.038C50.3174 138.364 51.2607 138.027 52.4033 138.027C53.6104 138.027 54.5566 138.347 55.2422 138.985C55.9277 139.624 56.2705 140.512 56.2705 141.648C56.2705 142.205 56.0889 142.744 55.7256 143.266C55.3682 143.787 54.8789 144.177 54.2578 144.435C54.9609 144.657 55.5029 145.026 55.8838 145.542C56.2705 146.058 56.4639 146.688 56.4639 147.432C56.4639 148.58 56.0889 149.491 55.3389 150.165C54.5889 150.839 53.6133 151.176 52.4121 151.176C51.2109 151.176 50.2324 150.851 49.4766 150.2C48.7266 149.55 48.3516 148.691 48.3516 147.625H49.9863C49.9863 148.299 50.2061 148.838 50.6455 149.242C51.085 149.646 51.6738 149.849 52.4121 149.849C53.1973 149.849 53.7979 149.644 54.2139 149.233C54.6299 148.823 54.8379 148.234 54.8379 147.467C54.8379 146.723 54.6094 146.151 54.1523 145.753C53.6953 145.354 53.0361 145.149 52.1748 145.138H50.9531V143.811Z" fill="black"/>
</svg>
