<svg width="310" height="290" viewBox="0 0 310 290" fill="none" xmlns="http://www.w3.org/2000/svg">
<g clip-path="url(#clip0)">
<rect width="310" height="290" fill="white"/>
<mask id="mask0" mask-type="alpha" maskUnits="userSpaceOnUse" x="10" y="0" width="300" height="279">
<rect x="10" width="300" height="279" fill="#C4C4C4"/>
</mask>
<g mask="url(#mask0)">
<path d="M191.286 182.106L183.286 168.25" stroke="#EE7993"/>
<path d="M187.5 175.488L154.5 118.33" stroke="#3F6DB1" stroke-dasharray="5 2"/>
<path d="M229.286 161.106L221.286 147.25" stroke="#EE7993"/>
<path d="M225.56 154.261L208.24 154.261L216.9 169.261L225.56 154.261ZM9.80396 280.56L214.619 162.31L213.119 159.712L8.30396 277.962L9.80396 280.56Z" fill="#EE7993"/>
<path d="M95.6565 229.261L78.336 229.261L86.9962 244.261L95.6565 229.261ZM9.80396 280.56L84.7152 237.31L83.2152 234.712L8.30396 277.962L9.80396 280.56Z" fill="black"/>
<path d="M154.623 118.33L138.138 123.645L150.984 135.264L154.623 118.33ZM10.1664 280.267L146.68 129.348L144.455 127.336L7.94153 278.254L10.1664 280.267Z" fill="#3F6DB1"/>
<path d="M137.543 97.8415C137.018 97.8415 136.74 97.8106 136.709 97.7488C136.693 97.7178 136.686 97.656 136.686 97.5633C136.686 97.1924 136.771 96.9374 136.941 96.7984C136.972 96.7829 137.087 96.7752 137.288 96.7752C138.123 96.8215 139.104 96.8447 140.232 96.8447C142.411 96.8447 143.663 96.8215 143.988 96.7752H144.266C144.358 96.8679 144.405 96.9374 144.405 96.9838C144.405 97.0302 144.389 97.1692 144.358 97.401C144.281 97.6329 144.212 97.7797 144.15 97.8415H143.269C142.203 97.8569 141.577 97.9265 141.391 98.0501C141.283 98.1119 141.175 98.3283 141.067 98.6992C140.959 99.07 140.441 101.11 139.514 104.819C139.266 105.823 139.004 106.89 138.726 108.018C138.447 109.146 138.239 109.996 138.1 110.568L137.891 111.402C137.891 111.464 137.961 111.495 138.1 111.495C138.239 111.495 138.695 111.51 139.467 111.541H139.861C140.356 111.541 140.75 111.533 141.044 111.518C141.337 111.503 141.716 111.448 142.179 111.356C142.643 111.263 143.029 111.124 143.339 110.938C143.648 110.753 143.988 110.49 144.358 110.15C144.729 109.81 145.054 109.385 145.332 108.875C145.579 108.412 145.811 107.894 146.027 107.322C146.244 106.751 146.375 106.426 146.422 106.349C146.499 106.302 146.63 106.279 146.816 106.279H147.117C147.21 106.418 147.256 106.503 147.256 106.534C147.256 106.565 147.101 107.021 146.792 107.902C146.483 108.783 146.143 109.71 145.772 110.683C145.402 111.657 145.201 112.229 145.17 112.399C145.139 112.476 145.108 112.522 145.077 112.538C145.046 112.553 144.923 112.577 144.706 112.607C144.49 112.638 144.158 112.646 143.709 112.631C143.539 112.631 142.952 112.631 141.948 112.631C140.943 112.631 139.985 112.623 139.073 112.607H134.947C133.649 112.607 133 112.53 133 112.376C133 112.267 133.015 112.159 133.046 112.051C133.124 111.758 133.201 111.595 133.278 111.564C133.34 111.549 133.456 111.541 133.626 111.541H133.765C134.182 111.541 134.646 111.518 135.156 111.472C135.372 111.425 135.519 111.333 135.596 111.193C135.643 111.132 136.199 108.984 137.265 104.749C138.332 100.515 138.865 98.2819 138.865 98.0501C138.865 97.9419 138.424 97.8724 137.543 97.8415Z" fill="black"/>
<path d="M143.014 94.8975C142.442 94.8975 141.631 94.6657 140.58 94.2021C139.529 93.7385 138.687 93.499 138.053 93.4835C137.142 93.4835 136.168 93.8853 135.133 94.6889L134.901 94.8975L134.623 94.573C134.453 94.3721 134.368 94.2562 134.368 94.2253C134.368 94.2098 134.569 94.0399 134.97 93.7153C135.372 93.3908 135.589 93.2131 135.619 93.1822C136.624 92.394 137.605 92 138.563 92C139.135 92 139.939 92.2318 140.974 92.6954C142.01 93.159 142.852 93.3985 143.501 93.414C144.413 93.414 145.386 93.0122 146.422 92.2086L146.653 92L146.932 92.3245C147.102 92.5254 147.187 92.6413 147.187 92.6722C147.187 92.6877 146.986 92.8577 146.584 93.1822C146.182 93.5067 145.966 93.6844 145.935 93.7153C144.915 94.5035 143.941 94.8975 143.014 94.8975Z" fill="black"/>
<path d="M148.531 105.955C148.531 105.831 148.601 105.592 148.74 105.236C148.879 104.881 149.072 104.479 149.319 104.031C149.566 103.583 149.906 103.196 150.339 102.872C150.772 102.547 151.228 102.377 151.707 102.362C152.418 102.362 152.951 102.555 153.306 102.941C153.662 103.328 153.839 103.783 153.839 104.309C153.839 104.587 153.577 105.452 153.051 106.905C152.526 108.358 152.263 109.447 152.263 110.174C152.263 110.838 152.371 111.302 152.588 111.564C152.804 111.827 153.128 111.966 153.561 111.982C153.994 111.997 154.403 111.866 154.79 111.588C155.176 111.309 155.462 111.047 155.647 110.799L155.902 110.405C155.933 110.344 156.227 109.169 156.783 106.882C157.247 105.027 157.525 103.946 157.618 103.637C157.71 103.328 157.819 103.103 157.942 102.964C158.205 102.733 158.483 102.617 158.777 102.617C159.039 102.617 159.233 102.694 159.356 102.849C159.48 103.003 159.542 103.15 159.542 103.289L157.78 110.66C157.765 110.738 157.757 110.861 157.757 111.031C157.757 111.418 157.811 111.673 157.919 111.796C158.027 111.92 158.19 111.989 158.406 112.005C158.746 111.958 159.016 111.719 159.217 111.286C159.418 110.854 159.65 110.174 159.913 109.246C159.944 109.123 160.098 109.061 160.376 109.061C160.67 109.061 160.817 109.13 160.817 109.27C160.801 109.347 160.786 109.455 160.77 109.594C160.755 109.733 160.685 109.98 160.562 110.336C160.438 110.691 160.307 111.024 160.168 111.333C160.029 111.642 159.835 111.935 159.588 112.213C159.341 112.492 159.063 112.685 158.754 112.793C158.63 112.824 158.445 112.839 158.197 112.839C157.177 112.839 156.474 112.407 156.088 111.541C156.057 111.557 155.972 111.634 155.833 111.773C155.694 111.912 155.555 112.028 155.416 112.121C155.277 112.213 155.107 112.329 154.906 112.468C154.705 112.608 154.481 112.7 154.233 112.747C153.986 112.793 153.723 112.832 153.445 112.862C152.765 112.862 152.163 112.723 151.637 112.445C150.834 111.966 150.432 111.147 150.432 109.988C150.432 109.107 150.702 107.956 151.243 106.534C151.784 105.112 152.054 104.208 152.054 103.822C152.054 103.807 152.054 103.791 152.054 103.776C152.054 103.637 152.054 103.544 152.054 103.498C152.054 103.451 152.024 103.397 151.962 103.335C151.9 103.273 151.815 103.243 151.707 103.243H151.614C151.259 103.243 150.934 103.389 150.64 103.683C150.347 103.977 150.115 104.293 149.945 104.633C149.775 104.973 149.644 105.298 149.551 105.607C149.458 105.916 149.396 106.086 149.365 106.117C149.335 106.148 149.211 106.163 148.995 106.163H148.67C148.577 106.071 148.531 106.001 148.531 105.955Z" fill="black"/>
<path d="M163.286 105.495C163.286 105.386 163.307 105.26 163.351 105.118C163.395 104.976 163.46 104.905 163.548 104.905C163.559 104.905 163.952 104.878 164.728 104.823C165.504 104.768 165.902 104.735 165.924 104.725C166.055 104.725 166.121 104.768 166.121 104.856C166.121 104.932 165.848 106.074 165.301 108.281C164.755 110.444 164.482 111.564 164.482 111.641C164.69 111.531 164.848 111.427 164.957 111.329C165.219 111.132 165.596 110.788 166.088 110.297C166.58 109.805 166.962 109.472 167.235 109.297C167.672 109.002 168.087 108.854 168.481 108.854C168.809 108.854 169.065 108.958 169.251 109.166C169.437 109.373 169.535 109.668 169.546 110.051C169.546 110.324 169.508 110.553 169.431 110.739C169.355 110.925 169.251 111.061 169.12 111.149C168.989 111.236 168.874 111.296 168.776 111.329C168.677 111.362 168.579 111.378 168.481 111.378C168.262 111.378 168.087 111.318 167.956 111.198C167.825 111.078 167.76 110.919 167.76 110.723C167.76 110.45 167.847 110.226 168.022 110.051C168.197 109.876 168.372 109.761 168.546 109.707L168.809 109.658C168.677 109.526 168.546 109.461 168.415 109.461H168.35C168 109.494 167.656 109.63 167.317 109.871C166.979 110.111 166.58 110.461 166.121 110.919C165.662 111.378 165.301 111.712 165.039 111.919C165.061 111.93 165.143 111.946 165.285 111.968C165.427 111.99 165.558 112.023 165.678 112.067C165.799 112.11 165.941 112.154 166.104 112.198C166.268 112.241 166.416 112.318 166.547 112.427C166.678 112.536 166.798 112.635 166.908 112.722C167.017 112.81 167.11 112.952 167.186 113.148C167.263 113.345 167.295 113.525 167.284 113.689C167.284 113.875 167.257 114.099 167.203 114.361C167.148 114.623 167.115 114.842 167.104 115.017C167.104 115.454 167.252 115.672 167.547 115.672C168.071 115.672 168.497 115.022 168.825 113.722C168.847 113.634 168.956 113.591 169.153 113.591H169.218C169.393 113.591 169.481 113.64 169.481 113.738C169.481 113.793 169.464 113.869 169.431 113.968C168.983 115.508 168.339 116.279 167.498 116.279C167.006 116.279 166.607 116.136 166.301 115.852C165.995 115.568 165.842 115.159 165.842 114.623C165.842 114.427 165.859 114.257 165.891 114.115C165.924 113.973 165.941 113.842 165.941 113.722C165.941 113.482 165.864 113.274 165.711 113.099C165.558 112.924 165.367 112.799 165.138 112.722C164.908 112.646 164.722 112.586 164.58 112.542C164.438 112.498 164.34 112.482 164.285 112.493H164.253C164.121 112.952 164.007 113.394 163.908 113.82C163.81 114.246 163.734 114.563 163.679 114.771C163.624 114.978 163.575 115.18 163.531 115.377C163.488 115.574 163.45 115.705 163.417 115.77C163.384 115.836 163.346 115.907 163.302 115.984C163.258 116.06 163.198 116.109 163.122 116.131C162.98 116.229 162.827 116.279 162.663 116.279C162.477 116.279 162.335 116.224 162.237 116.115C162.138 116.005 162.089 115.913 162.089 115.836C162.089 115.727 162.291 114.853 162.696 113.214C163.1 111.575 163.499 109.963 163.892 108.379L164.498 106.003C164.509 105.861 164.471 105.773 164.384 105.741C164.296 105.708 164.083 105.681 163.745 105.659H163.663C163.553 105.659 163.482 105.659 163.45 105.659C163.417 105.659 163.379 105.642 163.335 105.61C163.291 105.577 163.275 105.539 163.286 105.495Z" fill="black"/>
<path d="M148.106 174.504C148.032 174.376 148.058 174.211 148.184 174.009L148.489 173.833C149.472 173.309 150.237 173.224 150.784 173.579C150.941 173.703 151.735 174.372 153.165 175.588C154.595 176.804 155.998 177.986 157.374 179.133C158.75 180.28 159.451 180.875 159.475 180.918C159.674 181.089 159.846 181.225 159.99 181.327C160.135 181.429 160.242 181.503 160.311 181.549C160.38 181.595 160.435 181.627 160.475 181.647C160.515 181.667 160.548 181.676 160.576 181.674C160.604 181.673 160.621 181.691 160.629 181.729C160.637 181.768 160.633 181.834 160.616 181.929L159.524 182.56C159.17 182.565 158.909 182.508 158.741 182.391C158.574 182.274 157.886 181.714 156.68 180.712L154.798 179.121L154.712 179.492C154.672 179.744 154.59 180.183 154.467 180.811C154.344 181.439 154.243 181.969 154.164 182.4C154.075 182.865 153.966 183.442 153.835 184.131C153.66 185.089 153.539 185.658 153.473 185.84C153.406 186.021 153.29 186.166 153.125 186.276C152.739 186.499 152.448 186.439 152.25 186.096C152.145 185.914 152.121 185.699 152.178 185.452C152.235 185.205 152.557 184.056 153.143 182.004C153.285 181.508 153.442 180.953 153.616 180.339C153.79 179.725 153.917 179.266 153.999 178.962L154.123 178.547C154.117 178.536 153.417 177.941 152.022 176.762C150.627 175.583 149.875 174.947 149.764 174.854C149.271 174.495 148.859 174.412 148.527 174.604C148.345 174.709 148.205 174.676 148.106 174.504Z" fill="black"/>
<path d="M159.577 175.723C159.534 175.647 159.499 175.551 159.472 175.435C159.445 175.319 159.462 175.244 159.523 175.209C159.531 175.205 159.792 175.028 160.308 174.68C160.823 174.332 161.087 174.15 161.097 174.134C161.188 174.081 161.251 174.085 161.286 174.146C161.317 174.199 161.584 175.099 162.089 176.847C162.575 178.564 162.834 179.449 162.865 179.502C162.965 179.344 163.033 179.208 163.07 179.097C163.173 178.855 163.296 178.466 163.44 177.929C163.584 177.391 163.716 177.008 163.835 176.777C164.02 176.398 164.248 176.13 164.521 175.972C164.748 175.841 164.967 175.81 165.179 175.88C165.391 175.949 165.577 176.115 165.738 176.375C165.847 176.564 165.912 176.739 165.934 176.898C165.955 177.057 165.938 177.193 165.882 177.306C165.826 177.419 165.77 177.507 165.715 177.569C165.66 177.631 165.599 177.682 165.531 177.721C165.379 177.808 165.234 177.837 165.095 177.806C164.956 177.775 164.847 177.692 164.769 177.555C164.659 177.366 164.63 177.176 164.682 176.985C164.733 176.794 164.808 176.644 164.907 176.537L165.069 176.398C164.926 176.359 164.809 176.366 164.718 176.419L164.673 176.445C164.444 176.608 164.26 176.84 164.121 177.142C163.983 177.444 163.846 177.846 163.712 178.347C163.577 178.849 163.461 179.224 163.362 179.473C163.382 179.471 163.445 179.45 163.552 179.408C163.659 179.367 163.763 179.337 163.864 179.319C163.965 179.301 164.081 179.275 164.212 179.239C164.343 179.204 164.476 179.198 164.61 179.221C164.745 179.245 164.867 179.265 164.978 179.282C165.089 179.298 165.21 179.36 165.342 179.465C165.473 179.571 165.568 179.683 165.626 179.801C165.7 179.929 165.771 180.096 165.838 180.299C165.905 180.503 165.97 180.667 166.032 180.793C166.207 181.095 166.397 181.188 166.601 181.07C166.964 180.86 167 180.239 166.707 179.207C166.687 179.138 166.745 179.064 166.881 178.985L166.927 178.959C167.048 178.889 167.128 178.888 167.167 178.956C167.189 178.994 167.208 179.054 167.225 179.135C167.531 180.382 167.392 181.173 166.81 181.51C166.469 181.706 166.136 181.767 165.81 181.693C165.485 181.619 165.215 181.396 165 181.025C164.922 180.889 164.865 180.765 164.831 180.653C164.797 180.542 164.756 180.444 164.708 180.361C164.612 180.195 164.476 180.081 164.3 180.021C164.124 179.961 163.941 179.951 163.752 179.99C163.562 180.028 163.409 180.061 163.293 180.088C163.178 180.114 163.103 180.142 163.069 180.172L163.047 180.185C163.139 180.555 163.237 180.908 163.339 181.242C163.442 181.577 163.515 181.827 163.561 181.993C163.606 182.158 163.653 182.318 163.701 182.472C163.749 182.625 163.775 182.732 163.779 182.79C163.782 182.849 163.784 182.913 163.785 182.984C163.785 183.054 163.763 183.112 163.719 183.158C163.66 183.283 163.573 183.378 163.46 183.444C163.331 183.518 163.211 183.537 163.099 183.501C162.987 183.464 162.916 183.42 162.885 183.367C162.842 183.291 162.632 182.604 162.256 181.307C161.881 180.01 161.513 178.734 161.151 177.479L160.621 175.59C160.572 175.487 160.51 175.442 160.436 175.454C160.363 175.466 160.204 175.532 159.961 175.653L159.904 175.686C159.828 175.729 159.779 175.758 159.756 175.771C159.734 175.784 159.701 175.788 159.657 175.783C159.614 175.777 159.587 175.757 159.577 175.723Z" fill="black"/>
<path d="M226.543 168.066C226.017 168.066 225.739 168.035 225.708 167.973C225.693 167.942 225.685 167.881 225.685 167.788C225.685 167.417 225.77 167.162 225.94 167.023C225.971 167.008 226.087 167 226.288 167C227.122 167.046 228.103 167.069 229.231 167.069C231.41 167.069 232.661 167.046 232.986 167H233.264C233.357 167.093 233.403 167.162 233.403 167.209C233.403 167.255 233.387 167.394 233.357 167.626C233.279 167.857 233.21 168.004 233.148 168.066H232.267C231.201 168.082 230.575 168.151 230.39 168.275C230.282 168.336 230.174 168.553 230.065 168.924C229.957 169.294 229.44 171.334 228.513 175.042C228.265 176.047 228.003 177.113 227.725 178.241C227.446 179.368 227.238 180.218 227.099 180.79L226.89 181.624C226.89 181.686 226.96 181.717 227.099 181.717C227.238 181.717 227.694 181.732 228.466 181.763H228.86C229.355 181.763 229.749 181.756 230.042 181.74C230.336 181.725 230.714 181.671 231.178 181.578C231.641 181.485 232.028 181.346 232.337 181.161C232.646 180.975 232.986 180.713 233.357 180.373C233.727 180.033 234.052 179.608 234.33 179.098C234.577 178.635 234.809 178.117 235.025 177.545C235.242 176.974 235.373 176.649 235.419 176.572C235.496 176.525 235.628 176.502 235.813 176.502H236.115C236.207 176.641 236.254 176.726 236.254 176.757C236.254 176.788 236.099 177.244 235.79 178.125C235.481 179.005 235.141 179.932 234.77 180.906C234.399 181.879 234.199 182.451 234.168 182.621C234.137 182.698 234.106 182.745 234.075 182.76C234.044 182.775 233.92 182.799 233.704 182.83C233.488 182.86 233.156 182.868 232.708 182.853C232.538 182.853 231.95 182.853 230.946 182.853C229.942 182.853 228.984 182.845 228.072 182.83H223.947C222.649 182.83 222 182.752 222 182.598C222 182.49 222.015 182.381 222.046 182.273C222.124 181.98 222.201 181.817 222.278 181.787C222.34 181.771 222.456 181.763 222.626 181.763H222.765C223.182 181.763 223.646 181.74 224.155 181.694C224.372 181.648 224.519 181.555 224.596 181.416C224.642 181.354 225.198 179.206 226.264 174.973C227.331 170.739 227.864 168.506 227.864 168.275C227.864 168.166 227.423 168.097 226.543 168.066Z" fill="black"/>
<path d="M237.528 176.178C237.528 176.054 237.598 175.815 237.737 175.459C237.876 175.104 238.069 174.702 238.316 174.254C238.564 173.806 238.903 173.42 239.336 173.095C239.769 172.771 240.225 172.601 240.704 172.586C241.414 172.586 241.947 172.779 242.303 173.165C242.658 173.551 242.836 174.007 242.836 174.532C242.836 174.811 242.573 175.676 242.048 177.128C241.522 178.581 241.26 179.67 241.26 180.396C241.26 181.06 241.368 181.524 241.584 181.787C241.801 182.049 242.125 182.188 242.558 182.204C242.99 182.219 243.4 182.088 243.786 181.81C244.172 181.532 244.458 181.269 244.644 181.022L244.898 180.628C244.929 180.566 245.223 179.392 245.779 177.105C246.243 175.251 246.521 174.169 246.614 173.86C246.706 173.551 246.814 173.327 246.938 173.188C247.201 172.956 247.479 172.841 247.772 172.841C248.035 172.841 248.228 172.918 248.352 173.072C248.475 173.227 248.537 173.374 248.537 173.513L246.776 180.883C246.76 180.96 246.753 181.084 246.753 181.254C246.753 181.64 246.807 181.895 246.915 182.018C247.023 182.142 247.185 182.212 247.402 182.227C247.741 182.181 248.012 181.941 248.213 181.509C248.414 181.076 248.645 180.396 248.908 179.469C248.939 179.345 249.093 179.284 249.372 179.284C249.665 179.284 249.812 179.353 249.812 179.492C249.796 179.569 249.781 179.678 249.766 179.817C249.75 179.956 249.681 180.203 249.557 180.558C249.433 180.914 249.302 181.246 249.163 181.555C249.024 181.864 248.831 182.158 248.584 182.436C248.336 182.714 248.058 182.907 247.749 183.015C247.626 183.046 247.44 183.061 247.193 183.061C246.173 183.061 245.47 182.629 245.084 181.764C245.053 181.779 244.968 181.856 244.829 181.995C244.69 182.134 244.551 182.25 244.412 182.343C244.273 182.436 244.103 182.552 243.902 182.691C243.701 182.83 243.477 182.922 243.23 182.969C242.983 183.015 242.72 183.054 242.442 183.085C241.762 183.085 241.159 182.946 240.634 182.667C239.831 182.188 239.429 181.37 239.429 180.211C239.429 179.33 239.699 178.179 240.24 176.757C240.781 175.336 241.051 174.432 241.051 174.046C241.051 174.03 241.051 174.015 241.051 173.999C241.051 173.86 241.051 173.768 241.051 173.721C241.051 173.675 241.02 173.621 240.958 173.559C240.897 173.497 240.812 173.466 240.704 173.466H240.611C240.255 173.466 239.931 173.613 239.637 173.907C239.344 174.2 239.112 174.517 238.942 174.857C238.772 175.197 238.641 175.521 238.548 175.83C238.455 176.139 238.394 176.309 238.363 176.34C238.332 176.371 238.208 176.387 237.992 176.387H237.667C237.575 176.294 237.528 176.224 237.528 176.178Z" fill="black"/>
<path d="M252.28 175.718C252.28 175.609 252.302 175.483 252.346 175.341C252.39 175.199 252.455 175.128 252.543 175.128C252.554 175.128 252.947 175.101 253.722 175.046C254.498 174.992 254.897 174.959 254.919 174.948C255.05 174.948 255.115 174.992 255.115 175.079C255.115 175.156 254.842 176.297 254.296 178.504C253.75 180.667 253.477 181.786 253.477 181.863C253.684 181.754 253.843 181.65 253.952 181.551C254.214 181.355 254.591 181.011 255.082 180.519C255.574 180.028 255.956 179.694 256.229 179.52C256.666 179.225 257.081 179.077 257.475 179.077C257.802 179.077 258.059 179.181 258.245 179.389C258.431 179.596 258.529 179.891 258.54 180.273C258.54 180.546 258.502 180.776 258.425 180.962C258.349 181.147 258.245 181.284 258.114 181.371C257.983 181.459 257.868 181.519 257.77 181.551C257.671 181.584 257.573 181.601 257.475 181.601C257.256 181.601 257.081 181.541 256.95 181.42C256.819 181.3 256.754 181.142 256.754 180.945C256.754 180.672 256.841 180.448 257.016 180.273C257.191 180.099 257.366 179.984 257.54 179.929L257.802 179.88C257.671 179.749 257.54 179.684 257.409 179.684H257.344C256.994 179.716 256.65 179.853 256.311 180.093C255.973 180.333 255.574 180.683 255.115 181.142C254.656 181.601 254.296 181.934 254.034 182.141C254.056 182.152 254.138 182.169 254.28 182.191C254.422 182.212 254.553 182.245 254.673 182.289C254.793 182.333 254.935 182.376 255.099 182.42C255.263 182.464 255.41 182.54 255.541 182.649C255.672 182.759 255.792 182.857 255.902 182.944C256.011 183.032 256.104 183.174 256.18 183.37C256.257 183.567 256.29 183.747 256.279 183.911C256.279 184.097 256.251 184.321 256.197 184.583C256.142 184.845 256.109 185.064 256.098 185.238C256.098 185.675 256.246 185.894 256.541 185.894C257.065 185.894 257.491 185.244 257.819 183.944C257.841 183.856 257.95 183.813 258.147 183.813H258.212C258.387 183.813 258.474 183.862 258.474 183.96C258.474 184.015 258.458 184.091 258.425 184.19C257.977 185.73 257.333 186.5 256.492 186.5C256 186.5 255.601 186.358 255.295 186.074C254.99 185.79 254.837 185.38 254.837 184.845C254.837 184.648 254.853 184.479 254.886 184.337C254.919 184.195 254.935 184.064 254.935 183.944C254.935 183.703 254.858 183.496 254.706 183.321C254.553 183.146 254.361 183.021 254.132 182.944C253.903 182.868 253.717 182.808 253.575 182.764C253.433 182.72 253.335 182.704 253.28 182.715H253.247C253.116 183.174 253.001 183.616 252.903 184.042C252.805 184.468 252.728 184.785 252.674 184.993C252.619 185.2 252.57 185.402 252.526 185.599C252.483 185.795 252.444 185.926 252.412 185.992C252.379 186.058 252.341 186.129 252.297 186.205C252.253 186.282 252.193 186.331 252.117 186.353C251.975 186.451 251.822 186.5 251.658 186.5C251.472 186.5 251.33 186.445 251.232 186.336C251.133 186.227 251.084 186.134 251.084 186.058C251.084 185.948 251.286 185.074 251.691 183.436C252.095 181.797 252.493 180.186 252.887 178.602L253.493 176.226C253.504 176.084 253.466 175.997 253.378 175.964C253.291 175.931 253.078 175.904 252.739 175.882H252.657C252.548 175.882 252.477 175.882 252.444 175.882C252.412 175.882 252.373 175.866 252.33 175.833C252.286 175.8 252.27 175.762 252.28 175.718Z" fill="black"/>
<path d="M96.5283 242.178C96.5283 242.054 96.5978 241.815 96.7369 241.459C96.876 241.104 97.0691 240.702 97.3163 240.254C97.5635 239.806 97.9035 239.42 98.3361 239.095C98.7687 238.771 99.2245 238.601 99.7035 238.586C100.414 238.586 100.947 238.779 101.303 239.165C101.658 239.551 101.836 240.007 101.836 240.532C101.836 240.811 101.573 241.676 101.048 243.128C100.522 244.581 100.26 245.67 100.26 246.396C100.26 247.06 100.368 247.524 100.584 247.787C100.801 248.049 101.125 248.188 101.558 248.204C101.99 248.219 102.4 248.088 102.786 247.81C103.172 247.532 103.458 247.269 103.644 247.022L103.898 246.628C103.929 246.566 104.223 245.392 104.779 243.105C105.243 241.251 105.521 240.169 105.614 239.86C105.706 239.551 105.814 239.327 105.938 239.188C106.201 238.956 106.479 238.841 106.772 238.841C107.035 238.841 107.228 238.918 107.352 239.072C107.475 239.227 107.537 239.374 107.537 239.513L105.776 246.883C105.76 246.96 105.753 247.084 105.753 247.254C105.753 247.64 105.807 247.895 105.915 248.018C106.023 248.142 106.185 248.212 106.402 248.227C106.741 248.181 107.012 247.941 107.213 247.509C107.414 247.076 107.645 246.396 107.908 245.469C107.939 245.345 108.093 245.284 108.372 245.284C108.665 245.284 108.812 245.353 108.812 245.492C108.796 245.569 108.781 245.678 108.766 245.817C108.75 245.956 108.681 246.203 108.557 246.558C108.433 246.914 108.302 247.246 108.163 247.555C108.024 247.864 107.831 248.158 107.584 248.436C107.336 248.714 107.058 248.907 106.749 249.015C106.626 249.046 106.44 249.061 106.193 249.061C105.173 249.061 104.47 248.629 104.084 247.764C104.053 247.779 103.968 247.856 103.829 247.995C103.69 248.134 103.551 248.25 103.412 248.343C103.273 248.436 103.103 248.552 102.902 248.691C102.701 248.83 102.477 248.922 102.23 248.969C101.983 249.015 101.72 249.054 101.442 249.085C100.762 249.085 100.159 248.946 99.634 248.667C98.8305 248.188 98.4288 247.37 98.4288 246.211C98.4288 245.33 98.6992 244.179 99.24 242.757C99.7808 241.336 100.051 240.432 100.051 240.046C100.051 240.03 100.051 240.015 100.051 239.999C100.051 239.86 100.051 239.768 100.051 239.721C100.051 239.675 100.02 239.621 99.9584 239.559C99.8966 239.497 99.8117 239.466 99.7035 239.466H99.6108C99.2554 239.466 98.931 239.613 98.6374 239.907C98.3438 240.2 98.1121 240.517 97.9421 240.857C97.7721 241.197 97.6408 241.521 97.5481 241.83C97.4554 242.139 97.3936 242.309 97.3627 242.34C97.3318 242.371 97.2082 242.387 96.9919 242.387H96.6674C96.5747 242.294 96.5283 242.224 96.5283 242.178Z" fill="black"/>
<path d="M111.28 241.718C111.28 241.609 111.302 241.483 111.346 241.341C111.39 241.199 111.455 241.128 111.543 241.128C111.554 241.128 111.947 241.101 112.722 241.046C113.498 240.992 113.897 240.959 113.919 240.948C114.05 240.948 114.115 240.992 114.115 241.079C114.115 241.156 113.842 242.297 113.296 244.504C112.75 246.667 112.477 247.786 112.477 247.863C112.684 247.754 112.843 247.65 112.952 247.551C113.214 247.355 113.591 247.011 114.082 246.519C114.574 246.028 114.956 245.694 115.229 245.52C115.666 245.225 116.081 245.077 116.475 245.077C116.802 245.077 117.059 245.181 117.245 245.389C117.431 245.596 117.529 245.891 117.54 246.273C117.54 246.546 117.502 246.776 117.425 246.962C117.349 247.147 117.245 247.284 117.114 247.371C116.983 247.459 116.868 247.519 116.77 247.551C116.671 247.584 116.573 247.601 116.475 247.601C116.256 247.601 116.081 247.541 115.95 247.42C115.819 247.3 115.754 247.142 115.754 246.945C115.754 246.672 115.841 246.448 116.016 246.273C116.191 246.099 116.365 245.984 116.54 245.929L116.802 245.88C116.671 245.749 116.54 245.684 116.409 245.684H116.344C115.994 245.716 115.65 245.853 115.311 246.093C114.973 246.333 114.574 246.683 114.115 247.142C113.656 247.601 113.296 247.934 113.034 248.141C113.056 248.152 113.137 248.169 113.279 248.191C113.422 248.212 113.553 248.245 113.673 248.289C113.793 248.333 113.935 248.376 114.099 248.42C114.263 248.464 114.41 248.54 114.541 248.649C114.672 248.759 114.792 248.857 114.902 248.944C115.011 249.032 115.104 249.174 115.18 249.37C115.257 249.567 115.289 249.747 115.279 249.911C115.279 250.097 115.251 250.321 115.197 250.583C115.142 250.845 115.109 251.064 115.098 251.238C115.098 251.675 115.246 251.894 115.541 251.894C116.065 251.894 116.491 251.244 116.819 249.944C116.841 249.856 116.95 249.813 117.147 249.813H117.212C117.387 249.813 117.474 249.862 117.474 249.96C117.474 250.015 117.458 250.091 117.425 250.19C116.977 251.73 116.333 252.5 115.492 252.5C115 252.5 114.601 252.358 114.295 252.074C113.99 251.79 113.837 251.38 113.837 250.845C113.837 250.648 113.853 250.479 113.886 250.337C113.919 250.195 113.935 250.064 113.935 249.944C113.935 249.703 113.858 249.496 113.706 249.321C113.553 249.146 113.361 249.021 113.132 248.944C112.903 248.868 112.717 248.808 112.575 248.764C112.433 248.72 112.335 248.704 112.28 248.715H112.247C112.116 249.174 112.001 249.616 111.903 250.042C111.805 250.468 111.728 250.785 111.674 250.993C111.619 251.2 111.57 251.402 111.526 251.599C111.483 251.795 111.444 251.926 111.412 251.992C111.379 252.058 111.341 252.129 111.297 252.205C111.253 252.282 111.193 252.331 111.117 252.353C110.975 252.451 110.822 252.5 110.658 252.5C110.472 252.5 110.33 252.445 110.232 252.336C110.133 252.227 110.084 252.134 110.084 252.058C110.084 251.948 110.286 251.074 110.691 249.436C111.095 247.797 111.493 246.186 111.887 244.602L112.493 242.226C112.504 242.084 112.466 241.997 112.378 241.964C112.291 241.931 112.078 241.904 111.739 241.882H111.657C111.548 241.882 111.477 241.882 111.444 241.882C111.412 241.882 111.373 241.866 111.33 241.833C111.286 241.8 111.269 241.762 111.28 241.718Z" fill="black"/>
<path d="M190.048 145.23C190.134 145.18 190.227 145.169 190.329 145.196C190.43 145.224 190.509 145.285 190.565 145.382C190.62 145.479 190.626 145.575 190.582 145.672C190.577 145.689 189.529 147.217 187.436 150.256L184.327 154.754L189.413 154.349C193.345 154.024 195.347 153.876 195.421 153.905C195.49 153.951 195.541 154.001 195.572 154.054C195.683 154.247 195.648 154.41 195.468 154.543L195.371 154.599L189.474 155.086C185.515 155.413 183.518 155.571 183.485 155.562C183.379 155.552 183.288 155.482 183.214 155.354C183.157 155.229 183.174 155.098 183.265 154.959C183.326 154.867 184.442 153.257 186.613 150.131C188.784 147.004 189.886 145.409 189.921 145.346C189.952 145.299 189.994 145.261 190.048 145.23ZM187.559 162.842C187.497 162.735 187.516 162.581 187.615 162.381L196.93 157.002C197.139 156.968 197.287 157.025 197.374 157.176C197.448 157.304 197.429 157.458 197.318 157.637L187.97 163.034C187.777 163.045 187.64 162.982 187.559 162.842Z" fill="black"/>
<path d="M198.521 139.544C198.447 139.415 198.473 139.25 198.6 139.048L198.905 138.872C199.889 138.347 200.655 138.262 201.204 138.617C201.361 138.741 202.156 139.412 203.589 140.63C205.021 141.848 206.427 143.031 207.805 144.181C209.184 145.33 209.886 145.926 209.91 145.969C210.109 146.14 210.281 146.277 210.426 146.379C210.571 146.481 210.678 146.555 210.747 146.601C210.817 146.647 210.871 146.68 210.912 146.699C210.952 146.719 210.985 146.728 211.013 146.727C211.041 146.725 211.058 146.743 211.066 146.782C211.074 146.82 211.07 146.887 211.053 146.982L209.959 147.614C209.604 147.618 209.343 147.562 209.175 147.445C209.007 147.327 208.319 146.766 207.11 145.762L205.224 144.169L205.139 144.54C205.098 144.793 205.016 145.233 204.893 145.862C204.77 146.491 204.669 147.021 204.589 147.453C204.501 147.919 204.391 148.497 204.261 149.188C204.085 150.147 203.964 150.718 203.897 150.899C203.83 151.081 203.714 151.227 203.549 151.336C203.163 151.559 202.871 151.499 202.672 151.156C202.567 150.974 202.543 150.759 202.6 150.511C202.658 150.263 202.98 149.112 203.567 147.057C203.709 146.56 203.867 146.004 204.041 145.389C204.215 144.773 204.343 144.314 204.424 144.009L204.549 143.594C204.543 143.583 203.841 142.987 202.444 141.806C201.047 140.624 200.293 139.987 200.182 139.894C199.689 139.535 199.276 139.452 198.943 139.644C198.761 139.749 198.62 139.716 198.521 139.544Z" fill="black"/>
<path d="M210.013 140.765C209.969 140.689 209.934 140.593 209.907 140.477C209.88 140.361 209.898 140.285 209.958 140.25C209.966 140.246 210.228 140.069 210.744 139.72C211.261 139.371 211.525 139.189 211.535 139.173C211.626 139.12 211.689 139.124 211.724 139.185C211.755 139.238 212.023 140.14 212.528 141.891C213.016 143.611 213.275 144.498 213.306 144.551C213.406 144.392 213.475 144.256 213.511 144.144C213.614 143.903 213.738 143.513 213.882 142.974C214.026 142.436 214.158 142.052 214.278 141.821C214.463 141.441 214.692 141.172 214.965 141.015C215.192 140.883 215.412 140.852 215.624 140.922C215.836 140.992 216.023 141.157 216.184 141.418C216.293 141.608 216.359 141.782 216.38 141.942C216.401 142.101 216.384 142.238 216.328 142.351C216.272 142.464 216.217 142.552 216.161 142.614C216.106 142.676 216.045 142.727 215.976 142.766C215.825 142.854 215.679 142.882 215.54 142.851C215.401 142.821 215.292 142.737 215.213 142.6C215.104 142.411 215.075 142.22 215.126 142.029C215.177 141.837 215.253 141.688 215.352 141.58L215.514 141.441C215.371 141.402 215.253 141.409 215.162 141.462L215.117 141.488C214.887 141.651 214.703 141.884 214.564 142.186C214.426 142.489 214.289 142.891 214.154 143.394C214.02 143.896 213.903 144.272 213.804 144.521C213.824 144.52 213.887 144.498 213.995 144.457C214.102 144.415 214.206 144.385 214.307 144.367C214.408 144.349 214.524 144.323 214.655 144.287C214.787 144.252 214.92 144.246 215.054 144.269C215.189 144.293 215.312 144.313 215.423 144.33C215.534 144.347 215.655 144.408 215.787 144.514C215.919 144.62 216.014 144.732 216.072 144.85C216.146 144.979 216.217 145.145 216.284 145.349C216.352 145.553 216.416 145.718 216.479 145.843C216.654 146.147 216.844 146.239 217.049 146.121C217.413 145.911 217.448 145.289 217.154 144.255C217.135 144.186 217.193 144.112 217.329 144.033L217.375 144.007C217.496 143.936 217.577 143.936 217.616 144.004C217.638 144.042 217.657 144.101 217.674 144.183C217.98 145.432 217.841 146.225 217.258 146.562C216.916 146.759 216.583 146.82 216.256 146.745C215.93 146.671 215.66 146.448 215.445 146.076C215.366 145.94 215.31 145.815 215.276 145.704C215.242 145.592 215.2 145.494 215.152 145.411C215.056 145.244 214.92 145.131 214.744 145.071C214.567 145.011 214.384 145 214.194 145.039C214.004 145.078 213.851 145.111 213.735 145.137C213.619 145.164 213.544 145.192 213.511 145.221L213.488 145.234C213.581 145.605 213.679 145.958 213.781 146.294C213.884 146.629 213.958 146.879 214.003 147.045C214.048 147.211 214.095 147.371 214.143 147.525C214.192 147.679 214.218 147.786 214.221 147.844C214.225 147.903 214.227 147.968 214.227 148.038C214.228 148.109 214.206 148.167 214.161 148.213C214.102 148.338 214.016 148.433 213.902 148.499C213.773 148.574 213.652 148.593 213.54 148.556C213.428 148.52 213.357 148.475 213.326 148.422C213.283 148.346 213.073 147.658 212.696 146.359C212.32 145.059 211.951 143.781 211.589 142.524L211.058 140.631C211.009 140.528 210.947 140.483 210.873 140.495C210.799 140.507 210.641 140.574 210.397 140.694L210.34 140.727C210.264 140.771 210.215 140.799 210.192 140.813C210.169 140.826 210.136 140.83 210.093 140.824C210.049 140.819 210.023 140.799 210.013 140.765Z" fill="black"/>
<path d="M222.289 140.731C221.581 141.14 220.868 141.316 220.149 141.259C219.429 141.202 218.869 140.839 218.469 140.17C218.054 139.451 218.042 138.564 218.434 137.508L218.529 137.303L218.317 137.232C217.916 137.106 217.619 136.877 217.427 136.545C217.055 135.901 217.098 135.133 217.555 134.24C218.012 133.347 218.659 132.659 219.495 132.176L219.688 132.064C220.31 131.705 220.959 131.552 221.634 131.606C221.979 131.635 222.192 131.72 222.273 131.859C222.341 131.977 222.353 132.134 222.31 132.331C222.266 132.528 222.167 132.678 222.012 132.782C221.916 132.838 221.78 132.851 221.607 132.823C221.433 132.795 221.2 132.8 220.909 132.84C220.617 132.88 220.294 133.002 219.94 133.206C219.232 133.615 218.684 134.103 218.297 134.67C217.909 135.237 217.821 135.717 218.033 136.109C218.151 136.313 218.354 136.453 218.641 136.53C218.794 136.571 218.889 136.587 218.927 136.58C218.966 136.572 219.024 136.524 219.102 136.436C219.348 136.094 219.739 135.768 220.275 135.458L220.355 135.412C221.053 135.009 221.497 134.974 221.689 135.307C221.943 135.747 221.614 136.23 220.702 136.756C220.209 137.041 219.734 137.222 219.278 137.299L219.183 137.505C218.762 138.362 218.729 139.097 219.082 139.708C219.534 140.491 220.473 140.471 221.9 139.647C222.458 139.325 222.882 139.009 223.174 138.697C223.467 138.385 223.621 138.132 223.637 137.937C223.653 137.741 223.676 137.571 223.706 137.425C223.736 137.279 223.793 137.167 223.877 137.09C224.04 137.025 224.167 137.072 224.26 137.233C224.316 137.33 224.338 137.503 224.325 137.754C224.312 138.004 224.257 138.293 224.16 138.621C224.064 138.949 223.852 139.314 223.527 139.716C223.202 140.119 222.789 140.457 222.289 140.731Z" fill="black"/>
</g>
<path d="M309.354 279.854C309.549 279.658 309.549 279.342 309.354 279.146L306.172 275.964C305.976 275.769 305.66 275.769 305.464 275.964C305.269 276.16 305.269 276.476 305.464 276.672L308.293 279.5L305.464 282.328C305.269 282.524 305.269 282.84 305.464 283.036C305.66 283.231 305.976 283.231 306.172 283.036L309.354 279.854ZM-291 280H309V279H-291V280Z" fill="#444444"/>
<path d="M9.85355 0.646447C9.65829 0.451184 9.34171 0.451184 9.14645 0.646447L5.96447 3.82843C5.7692 4.02369 5.7692 4.34027 5.96447 4.53553C6.15973 4.7308 6.47631 4.7308 6.67157 4.53553L9.5 1.70711L12.3284 4.53553C12.5237 4.7308 12.8403 4.7308 13.0355 4.53553C13.2308 4.34027 13.2308 4.02369 13.0355 3.82843L9.85355 0.646447ZM10 601L10 1H9L9 601H10Z" fill="#444444"/>
</g>
<defs>
<clipPath id="clip0">
<rect width="310" height="290" fill="white"/>
</clipPath>
</defs>
</svg>
