<svg width="310" height="290" viewBox="0 0 310 290" fill="none" xmlns="http://www.w3.org/2000/svg">
<g clip-path="url(#clip0)">
<rect width="310" height="290" fill="white"/>
<mask id="mask0" mask-type="alpha" maskUnits="userSpaceOnUse" x="10" y="0" width="300" height="279">
<rect x="10" width="300" height="279" fill="#C4C4C4"/>
</mask>
<g mask="url(#mask0)">
<path d="M9.05395 279.261L280.986 122.261" stroke="#EE7993" stroke-dasharray="5 2"/>
<path d="M280.286 122.106L229.786 34.6373" stroke="#3F6DB1" stroke-dasharray="5 2"/>
<path d="M229.286 161.106L221.286 147.25" stroke="#EE7993"/>
<path d="M225.56 154.261L208.24 154.261L216.9 169.261L225.56 154.261ZM9.80395 280.56L214.619 162.31L213.119 159.712L8.30395 277.962L9.80395 280.56Z" fill="#EE7993"/>
<path d="M95.6565 229.261L78.336 229.261L86.9962 244.261L95.6565 229.261ZM9.80395 280.56L84.7151 237.31L83.2151 234.712L8.30395 277.962L9.80395 280.56Z" fill="black"/>
<path d="M230 35L213.515 40.3146L226.36 51.9337L230 35ZM10.1664 280.267L222.056 46.018L219.831 44.0055L7.94153 278.254L10.1664 280.267Z" fill="#3F6DB1"/>
<path d="M212.543 13.8415C212.018 13.8415 211.74 13.8106 211.709 13.7488C211.693 13.7178 211.686 13.656 211.686 13.5633C211.686 13.1924 211.771 12.9374 211.941 12.7984C211.972 12.7829 212.087 12.7752 212.288 12.7752C213.123 12.8215 214.104 12.8447 215.232 12.8447C217.411 12.8447 218.663 12.8215 218.988 12.7752H219.266C219.358 12.8679 219.405 12.9374 219.405 12.9838C219.405 13.0302 219.389 13.1692 219.358 13.401C219.281 13.6329 219.212 13.7797 219.15 13.8415H218.269C217.203 13.8569 216.577 13.9265 216.391 14.0501C216.283 14.1119 216.175 14.3283 216.067 14.6992C215.959 15.07 215.441 17.1099 214.514 20.8188C214.266 21.8233 214.004 22.8896 213.726 24.0177C213.447 25.1458 213.239 25.9958 213.1 26.5676L212.891 27.4021C212.891 27.4639 212.961 27.4948 213.1 27.4948C213.239 27.4948 213.695 27.5102 214.467 27.5412H214.861C215.356 27.5412 215.75 27.5334 216.044 27.518C216.337 27.5025 216.716 27.4484 217.179 27.3557C217.643 27.263 218.029 27.1239 218.339 26.9385C218.648 26.753 218.988 26.4903 219.358 26.1503C219.729 25.8103 220.054 25.3854 220.332 24.8754C220.579 24.4118 220.811 23.8941 221.027 23.3223C221.244 22.7505 221.375 22.426 221.422 22.3487C221.499 22.3024 221.63 22.2792 221.816 22.2792H222.117C222.21 22.4183 222.256 22.5033 222.256 22.5342C222.256 22.5651 222.101 23.021 221.792 23.9018C221.483 24.7827 221.143 25.7099 220.772 26.6835C220.402 27.6571 220.201 28.2288 220.17 28.3988C220.139 28.4761 220.108 28.5225 220.077 28.5379C220.046 28.5534 219.923 28.5766 219.706 28.6075C219.49 28.6384 219.158 28.6461 218.709 28.6306C218.539 28.6306 217.952 28.6306 216.948 28.6306C215.943 28.6306 214.985 28.6229 214.073 28.6075H209.947C208.649 28.6075 208 28.5302 208 28.3757C208 28.2675 208.015 28.1593 208.046 28.0511C208.124 27.7575 208.201 27.5952 208.278 27.5643C208.34 27.5489 208.456 27.5412 208.626 27.5412H208.765C209.182 27.5412 209.646 27.518 210.156 27.4716C210.372 27.4253 210.519 27.3325 210.596 27.1934C210.643 27.1316 211.199 24.9836 212.265 20.7493C213.332 16.515 213.865 14.2819 213.865 14.0501C213.865 13.9419 213.424 13.8724 212.543 13.8415Z" fill="black"/>
<path d="M218.014 10.8975C217.442 10.8975 216.631 10.6657 215.58 10.2021C214.529 9.7385 213.687 9.49897 213.053 9.48351C212.142 9.48351 211.168 9.88531 210.133 10.6889L209.901 10.8975L209.623 10.573C209.453 10.3721 209.368 10.2562 209.368 10.2253C209.368 10.2098 209.569 10.0398 209.97 9.71532C210.372 9.39079 210.589 9.21307 210.619 9.18217C211.624 8.39403 212.605 7.99996 213.563 7.99996C214.135 7.99996 214.939 8.23176 215.974 8.69537C217.01 9.15898 217.852 9.39852 218.501 9.41397C219.413 9.41397 220.386 9.01217 221.422 8.20858L221.653 7.99996L221.932 8.32449C222.102 8.52538 222.187 8.64129 222.187 8.67219C222.187 8.68765 221.986 8.85764 221.584 9.18217C221.182 9.50669 220.966 9.68441 220.935 9.71532C219.915 10.5035 218.941 10.8975 218.014 10.8975Z" fill="black"/>
<path d="M223.531 21.9547C223.531 21.8311 223.601 21.5915 223.74 21.2361C223.879 20.8807 224.072 20.4789 224.319 20.0307C224.566 19.5826 224.906 19.1962 225.339 18.8717C225.772 18.5472 226.228 18.3772 226.707 18.3617C227.418 18.3617 227.951 18.5549 228.306 18.9412C228.662 19.3276 228.839 19.7835 228.839 20.3089C228.839 20.587 228.577 21.4525 228.051 22.9051C227.526 24.3577 227.263 25.4472 227.263 26.1735C227.263 26.8381 227.371 27.3017 227.588 27.5644C227.804 27.8271 228.128 27.9662 228.561 27.9816C228.994 27.9971 229.403 27.8657 229.79 27.5876C230.176 27.3094 230.462 27.0467 230.647 26.7994L230.902 26.4054C230.933 26.3435 231.227 25.1691 231.783 22.8819C232.247 21.0275 232.525 19.9457 232.618 19.6366C232.71 19.3276 232.819 19.1035 232.942 18.9644C233.205 18.7326 233.483 18.6167 233.777 18.6167C234.039 18.6167 234.233 18.694 234.356 18.8485C234.48 19.003 234.542 19.1499 234.542 19.2889L232.78 26.6603C232.765 26.7376 232.757 26.8612 232.757 27.0312C232.757 27.4176 232.811 27.6726 232.919 27.7962C233.027 27.9198 233.19 27.9894 233.406 28.0048C233.746 27.9584 234.016 27.7189 234.217 27.2862C234.418 26.8535 234.65 26.1735 234.913 25.2463C234.944 25.1227 235.098 25.0609 235.376 25.0609C235.67 25.0609 235.817 25.1304 235.817 25.2695C235.801 25.3468 235.786 25.455 235.77 25.594C235.755 25.7331 235.685 25.9804 235.562 26.3358C235.438 26.6912 235.307 27.0235 235.168 27.3326C235.029 27.6416 234.835 27.9353 234.588 28.2134C234.341 28.4916 234.063 28.6848 233.754 28.7929C233.63 28.8239 233.445 28.8393 233.197 28.8393C232.177 28.8393 231.474 28.4066 231.088 27.5412C231.057 27.5567 230.972 27.6339 230.833 27.773C230.694 27.9121 230.555 28.028 230.416 28.1207C230.277 28.2134 230.107 28.3293 229.906 28.4684C229.705 28.6075 229.481 28.7002 229.233 28.7466C228.986 28.7929 228.723 28.8316 228.445 28.8625C227.765 28.8625 227.163 28.7234 226.637 28.4452C225.834 27.9662 225.432 27.1471 225.432 25.9881C225.432 25.1072 225.702 23.9559 226.243 22.5342C226.784 21.1125 227.054 20.2084 227.054 19.8221C227.054 19.8066 227.054 19.7912 227.054 19.7757C227.054 19.6366 227.054 19.5439 227.054 19.4976C227.054 19.4512 227.024 19.3971 226.962 19.3353C226.9 19.2735 226.815 19.2426 226.707 19.2426H226.614C226.259 19.2426 225.934 19.3894 225.64 19.683C225.347 19.9766 225.115 20.2934 224.945 20.6334C224.775 20.9734 224.644 21.2979 224.551 21.607C224.458 21.9161 224.396 22.0861 224.365 22.117C224.335 22.1479 224.211 22.1633 223.995 22.1633H223.67C223.577 22.0706 223.531 22.0011 223.531 21.9547Z" fill="black"/>
<path d="M238.286 21.4948C238.286 21.3856 238.307 21.2599 238.351 21.1179C238.395 20.9758 238.46 20.9048 238.548 20.9048C238.559 20.9048 238.952 20.8775 239.728 20.8229C240.504 20.7682 240.902 20.7355 240.924 20.7245C241.055 20.7245 241.121 20.7682 241.121 20.8557C241.121 20.9321 240.848 22.0739 240.301 24.2809C239.755 26.4442 239.482 27.5641 239.482 27.6405C239.69 27.5313 239.848 27.4275 239.957 27.3292C240.22 27.1325 240.596 26.7883 241.088 26.2967C241.58 25.805 241.962 25.4718 242.235 25.297C242.672 25.002 243.088 24.8545 243.481 24.8545C243.809 24.8545 244.065 24.9583 244.251 25.1659C244.437 25.3734 244.535 25.6684 244.546 26.0508C244.546 26.324 244.508 26.5534 244.431 26.7392C244.355 26.9249 244.251 27.0615 244.12 27.1489C243.989 27.2363 243.874 27.2964 243.776 27.3292C243.677 27.3619 243.579 27.3783 243.481 27.3783C243.262 27.3783 243.088 27.3182 242.956 27.198C242.825 27.0779 242.76 26.9194 242.76 26.7228C242.76 26.4496 242.847 26.2257 243.022 26.0508C243.197 25.876 243.372 25.7613 243.546 25.7067L243.809 25.6575C243.677 25.5264 243.546 25.4609 243.415 25.4609H243.35C243 25.4936 242.656 25.6302 242.317 25.8706C241.979 26.1109 241.58 26.4606 241.121 26.9194C240.662 27.3783 240.301 27.7116 240.039 27.9191C240.061 27.9301 240.143 27.9465 240.285 27.9683C240.427 27.9902 240.558 28.0229 240.678 28.0666C240.799 28.1103 240.941 28.1541 241.104 28.1978C241.268 28.2415 241.416 28.3179 241.547 28.4272C241.678 28.5365 241.798 28.6348 241.908 28.7222C242.017 28.8096 242.11 28.9516 242.186 29.1483C242.263 29.345 242.295 29.5252 242.284 29.6891C242.284 29.8749 242.257 30.0988 242.203 30.3611C242.148 30.6233 242.115 30.8418 242.104 31.0166C242.104 31.4536 242.252 31.6721 242.547 31.6721C243.071 31.6721 243.497 31.0221 243.825 29.7219C243.847 29.6345 243.956 29.5908 244.153 29.5908H244.218C244.393 29.5908 244.481 29.64 244.481 29.7383C244.481 29.7929 244.464 29.8694 244.431 29.9677C243.983 31.5083 243.339 32.2785 242.498 32.2785C242.006 32.2785 241.607 32.1365 241.301 31.8524C240.995 31.5683 240.842 31.1586 240.842 30.6233C240.842 30.4266 240.859 30.2573 240.891 30.1152C240.924 29.9732 240.941 29.8421 240.941 29.7219C240.941 29.4815 240.864 29.2739 240.711 29.0991C240.558 28.9243 240.367 28.7987 240.138 28.7222C239.908 28.6457 239.722 28.5856 239.58 28.5419C239.438 28.4982 239.34 28.4818 239.285 28.4927H239.253C239.121 28.9516 239.007 29.3941 238.908 29.8202C238.81 30.2463 238.734 30.5632 238.679 30.7708C238.624 30.9784 238.575 31.1805 238.531 31.3771C238.488 31.5738 238.45 31.7049 238.417 31.7705C238.384 31.836 238.346 31.907 238.302 31.9835C238.258 32.06 238.198 32.1092 238.122 32.131C237.98 32.2294 237.827 32.2785 237.663 32.2785C237.477 32.2785 237.335 32.2239 237.237 32.1146C237.138 32.0054 237.089 31.9125 237.089 31.836C237.089 31.7268 237.291 30.8527 237.696 29.2138C238.1 27.575 238.499 25.9634 238.892 24.3792L239.498 22.0029C239.509 21.8608 239.471 21.7734 239.384 21.7406C239.296 21.7079 239.083 21.6805 238.745 21.6587H238.663C238.553 21.6587 238.482 21.6587 238.45 21.6587C238.417 21.6587 238.379 21.6423 238.335 21.6095C238.291 21.5768 238.275 21.5385 238.286 21.4948Z" fill="black"/>
<path d="M148.106 174.504C148.032 174.376 148.058 174.211 148.184 174.009L148.49 173.833C149.472 173.309 150.237 173.224 150.784 173.579C150.941 173.703 151.735 174.372 153.165 175.588C154.595 176.804 155.998 177.986 157.374 179.133C158.75 180.28 159.451 180.875 159.475 180.918C159.674 181.089 159.846 181.225 159.99 181.327C160.135 181.429 160.242 181.503 160.311 181.549C160.38 181.595 160.435 181.627 160.475 181.647C160.515 181.667 160.548 181.676 160.576 181.674C160.604 181.673 160.621 181.691 160.629 181.729C160.637 181.768 160.633 181.834 160.616 181.929L159.524 182.56C159.17 182.565 158.909 182.508 158.741 182.391C158.574 182.274 157.886 181.714 156.68 180.712L154.798 179.121L154.712 179.492C154.672 179.744 154.59 180.183 154.467 180.811C154.344 181.439 154.243 181.969 154.164 182.4C154.075 182.865 153.966 183.442 153.835 184.131C153.66 185.089 153.539 185.658 153.473 185.84C153.406 186.021 153.29 186.166 153.125 186.276C152.739 186.499 152.448 186.439 152.25 186.096C152.145 185.914 152.121 185.699 152.178 185.452C152.235 185.205 152.557 184.056 153.143 182.004C153.285 181.508 153.442 180.953 153.616 180.339C153.79 179.725 153.917 179.266 153.999 178.962L154.123 178.547C154.117 178.536 153.417 177.941 152.022 176.762C150.627 175.583 149.875 174.947 149.764 174.854C149.272 174.495 148.859 174.412 148.527 174.604C148.345 174.709 148.205 174.676 148.106 174.504Z" fill="black"/>
<path d="M159.577 175.723C159.534 175.647 159.499 175.551 159.472 175.435C159.445 175.319 159.462 175.244 159.523 175.209C159.531 175.205 159.792 175.028 160.308 174.68C160.823 174.332 161.087 174.15 161.097 174.134C161.188 174.081 161.251 174.085 161.286 174.146C161.317 174.199 161.584 175.099 162.089 176.847C162.575 178.564 162.834 179.449 162.865 179.502C162.965 179.344 163.033 179.208 163.07 179.097C163.173 178.855 163.296 178.466 163.44 177.929C163.584 177.391 163.716 177.008 163.835 176.777C164.02 176.398 164.248 176.13 164.521 175.972C164.748 175.841 164.968 175.81 165.179 175.88C165.391 175.949 165.577 176.115 165.738 176.375C165.847 176.564 165.912 176.739 165.934 176.898C165.955 177.057 165.938 177.193 165.882 177.306C165.826 177.419 165.77 177.507 165.715 177.569C165.66 177.631 165.599 177.682 165.531 177.721C165.379 177.808 165.234 177.837 165.095 177.806C164.956 177.775 164.847 177.692 164.769 177.555C164.659 177.366 164.63 177.176 164.682 176.985C164.733 176.794 164.808 176.644 164.907 176.537L165.069 176.398C164.926 176.359 164.809 176.366 164.718 176.419L164.673 176.445C164.444 176.608 164.26 176.84 164.121 177.142C163.983 177.444 163.846 177.846 163.712 178.347C163.578 178.849 163.461 179.224 163.362 179.473C163.382 179.471 163.445 179.45 163.552 179.408C163.66 179.367 163.763 179.337 163.864 179.319C163.965 179.301 164.081 179.275 164.212 179.239C164.343 179.204 164.476 179.198 164.61 179.221C164.745 179.245 164.867 179.265 164.978 179.282C165.089 179.298 165.21 179.36 165.342 179.465C165.473 179.571 165.568 179.683 165.626 179.801C165.7 179.929 165.771 180.096 165.838 180.299C165.905 180.503 165.97 180.667 166.032 180.793C166.207 181.095 166.397 181.188 166.601 181.07C166.964 180.86 167 180.239 166.707 179.207C166.687 179.138 166.745 179.064 166.881 178.985L166.927 178.959C167.048 178.889 167.128 178.888 167.167 178.956C167.189 178.994 167.208 179.054 167.225 179.135C167.531 180.382 167.392 181.173 166.81 181.51C166.469 181.706 166.136 181.767 165.81 181.693C165.485 181.619 165.215 181.396 165.001 181.025C164.922 180.889 164.865 180.765 164.831 180.653C164.797 180.542 164.756 180.444 164.708 180.361C164.612 180.195 164.476 180.081 164.3 180.021C164.124 179.961 163.941 179.951 163.752 179.99C163.562 180.028 163.409 180.061 163.294 180.088C163.178 180.114 163.103 180.142 163.069 180.172L163.047 180.185C163.139 180.555 163.237 180.908 163.339 181.242C163.442 181.577 163.515 181.827 163.561 181.993C163.606 182.158 163.653 182.318 163.701 182.472C163.749 182.625 163.775 182.732 163.779 182.79C163.782 182.849 163.784 182.913 163.785 182.984C163.785 183.054 163.763 183.112 163.719 183.158C163.66 183.283 163.573 183.378 163.46 183.444C163.331 183.518 163.211 183.537 163.099 183.501C162.987 183.464 162.916 183.42 162.885 183.367C162.842 183.291 162.632 182.604 162.256 181.307C161.881 180.01 161.513 178.734 161.151 177.479L160.621 175.59C160.572 175.487 160.51 175.442 160.437 175.454C160.363 175.466 160.204 175.532 159.961 175.653L159.904 175.686C159.828 175.729 159.779 175.758 159.756 175.771C159.734 175.784 159.701 175.788 159.657 175.783C159.614 175.777 159.587 175.757 159.577 175.723Z" fill="black"/>
<path d="M226.543 168.066C226.017 168.066 225.739 168.035 225.708 167.973C225.693 167.942 225.685 167.881 225.685 167.788C225.685 167.417 225.77 167.162 225.94 167.023C225.971 167.008 226.087 167 226.288 167C227.122 167.046 228.103 167.069 229.231 167.069C231.41 167.069 232.661 167.046 232.986 167H233.264C233.357 167.093 233.403 167.162 233.403 167.209C233.403 167.255 233.387 167.394 233.357 167.626C233.279 167.857 233.21 168.004 233.148 168.066H232.267C231.201 168.082 230.575 168.151 230.39 168.275C230.282 168.336 230.174 168.553 230.065 168.924C229.957 169.294 229.44 171.334 228.513 175.042C228.265 176.047 228.003 177.113 227.725 178.241C227.446 179.368 227.238 180.218 227.099 180.79L226.89 181.624C226.89 181.686 226.96 181.717 227.099 181.717C227.238 181.717 227.694 181.732 228.466 181.763H228.86C229.355 181.763 229.749 181.756 230.042 181.74C230.336 181.725 230.714 181.671 231.178 181.578C231.641 181.485 232.028 181.346 232.337 181.161C232.646 180.975 232.986 180.713 233.357 180.373C233.727 180.033 234.052 179.608 234.33 179.098C234.577 178.635 234.809 178.117 235.025 177.545C235.242 176.974 235.373 176.649 235.419 176.572C235.496 176.525 235.628 176.502 235.813 176.502H236.115C236.207 176.641 236.254 176.726 236.254 176.757C236.254 176.788 236.099 177.244 235.79 178.125C235.481 179.005 235.141 179.932 234.77 180.906C234.399 181.879 234.199 182.451 234.168 182.621C234.137 182.698 234.106 182.745 234.075 182.76C234.044 182.775 233.92 182.799 233.704 182.83C233.488 182.86 233.156 182.868 232.708 182.853C232.538 182.853 231.95 182.853 230.946 182.853C229.942 182.853 228.984 182.845 228.072 182.83H223.947C222.649 182.83 222 182.752 222 182.598C222 182.49 222.015 182.381 222.046 182.273C222.124 181.98 222.201 181.817 222.278 181.787C222.34 181.771 222.456 181.763 222.626 181.763H222.765C223.182 181.763 223.646 181.74 224.155 181.694C224.372 181.648 224.519 181.555 224.596 181.416C224.642 181.354 225.198 179.206 226.264 174.973C227.331 170.739 227.864 168.506 227.864 168.275C227.864 168.166 227.423 168.097 226.543 168.066Z" fill="black"/>
<path d="M237.528 176.178C237.528 176.054 237.598 175.815 237.737 175.459C237.876 175.104 238.069 174.702 238.316 174.254C238.564 173.806 238.903 173.42 239.336 173.095C239.769 172.771 240.225 172.601 240.704 172.586C241.414 172.586 241.947 172.779 242.303 173.165C242.658 173.551 242.836 174.007 242.836 174.532C242.836 174.811 242.573 175.676 242.048 177.128C241.522 178.581 241.26 179.67 241.26 180.396C241.26 181.06 241.368 181.524 241.584 181.787C241.801 182.049 242.125 182.188 242.558 182.204C242.99 182.219 243.4 182.088 243.786 181.81C244.172 181.532 244.458 181.269 244.644 181.022L244.898 180.628C244.929 180.566 245.223 179.392 245.779 177.105C246.243 175.251 246.521 174.169 246.614 173.86C246.706 173.551 246.814 173.327 246.938 173.188C247.201 172.956 247.479 172.841 247.772 172.841C248.035 172.841 248.228 172.918 248.352 173.072C248.475 173.227 248.537 173.374 248.537 173.513L246.776 180.883C246.76 180.96 246.753 181.084 246.753 181.254C246.753 181.64 246.807 181.895 246.915 182.018C247.023 182.142 247.185 182.212 247.402 182.227C247.741 182.181 248.012 181.941 248.213 181.509C248.414 181.076 248.645 180.396 248.908 179.469C248.939 179.345 249.093 179.284 249.372 179.284C249.665 179.284 249.812 179.353 249.812 179.492C249.796 179.569 249.781 179.678 249.766 179.817C249.75 179.956 249.681 180.203 249.557 180.558C249.433 180.914 249.302 181.246 249.163 181.555C249.024 181.864 248.831 182.158 248.584 182.436C248.336 182.714 248.058 182.907 247.749 183.015C247.626 183.046 247.44 183.061 247.193 183.061C246.173 183.061 245.47 182.629 245.084 181.764C245.053 181.779 244.968 181.856 244.829 181.995C244.69 182.134 244.551 182.25 244.412 182.343C244.273 182.436 244.103 182.552 243.902 182.691C243.701 182.83 243.477 182.922 243.23 182.969C242.983 183.015 242.72 183.054 242.442 183.085C241.762 183.085 241.159 182.946 240.634 182.667C239.831 182.188 239.429 181.37 239.429 180.211C239.429 179.33 239.699 178.179 240.24 176.757C240.781 175.336 241.051 174.432 241.051 174.046C241.051 174.03 241.051 174.015 241.051 173.999C241.051 173.86 241.051 173.768 241.051 173.721C241.051 173.675 241.02 173.621 240.958 173.559C240.897 173.497 240.812 173.466 240.704 173.466H240.611C240.255 173.466 239.931 173.613 239.637 173.907C239.344 174.2 239.112 174.517 238.942 174.857C238.772 175.197 238.641 175.521 238.548 175.83C238.455 176.139 238.394 176.309 238.363 176.34C238.332 176.371 238.208 176.387 237.992 176.387H237.667C237.575 176.294 237.528 176.224 237.528 176.178Z" fill="black"/>
<path d="M252.28 175.718C252.28 175.609 252.302 175.483 252.346 175.341C252.39 175.199 252.455 175.128 252.543 175.128C252.554 175.128 252.947 175.101 253.722 175.046C254.498 174.992 254.897 174.959 254.919 174.948C255.05 174.948 255.115 174.992 255.115 175.079C255.115 175.156 254.842 176.297 254.296 178.504C253.75 180.667 253.477 181.786 253.477 181.863C253.684 181.754 253.843 181.65 253.952 181.551C254.214 181.355 254.591 181.011 255.082 180.519C255.574 180.028 255.956 179.694 256.229 179.52C256.666 179.225 257.081 179.077 257.475 179.077C257.802 179.077 258.059 179.181 258.245 179.389C258.431 179.596 258.529 179.891 258.54 180.273C258.54 180.546 258.502 180.776 258.425 180.962C258.349 181.147 258.245 181.284 258.114 181.371C257.983 181.459 257.868 181.519 257.77 181.551C257.671 181.584 257.573 181.601 257.475 181.601C257.256 181.601 257.081 181.541 256.95 181.42C256.819 181.3 256.754 181.142 256.754 180.945C256.754 180.672 256.841 180.448 257.016 180.273C257.191 180.099 257.366 179.984 257.54 179.929L257.802 179.88C257.671 179.749 257.54 179.684 257.409 179.684H257.344C256.994 179.716 256.65 179.853 256.311 180.093C255.973 180.333 255.574 180.683 255.115 181.142C254.656 181.601 254.296 181.934 254.034 182.141C254.056 182.152 254.137 182.169 254.28 182.191C254.422 182.212 254.553 182.245 254.673 182.289C254.793 182.333 254.935 182.376 255.099 182.42C255.263 182.464 255.41 182.54 255.541 182.649C255.672 182.759 255.792 182.857 255.902 182.944C256.011 183.032 256.104 183.174 256.18 183.37C256.257 183.567 256.29 183.747 256.279 183.911C256.279 184.097 256.251 184.321 256.197 184.583C256.142 184.845 256.109 185.064 256.098 185.238C256.098 185.675 256.246 185.894 256.541 185.894C257.065 185.894 257.491 185.244 257.819 183.944C257.841 183.856 257.95 183.813 258.147 183.813H258.212C258.387 183.813 258.474 183.862 258.474 183.96C258.474 184.015 258.458 184.091 258.425 184.19C257.977 185.73 257.333 186.5 256.492 186.5C256 186.5 255.601 186.358 255.295 186.074C254.99 185.79 254.837 185.38 254.837 184.845C254.837 184.648 254.853 184.479 254.886 184.337C254.919 184.195 254.935 184.064 254.935 183.944C254.935 183.703 254.858 183.496 254.706 183.321C254.553 183.146 254.361 183.021 254.132 182.944C253.903 182.868 253.717 182.808 253.575 182.764C253.433 182.72 253.335 182.704 253.28 182.715H253.247C253.116 183.174 253.001 183.616 252.903 184.042C252.805 184.468 252.728 184.785 252.674 184.993C252.619 185.2 252.57 185.402 252.526 185.599C252.483 185.795 252.444 185.926 252.412 185.992C252.379 186.058 252.341 186.129 252.297 186.205C252.253 186.282 252.193 186.331 252.117 186.353C251.975 186.451 251.822 186.5 251.658 186.5C251.472 186.5 251.33 186.445 251.232 186.336C251.133 186.227 251.084 186.134 251.084 186.058C251.084 185.948 251.286 185.074 251.691 183.436C252.095 181.797 252.493 180.186 252.887 178.602L253.493 176.226C253.504 176.084 253.466 175.997 253.378 175.964C253.291 175.931 253.078 175.904 252.739 175.882H252.657C252.548 175.882 252.477 175.882 252.444 175.882C252.412 175.882 252.373 175.866 252.33 175.833C252.286 175.8 252.27 175.762 252.28 175.718Z" fill="black"/>
<path d="M96.5283 242.178C96.5283 242.054 96.5978 241.815 96.7369 241.459C96.876 241.104 97.0691 240.702 97.3163 240.254C97.5635 239.806 97.9035 239.42 98.3361 239.095C98.7687 238.771 99.2245 238.601 99.7035 238.586C100.414 238.586 100.947 238.779 101.303 239.165C101.658 239.551 101.836 240.007 101.836 240.532C101.836 240.811 101.573 241.676 101.048 243.128C100.522 244.581 100.26 245.67 100.26 246.396C100.26 247.06 100.368 247.524 100.584 247.787C100.801 248.049 101.125 248.188 101.558 248.204C101.99 248.219 102.4 248.088 102.786 247.81C103.172 247.532 103.458 247.269 103.644 247.022L103.898 246.628C103.929 246.566 104.223 245.392 104.779 243.105C105.243 241.251 105.521 240.169 105.614 239.86C105.706 239.551 105.814 239.327 105.938 239.188C106.201 238.956 106.479 238.841 106.772 238.841C107.035 238.841 107.228 238.918 107.352 239.072C107.475 239.227 107.537 239.374 107.537 239.513L105.776 246.883C105.76 246.96 105.753 247.084 105.753 247.254C105.753 247.64 105.807 247.895 105.915 248.018C106.023 248.142 106.185 248.212 106.402 248.227C106.741 248.181 107.012 247.941 107.213 247.509C107.414 247.076 107.645 246.396 107.908 245.469C107.939 245.345 108.093 245.284 108.372 245.284C108.665 245.284 108.812 245.353 108.812 245.492C108.796 245.569 108.781 245.678 108.766 245.817C108.75 245.956 108.681 246.203 108.557 246.558C108.433 246.914 108.302 247.246 108.163 247.555C108.024 247.864 107.831 248.158 107.584 248.436C107.336 248.714 107.058 248.907 106.749 249.015C106.626 249.046 106.44 249.061 106.193 249.061C105.173 249.061 104.47 248.629 104.084 247.764C104.053 247.779 103.968 247.856 103.829 247.995C103.69 248.134 103.551 248.25 103.412 248.343C103.273 248.436 103.103 248.552 102.902 248.691C102.701 248.83 102.477 248.922 102.23 248.969C101.983 249.015 101.72 249.054 101.442 249.085C100.762 249.085 100.159 248.946 99.634 248.667C98.8305 248.188 98.4288 247.37 98.4288 246.211C98.4288 245.33 98.6992 244.179 99.24 242.757C99.7808 241.336 100.051 240.432 100.051 240.046C100.051 240.03 100.051 240.015 100.051 239.999C100.051 239.86 100.051 239.768 100.051 239.721C100.051 239.675 100.02 239.621 99.9584 239.559C99.8966 239.497 99.8117 239.466 99.7035 239.466H99.6108C99.2554 239.466 98.931 239.613 98.6374 239.907C98.3438 240.2 98.1121 240.517 97.9421 240.857C97.7721 241.197 97.6408 241.521 97.5481 241.83C97.4554 242.139 97.3936 242.309 97.3627 242.34C97.3318 242.371 97.2082 242.387 96.9919 242.387H96.6674C96.5747 242.294 96.5283 242.224 96.5283 242.178Z" fill="black"/>
<path d="M111.28 241.718C111.28 241.609 111.302 241.483 111.346 241.341C111.39 241.199 111.455 241.128 111.543 241.128C111.554 241.128 111.947 241.101 112.722 241.046C113.498 240.992 113.897 240.959 113.919 240.948C114.05 240.948 114.115 240.992 114.115 241.079C114.115 241.156 113.842 242.297 113.296 244.504C112.75 246.667 112.477 247.786 112.477 247.863C112.684 247.754 112.843 247.65 112.952 247.551C113.214 247.355 113.591 247.011 114.082 246.519C114.574 246.028 114.956 245.694 115.229 245.52C115.666 245.225 116.081 245.077 116.475 245.077C116.802 245.077 117.059 245.181 117.245 245.389C117.431 245.596 117.529 245.891 117.54 246.273C117.54 246.546 117.502 246.776 117.425 246.962C117.349 247.147 117.245 247.284 117.114 247.371C116.983 247.459 116.868 247.519 116.77 247.551C116.671 247.584 116.573 247.601 116.475 247.601C116.256 247.601 116.081 247.541 115.95 247.42C115.819 247.3 115.754 247.142 115.754 246.945C115.754 246.672 115.841 246.448 116.016 246.273C116.191 246.099 116.365 245.984 116.54 245.929L116.802 245.88C116.671 245.749 116.54 245.684 116.409 245.684H116.344C115.994 245.716 115.65 245.853 115.311 246.093C114.973 246.333 114.574 246.683 114.115 247.142C113.656 247.601 113.296 247.934 113.034 248.141C113.056 248.152 113.137 248.169 113.28 248.191C113.422 248.212 113.553 248.245 113.673 248.289C113.793 248.333 113.935 248.376 114.099 248.42C114.263 248.464 114.41 248.54 114.541 248.649C114.672 248.759 114.792 248.857 114.902 248.944C115.011 249.032 115.104 249.174 115.18 249.37C115.257 249.567 115.289 249.747 115.279 249.911C115.279 250.097 115.251 250.321 115.197 250.583C115.142 250.845 115.109 251.064 115.098 251.238C115.098 251.675 115.246 251.894 115.541 251.894C116.065 251.894 116.491 251.244 116.819 249.944C116.841 249.856 116.95 249.813 117.147 249.813H117.212C117.387 249.813 117.474 249.862 117.474 249.96C117.474 250.015 117.458 250.091 117.425 250.19C116.977 251.73 116.333 252.5 115.492 252.5C115 252.5 114.601 252.358 114.295 252.074C113.99 251.79 113.837 251.38 113.837 250.845C113.837 250.648 113.853 250.479 113.886 250.337C113.919 250.195 113.935 250.064 113.935 249.944C113.935 249.703 113.858 249.496 113.706 249.321C113.553 249.146 113.361 249.021 113.132 248.944C112.903 248.868 112.717 248.808 112.575 248.764C112.433 248.72 112.335 248.704 112.28 248.715H112.247C112.116 249.174 112.001 249.616 111.903 250.042C111.805 250.468 111.728 250.785 111.674 250.993C111.619 251.2 111.57 251.402 111.526 251.599C111.483 251.795 111.444 251.926 111.412 251.992C111.379 252.058 111.341 252.129 111.297 252.205C111.253 252.282 111.193 252.331 111.117 252.353C110.975 252.451 110.822 252.5 110.658 252.5C110.472 252.5 110.33 252.445 110.232 252.336C110.133 252.227 110.084 252.134 110.084 252.058C110.084 251.948 110.286 251.074 110.691 249.436C111.095 247.797 111.493 246.186 111.887 244.602L112.493 242.226C112.504 242.084 112.466 241.997 112.378 241.964C112.291 241.931 112.078 241.904 111.739 241.882H111.657C111.548 241.882 111.477 241.882 111.444 241.882C111.412 241.882 111.373 241.866 111.33 241.833C111.286 241.8 111.27 241.762 111.28 241.718Z" fill="black"/>
<path d="M231.361 128.286C231.447 128.237 231.541 128.226 231.642 128.253C231.744 128.28 231.822 128.342 231.878 128.438C231.934 128.535 231.94 128.632 231.896 128.729C231.891 128.746 230.842 130.274 228.75 133.312L225.64 137.811L230.727 137.405C234.658 137.081 236.661 136.933 236.735 136.962C236.804 137.007 236.854 137.057 236.885 137.111C236.997 137.304 236.962 137.467 236.781 137.6L236.685 137.655L230.788 138.143C226.829 138.469 224.832 138.628 224.798 138.619C224.692 138.608 224.602 138.539 224.528 138.41C224.47 138.286 224.487 138.155 224.579 138.016C224.64 137.923 225.756 136.314 227.927 133.187C230.097 130.06 231.2 128.465 231.235 128.402C231.266 128.356 231.308 128.317 231.361 128.286ZM228.873 145.899C228.811 145.791 228.829 145.638 228.928 145.437L238.244 140.059C238.453 140.024 238.601 140.082 238.687 140.232C238.762 140.361 238.743 140.515 238.632 140.693L229.284 146.09C229.09 146.102 228.953 146.038 228.873 145.899Z" fill="black"/>
<path d="M239.835 122.601C239.76 122.472 239.787 122.307 239.913 122.105L240.219 121.928C241.203 121.403 241.969 121.318 242.518 121.674C242.675 121.797 243.47 122.468 244.902 123.686C246.335 124.904 247.741 126.088 249.119 127.237C250.498 128.386 251.199 128.982 251.224 129.025C251.423 129.196 251.595 129.333 251.74 129.435C251.885 129.538 251.992 129.612 252.061 129.657C252.13 129.703 252.185 129.736 252.225 129.756C252.265 129.776 252.299 129.785 252.327 129.783C252.354 129.781 252.372 129.8 252.38 129.838C252.388 129.877 252.383 129.943 252.367 130.039L251.273 130.67C250.918 130.675 250.657 130.619 250.489 130.501C250.321 130.383 249.632 129.823 248.423 128.819L246.538 127.226L246.452 127.597C246.412 127.849 246.33 128.29 246.207 128.919C246.084 129.547 245.982 130.078 245.903 130.51C245.814 130.976 245.705 131.554 245.574 132.244C245.399 133.204 245.278 133.774 245.211 133.956C245.144 134.137 245.028 134.283 244.862 134.393C244.476 134.616 244.184 134.556 243.986 134.212C243.881 134.03 243.857 133.815 243.914 133.567C243.971 133.32 244.293 132.169 244.88 130.113C245.022 129.617 245.181 129.061 245.354 128.445C245.528 127.83 245.656 127.37 245.738 127.066L245.863 126.65C245.856 126.639 245.155 126.043 243.758 124.862C242.361 123.681 241.606 123.044 241.495 122.95C241.002 122.591 240.589 122.508 240.257 122.7C240.075 122.805 239.934 122.772 239.835 122.601Z" fill="black"/>
<path d="M251.326 123.821C251.282 123.745 251.247 123.649 251.221 123.533C251.194 123.417 251.211 123.341 251.272 123.306C251.279 123.302 251.541 123.126 252.058 122.777C252.575 122.428 252.838 122.245 252.849 122.229C252.94 122.177 253.003 122.181 253.038 122.241C253.069 122.294 253.337 123.196 253.842 124.947C254.33 126.668 254.589 127.554 254.62 127.607C254.72 127.448 254.788 127.313 254.825 127.201C254.928 126.959 255.052 126.569 255.196 126.031C255.34 125.493 255.472 125.108 255.591 124.877C255.777 124.497 256.006 124.229 256.279 124.071C256.506 123.94 256.726 123.909 256.938 123.979C257.15 124.048 257.337 124.214 257.497 124.475C257.607 124.664 257.672 124.839 257.694 124.998C257.715 125.158 257.698 125.294 257.642 125.407C257.586 125.521 257.53 125.608 257.475 125.671C257.42 125.733 257.358 125.783 257.29 125.823C257.138 125.91 256.993 125.939 256.854 125.908C256.715 125.877 256.606 125.793 256.527 125.657C256.417 125.467 256.388 125.277 256.44 125.085C256.491 124.894 256.566 124.744 256.666 124.636L256.828 124.497C256.684 124.459 256.567 124.466 256.476 124.518L256.431 124.545C256.201 124.707 256.017 124.94 255.878 125.243C255.739 125.545 255.603 125.948 255.468 126.45C255.333 126.953 255.217 127.328 255.118 127.577C255.137 127.576 255.201 127.555 255.308 127.513C255.416 127.471 255.52 127.442 255.621 127.424C255.722 127.406 255.838 127.379 255.969 127.344C256.1 127.309 256.233 127.303 256.368 127.326C256.503 127.349 256.626 127.369 256.737 127.386C256.847 127.403 256.969 127.464 257.101 127.57C257.233 127.676 257.328 127.788 257.386 127.906C257.46 128.035 257.531 128.202 257.598 128.405C257.665 128.609 257.73 128.774 257.792 128.9C257.968 129.203 258.158 129.296 258.362 129.178C258.726 128.967 258.762 128.345 258.468 127.312C258.448 127.242 258.507 127.168 258.643 127.089L258.689 127.063C258.81 126.993 258.89 126.992 258.93 127.06C258.952 127.098 258.971 127.158 258.987 127.239C259.294 128.488 259.155 129.281 258.571 129.618C258.23 129.815 257.896 129.876 257.57 129.802C257.244 129.727 256.973 129.504 256.759 129.133C256.68 128.996 256.624 128.872 256.589 128.76C256.555 128.649 256.514 128.551 256.466 128.468C256.37 128.301 256.233 128.187 256.057 128.127C255.881 128.067 255.698 128.057 255.508 128.095C255.318 128.134 255.165 128.167 255.049 128.194C254.933 128.22 254.858 128.248 254.825 128.278L254.802 128.291C254.895 128.662 254.992 129.015 255.095 129.35C255.197 129.685 255.271 129.936 255.317 130.102C255.362 130.268 255.409 130.428 255.457 130.582C255.506 130.736 255.532 130.842 255.535 130.901C255.539 130.959 255.541 131.024 255.541 131.095C255.541 131.165 255.519 131.223 255.475 131.269C255.416 131.394 255.329 131.49 255.215 131.556C255.087 131.63 254.966 131.649 254.854 131.613C254.742 131.576 254.671 131.531 254.64 131.478C254.596 131.402 254.386 130.715 254.01 129.415C253.634 128.116 253.265 126.837 252.903 125.58L252.372 123.688C252.322 123.585 252.261 123.539 252.187 123.552C252.113 123.564 251.954 123.63 251.71 123.751L251.654 123.784C251.578 123.828 251.528 123.856 251.506 123.869C251.483 123.882 251.45 123.886 251.406 123.881C251.363 123.876 251.336 123.856 251.326 123.821Z" fill="black"/>
<path d="M263.603 123.788C262.895 124.196 262.182 124.372 261.462 124.316C260.743 124.259 260.183 123.896 259.782 123.226C259.367 122.507 259.356 121.62 259.747 120.565L259.843 120.359L259.631 120.289C259.229 120.163 258.933 119.934 258.741 119.601C258.369 118.958 258.412 118.189 258.869 117.296C259.326 116.403 259.972 115.715 260.809 115.232L261.002 115.121C261.624 114.761 262.273 114.609 262.947 114.663C263.293 114.692 263.506 114.776 263.587 114.916C263.655 115.034 263.667 115.191 263.623 115.388C263.58 115.585 263.48 115.735 263.326 115.839C263.229 115.894 263.094 115.908 262.92 115.879C262.747 115.851 262.514 115.857 262.222 115.896C261.93 115.936 261.608 116.058 261.254 116.263C260.546 116.671 259.998 117.159 259.61 117.726C259.223 118.293 259.135 118.773 259.347 119.165C259.465 119.369 259.667 119.51 259.955 119.587C260.107 119.627 260.203 119.644 260.241 119.636C260.279 119.628 260.337 119.58 260.415 119.492C260.661 119.15 261.052 118.824 261.589 118.515L261.669 118.468C262.366 118.066 262.811 118.031 263.003 118.363C263.257 118.803 262.928 119.286 262.016 119.813C261.523 120.097 261.048 120.279 260.592 120.356L260.496 120.561C260.076 121.419 260.042 122.153 260.395 122.765C260.848 123.548 261.787 123.528 263.213 122.704C263.771 122.382 264.196 122.065 264.488 121.753C264.78 121.442 264.934 121.188 264.95 120.993C264.966 120.798 264.989 120.627 265.019 120.481C265.05 120.335 265.107 120.224 265.191 120.146C265.353 120.081 265.481 120.129 265.574 120.29C265.63 120.386 265.651 120.56 265.638 120.81C265.626 121.061 265.571 121.35 265.474 121.678C265.377 122.005 265.166 122.37 264.841 122.773C264.515 123.175 264.103 123.513 263.603 123.788Z" fill="black"/>
</g>
<path d="M309.354 279.854C309.549 279.658 309.549 279.342 309.354 279.146L306.172 275.964C305.976 275.769 305.66 275.769 305.464 275.964C305.269 276.16 305.269 276.476 305.464 276.672L308.293 279.5L305.464 282.328C305.269 282.524 305.269 282.84 305.464 283.036C305.66 283.231 305.976 283.231 306.172 283.036L309.354 279.854ZM-291 280H309V279H-291V280Z" fill="#444444"/>
<path d="M9.85355 0.646423C9.65829 0.451172 9.34171 0.451172 9.14645 0.646423L5.96447 3.82843C5.7692 4.02368 5.7692 4.34027 5.96447 4.53552C6.15973 4.73077 6.47631 4.73077 6.67157 4.53552L9.5 1.70709L12.3284 4.53552C12.5237 4.73077 12.8403 4.73077 13.0355 4.53552C13.2308 4.34027 13.2308 4.02368 13.0355 3.82843L9.85355 0.646423ZM10 601L10 1H9L9 601H10Z" fill="#444444"/>
</g>
<defs>
<clipPath id="clip0">
<rect width="310" height="290" fill="white"/>
</clipPath>
</defs>
</svg>
