<svg width="130" height="164" viewBox="0 0 130 164" fill="none" xmlns="http://www.w3.org/2000/svg">
<g clip-path="url(#clip0)">
<path d="M10 106H60L110 136M120 76L60 106" stroke="black" stroke-width="2"/>
<path d="M119.5 136C119.5 137.089 118.604 138.21 116.847 139.088C115.121 139.952 112.701 140.5 110 140.5C107.299 140.5 104.879 139.952 103.153 139.088C101.396 138.21 100.5 137.089 100.5 136C100.5 134.911 101.396 133.79 103.153 132.912C104.879 132.048 107.299 131.5 110 131.5C112.701 131.5 115.121 132.048 116.847 132.912C118.604 133.79 119.5 134.911 119.5 136Z" fill="#929292" stroke="white"/>
<line x1="110" y1="107" x2="110" y2="136" stroke="#3F6DB1" stroke-width="8"/>
<path d="M69.5 106C69.5 107.089 68.604 108.21 66.8475 109.088C65.1209 109.952 62.7006 110.5 60 110.5C57.2994 110.5 54.8791 109.952 53.1525 109.088C51.396 108.21 50.5 107.089 50.5 106C50.5 104.911 51.396 103.79 53.1525 102.912C54.8791 102.048 57.2994 101.5 60 101.5C62.7006 101.5 65.1209 102.048 66.8475 102.912C68.604 103.79 69.5 104.911 69.5 106Z" fill="#929292" stroke="white"/>
<line x1="60" y1="31" x2="60" y2="106" stroke="#3F6DB1" stroke-width="8"/>
<path d="M19.5 106C19.5 107.089 18.604 108.21 16.8475 109.088C15.1209 109.952 12.7006 110.5 10 110.5C7.29937 110.5 4.87912 109.952 3.15254 109.088C1.39605 108.21 0.5 107.089 0.5 106C0.5 104.911 1.39605 103.79 3.15254 102.912C4.87912 102.048 7.29937 101.5 10 101.5C12.7006 101.5 15.1209 102.048 16.8475 102.912C18.604 103.79 19.5 104.911 19.5 106Z" fill="#929292" stroke="white"/>
<line x1="10" y1="6" x2="10" y2="106" stroke="#3F6DB1" stroke-width="8"/>
<path d="M20.5 30.5L60 30.5L99.5 60.5M109.5 0.5L60 30.5" stroke="#929292" stroke-linecap="square" stroke-dasharray="5 5"/>
<path d="M20 7L15.6699 14.5H24.3301L20 7ZM20.75 31V13.75H19.25V31H20.75Z" fill="#3FB17D"/>
<path d="M100 107L104.33 99.5H95.6699L100 107ZM99.25 60V100.25H100.75V60H99.25Z" fill="#EE7993"/>
<path d="M129.5 76C129.5 77.0893 128.604 78.2101 126.847 79.0883C125.121 79.9516 122.701 80.5 120 80.5C117.299 80.5 114.879 79.9516 113.153 79.0883C111.396 78.2101 110.5 77.0893 110.5 76C110.5 74.9107 111.396 73.7899 113.153 72.9117C114.879 72.0484 117.299 71.5 120 71.5C122.701 71.5 125.121 72.0484 126.847 72.9117C128.604 73.7899 129.5 74.9107 129.5 76Z" fill="#929292" stroke="white"/>
<line x1="120" y1="28" x2="120" y2="76" stroke="#3F6DB1" stroke-width="8"/>
<path d="M110 28L114.33 20.5H105.67L110 28ZM109.25 0V21.25H110.75V0L109.25 0Z" fill="#EE7993"/>
<path d="M60.0346 118.136C60.0346 117.838 60.1525 117.577 60.3883 117.354C60.6241 117.13 60.8972 117.012 61.2074 117C61.4308 117 61.617 117.074 61.7659 117.223C61.9149 117.372 61.9956 117.558 62.008 117.782C62.008 118.067 61.8839 118.328 61.6356 118.564C61.3874 118.8 61.1143 118.924 60.8165 118.936C60.6303 118.936 60.4565 118.874 60.2952 118.75C60.1339 118.626 60.047 118.421 60.0346 118.136ZM57 123.963C57 123.863 57.0559 123.671 57.1676 123.386C57.2793 123.1 57.4282 122.784 57.6144 122.436C57.8005 122.089 58.0736 121.772 58.4335 121.487C58.7934 121.201 59.1658 121.065 59.5505 121.077C60.0346 121.077 60.4379 121.22 60.7606 121.505C61.0833 121.791 61.2509 122.176 61.2633 122.66C61.2633 122.871 61.1764 123.218 61.0026 123.702C60.8289 124.186 60.5807 124.838 60.258 125.657C59.9353 126.476 59.6746 127.177 59.4761 127.761C59.414 128.034 59.383 128.232 59.383 128.356C59.383 128.667 59.4885 128.822 59.6995 128.822C59.8112 128.822 59.9291 128.803 60.0532 128.766C60.1773 128.729 60.32 128.642 60.4814 128.505C60.6427 128.369 60.8103 128.152 60.984 127.854C61.1578 127.556 61.3129 127.19 61.4495 126.755C61.4867 126.606 61.5177 126.519 61.5425 126.495C61.5674 126.47 61.6729 126.457 61.859 126.457C62.1073 126.457 62.2314 126.519 62.2314 126.644C62.2314 126.743 62.1755 126.935 62.0638 127.221C61.9521 127.506 61.797 127.823 61.5984 128.17C61.3998 128.518 61.1206 128.828 60.7606 129.101C60.4007 129.374 60.0159 129.511 59.6064 129.511C59.2092 129.511 58.8431 129.38 58.508 129.12C58.1729 128.859 57.9991 128.462 57.9867 127.928C57.9867 127.717 58.0177 127.519 58.0798 127.332C58.1418 127.146 58.4087 126.439 58.8803 125.21C59.3519 123.957 59.625 123.206 59.6995 122.957C59.7739 122.709 59.8174 122.467 59.8298 122.231C59.8298 121.933 59.7243 121.785 59.5133 121.785H59.4761C59.1037 121.785 58.7624 121.989 58.4521 122.399C58.1418 122.808 57.906 123.33 57.7447 123.963C57.7323 123.975 57.7199 123.994 57.7074 124.019C57.695 124.043 57.6888 124.062 57.6888 124.074C57.6888 124.087 57.6764 124.099 57.6516 124.112C57.6268 124.124 57.6082 124.13 57.5957 124.13C57.5833 124.13 57.5585 124.13 57.5213 124.13C57.484 124.13 57.4344 124.13 57.3723 124.13H57.1117C57.0372 124.056 57 124 57 123.963Z" fill="black"/>
<path d="M8.74419 118.208C8.74419 117.824 8.87431 117.527 9.13457 117.316C9.39482 117.105 9.66127 117 9.93392 117C10.1446 117 10.3181 117.062 10.4544 117.186C10.5908 117.31 10.6775 117.483 10.7147 117.706C10.7147 118.053 10.5969 118.345 10.3615 118.58C10.126 118.816 9.85336 118.933 9.54354 118.933C9.32046 118.933 9.13457 118.871 8.98585 118.747C8.83713 118.623 8.75658 118.444 8.74419 118.208ZM8.57688 122.298C8.57688 121.939 8.41577 121.759 8.09355 121.759C7.8209 121.759 7.56065 121.833 7.31279 121.982C7.06493 122.131 6.84805 122.323 6.66215 122.558C6.47625 122.794 6.32754 123.023 6.216 123.246C6.10446 123.469 5.99912 123.667 5.89998 123.841L5.76985 124.101C5.74506 124.114 5.64592 124.12 5.47242 124.12H5.21216C5.1378 124.045 5.10062 123.996 5.10062 123.971C5.10062 123.946 5.12541 123.866 5.17498 123.729C5.43524 123.122 5.80083 122.552 6.27177 122.019C6.74271 121.486 7.288 121.176 7.90765 121.09H8.05637C8.14312 121.09 8.21748 121.084 8.27945 121.071C8.57688 121.084 8.84953 121.145 9.09739 121.257C9.40721 121.431 9.64268 121.623 9.80379 121.833C9.9649 122.044 10.0455 122.372 10.0455 122.819V123.116L9.13457 126.815C8.50252 129.294 8.16791 130.583 8.13073 130.682C7.90765 131.302 7.4739 131.853 6.82946 132.336C6.18502 132.82 5.44763 133.068 4.61729 133.08C3.99764 133.08 3.57628 132.95 3.3532 132.69C3.13013 132.429 3.01239 132.144 3 131.834C3 131.5 3.11773 131.215 3.3532 130.979C3.58867 130.744 3.87371 130.62 4.20832 130.608C4.41901 130.608 4.59871 130.67 4.74742 130.793C4.89614 130.917 4.97669 131.109 4.98909 131.37C4.98909 131.816 4.7908 132.157 4.39422 132.392C4.46858 132.405 4.55533 132.411 4.65447 132.411C5.07584 132.411 5.46002 132.237 5.80703 131.89C6.15403 131.543 6.42049 131.134 6.60638 130.663L6.81087 129.883C6.94719 129.35 7.1083 128.705 7.2942 127.949C7.48009 127.193 7.67838 126.419 7.88906 125.626C8.09975 124.832 8.26705 124.145 8.39098 123.562C8.51491 122.98 8.58308 122.626 8.59547 122.503C8.59547 122.416 8.58927 122.348 8.57688 122.298Z" fill="black"/>
<path d="M13.6848 124.491L13.5139 124.556C13.3913 124.6 13.216 124.644 12.9882 124.688C12.7604 124.731 12.5063 124.762 12.2259 124.78H11.9762V124.175H12.2259C12.6377 124.158 13.0189 124.092 13.3694 123.978C13.7198 123.864 13.9652 123.759 14.1054 123.663C14.2455 123.566 14.3682 123.47 14.4734 123.373C14.4909 123.347 14.5434 123.334 14.6311 123.334C14.7099 123.334 14.7844 123.36 14.8545 123.413V127.342L14.8676 131.285C14.929 131.347 14.9815 131.386 15.0254 131.404C15.0692 131.421 15.1743 131.439 15.3408 131.456C15.5073 131.474 15.7789 131.482 16.1556 131.482H16.4974V132.087H16.3528C16.1688 132.061 15.4722 132.048 14.2631 132.048C13.0714 132.048 12.3836 132.061 12.1996 132.087H12.0419V131.482H12.8831C13.0233 131.482 13.1328 131.478 13.2116 131.469C13.2905 131.461 13.3606 131.447 13.4219 131.43C13.4833 131.412 13.5183 131.404 13.5271 131.404C13.5358 131.404 13.5621 131.382 13.6059 131.338C13.6497 131.294 13.676 131.277 13.6848 131.285V124.491Z" fill="black"/>
<path d="M108.744 148.208C108.744 147.824 108.874 147.527 109.135 147.316C109.395 147.105 109.661 147 109.934 147C110.145 147 110.318 147.062 110.454 147.186C110.591 147.31 110.678 147.483 110.715 147.706C110.715 148.053 110.597 148.345 110.361 148.58C110.126 148.816 109.853 148.933 109.544 148.933C109.32 148.933 109.135 148.871 108.986 148.747C108.837 148.623 108.757 148.444 108.744 148.208ZM108.577 152.298C108.577 151.939 108.416 151.759 108.094 151.759C107.821 151.759 107.561 151.833 107.313 151.982C107.065 152.131 106.848 152.323 106.662 152.558C106.476 152.794 106.328 153.023 106.216 153.246C106.104 153.469 105.999 153.667 105.9 153.841L105.77 154.101C105.745 154.114 105.646 154.12 105.472 154.12H105.212C105.138 154.045 105.101 153.996 105.101 153.971C105.101 153.946 105.125 153.866 105.175 153.729C105.435 153.122 105.801 152.552 106.272 152.019C106.743 151.486 107.288 151.176 107.908 151.09H108.056C108.143 151.09 108.217 151.084 108.279 151.071C108.577 151.084 108.85 151.145 109.097 151.257C109.407 151.431 109.643 151.623 109.804 151.833C109.965 152.044 110.045 152.372 110.045 152.819V153.116L109.135 156.815C108.503 159.294 108.168 160.583 108.131 160.682C107.908 161.302 107.474 161.853 106.829 162.336C106.185 162.82 105.448 163.068 104.617 163.08C103.998 163.08 103.576 162.95 103.353 162.69C103.13 162.429 103.012 162.144 103 161.834C103 161.5 103.118 161.215 103.353 160.979C103.589 160.744 103.874 160.62 104.208 160.608C104.419 160.608 104.599 160.67 104.747 160.793C104.896 160.917 104.977 161.109 104.989 161.37C104.989 161.816 104.791 162.157 104.394 162.392C104.469 162.405 104.555 162.411 104.654 162.411C105.076 162.411 105.46 162.237 105.807 161.89C106.154 161.543 106.42 161.134 106.606 160.663L106.811 159.883C106.947 159.35 107.108 158.705 107.294 157.949C107.48 157.193 107.678 156.419 107.889 155.626C108.1 154.832 108.267 154.145 108.391 153.562C108.515 152.98 108.583 152.626 108.595 152.503C108.595 152.416 108.589 152.348 108.577 152.298Z" fill="black"/>
<path d="M112.318 156.449C112.081 156.449 111.893 156.37 111.753 156.212C111.613 156.055 111.542 155.862 111.542 155.634C111.542 155.012 111.775 154.473 112.239 154.017C112.703 153.562 113.282 153.334 113.974 153.334C114.771 153.334 115.437 153.579 115.972 154.07C116.506 154.561 116.778 155.196 116.786 155.976C116.786 156.352 116.699 156.712 116.524 157.053C116.348 157.395 116.138 157.693 115.893 157.947C115.647 158.201 115.297 158.525 114.841 158.92C114.526 159.191 114.088 159.594 113.527 160.129L112.752 160.865L113.75 160.878C115.126 160.878 115.858 160.856 115.945 160.812C116.007 160.795 116.112 160.405 116.261 159.642V159.603H116.786V159.642C116.778 159.669 116.721 160.067 116.616 160.838C116.51 161.61 116.445 162.013 116.418 162.048V162.087H111.542V161.68C111.542 161.618 111.569 161.553 111.621 161.482C111.674 161.412 111.805 161.259 112.016 161.022C112.27 160.742 112.489 160.497 112.673 160.286C112.752 160.199 112.901 160.037 113.12 159.8C113.339 159.564 113.488 159.402 113.566 159.314C113.645 159.226 113.772 159.082 113.948 158.88C114.123 158.679 114.245 158.53 114.316 158.433C114.386 158.337 114.486 158.206 114.618 158.039C114.749 157.873 114.841 157.732 114.894 157.618C114.946 157.505 115.012 157.378 115.091 157.237C115.17 157.097 115.227 156.957 115.262 156.817C115.297 156.677 115.328 156.545 115.354 156.423C115.38 156.3 115.393 156.155 115.393 155.989C115.393 155.437 115.244 154.959 114.946 154.556C114.649 154.153 114.224 153.952 113.672 153.952C113.382 153.952 113.128 154.026 112.909 154.175C112.69 154.324 112.537 154.469 112.449 154.609C112.362 154.749 112.318 154.832 112.318 154.859C112.318 154.867 112.34 154.872 112.384 154.872C112.541 154.872 112.703 154.933 112.87 155.056C113.036 155.178 113.12 155.38 113.12 155.66C113.12 155.879 113.049 156.063 112.909 156.212C112.769 156.361 112.572 156.44 112.318 156.449Z" fill="black"/>
<path d="M118.744 88.2083C118.744 87.8241 118.874 87.5267 119.135 87.316C119.395 87.1053 119.661 87 119.934 87C120.145 87 120.318 87.062 120.454 87.1859C120.591 87.3098 120.678 87.4833 120.715 87.7064C120.715 88.0534 120.597 88.3446 120.361 88.5801C120.126 88.8156 119.853 88.9333 119.544 88.9333C119.32 88.9333 119.135 88.8713 118.986 88.7474C118.837 88.6235 118.757 88.4438 118.744 88.2083ZM118.577 92.298C118.577 91.9386 118.416 91.7589 118.094 91.7589C117.821 91.7589 117.561 91.8333 117.313 91.982C117.065 92.1307 116.848 92.3228 116.662 92.5583C116.476 92.7937 116.328 93.023 116.216 93.2461C116.104 93.4692 115.999 93.6675 115.9 93.841L115.77 94.1012C115.745 94.1136 115.646 94.1198 115.472 94.1198H115.212C115.138 94.0454 115.101 93.9959 115.101 93.9711C115.101 93.9463 115.125 93.8657 115.175 93.7294C115.435 93.1222 115.801 92.5521 116.272 92.0192C116.743 91.4863 117.288 91.1764 117.908 91.0897H118.056C118.143 91.0897 118.217 91.0835 118.279 91.0711C118.577 91.0835 118.85 91.1455 119.097 91.257C119.407 91.4305 119.643 91.6226 119.804 91.8333C119.965 92.044 120.045 92.3724 120.045 92.8185V93.116L119.135 96.8153C118.503 99.2939 118.168 100.583 118.131 100.682C117.908 101.302 117.474 101.853 116.829 102.336C116.185 102.82 115.448 103.068 114.617 103.08C113.998 103.08 113.576 102.95 113.353 102.69C113.13 102.429 113.012 102.144 113 101.834C113 101.5 113.118 101.215 113.353 100.979C113.589 100.744 113.874 100.62 114.208 100.608C114.419 100.608 114.599 100.67 114.747 100.793C114.896 100.917 114.977 101.109 114.989 101.37C114.989 101.816 114.791 102.157 114.394 102.392C114.469 102.405 114.555 102.411 114.654 102.411C115.076 102.411 115.46 102.237 115.807 101.89C116.154 101.543 116.42 101.134 116.606 100.663L116.811 99.8826C116.947 99.3497 117.108 98.7052 117.294 97.9493C117.48 97.1933 117.678 96.4187 117.889 95.6256C118.1 94.8324 118.267 94.1446 118.391 93.5621C118.515 92.9796 118.583 92.6264 118.595 92.5025C118.595 92.4158 118.589 92.3476 118.577 92.298Z" fill="black"/>
<path d="M122.555 96.002C122.318 96.002 122.134 95.9275 122.003 95.7786C121.871 95.6296 121.801 95.4369 121.792 95.2003C121.792 94.7184 122.003 94.2891 122.423 93.9123C122.844 93.5355 123.352 93.3471 123.948 93.3471C124.254 93.3471 124.447 93.3515 124.526 93.3603C125.174 93.4654 125.669 93.6976 126.011 94.0569C126.353 94.4161 126.528 94.806 126.537 95.2266C126.537 95.6822 126.388 96.1247 126.09 96.554C125.792 96.9833 125.38 97.2944 124.855 97.4871L124.815 97.5134C124.815 97.5222 124.855 97.5353 124.933 97.5529C125.012 97.5704 125.139 97.6098 125.315 97.6711C125.49 97.7325 125.656 97.8245 125.814 97.9471C126.532 98.4115 126.892 99.0249 126.892 99.7871C126.892 100.479 126.62 101.084 126.077 101.601C125.534 102.118 124.846 102.376 124.013 102.376C123.312 102.376 122.708 102.188 122.2 101.811C121.691 101.434 121.437 100.957 121.437 100.379C121.437 100.133 121.516 99.9361 121.674 99.7871C121.832 99.6382 122.029 99.5593 122.265 99.5506C122.511 99.5506 122.712 99.6294 122.87 99.7871C123.028 99.9449 123.107 100.142 123.107 100.379C123.107 100.475 123.093 100.563 123.067 100.641C123.041 100.72 123.01 100.79 122.975 100.852C122.94 100.913 122.892 100.966 122.831 101.009C122.769 101.053 122.717 101.088 122.673 101.115C122.629 101.141 122.585 101.158 122.541 101.167C122.498 101.176 122.463 101.189 122.436 101.207L122.384 101.22C122.831 101.614 123.374 101.811 124.013 101.811C124.495 101.811 124.859 101.579 125.104 101.115C125.253 100.825 125.328 100.383 125.328 99.7871V99.5243C125.328 98.6919 125.047 98.1355 124.487 97.8551C124.355 97.8026 124.088 97.7719 123.685 97.7631L123.133 97.75L123.093 97.7237C123.076 97.6974 123.067 97.6273 123.067 97.5134C123.067 97.3557 123.102 97.2769 123.172 97.2769C123.418 97.2769 123.672 97.255 123.935 97.2111C124.232 97.1673 124.504 96.9833 124.749 96.6591C124.995 96.335 125.117 95.8443 125.117 95.1871V95.082C125.117 94.5826 124.964 94.2365 124.657 94.0437C124.465 93.9211 124.259 93.8597 124.04 93.8597C123.759 93.8597 123.501 93.9079 123.264 94.0043C123.028 94.1007 122.861 94.2014 122.765 94.3066C122.668 94.4117 122.62 94.4643 122.62 94.4643H122.66C122.686 94.4731 122.721 94.4818 122.765 94.4906C122.809 94.4993 122.852 94.5212 122.896 94.5563C122.94 94.5913 122.993 94.622 123.054 94.6483C123.115 94.6746 123.159 94.7228 123.185 94.7929C123.212 94.863 123.247 94.9287 123.291 94.99C123.334 95.0513 123.347 95.139 123.33 95.2529C123.33 95.4456 123.269 95.6165 123.146 95.7654C123.023 95.9144 122.826 95.9932 122.555 96.002Z" fill="black"/>
</g>
<defs>
<clipPath id="clip0">
<rect width="130" height="163.08" fill="white"/>
</clipPath>
</defs>
</svg>
