<svg height="100.0" width="750"><line x1="2" y1="0" x2="2" y2="100.0"style="stroke:rgb(0,0,0);stroke-width:3;" />
<line x1="7" y1="0" x2="7" y2="100.0"style="stroke:rgb(0,0,0);stroke-width:3;" />
<line x1="12" y1="0" x2="12" y2="100.0"style="stroke:rgb(0,0,0);stroke-width:3;" />
<line x1="17" y1="0" x2="17" y2="100.0"style="stroke:rgb(0,0,0);stroke-width:3;" />
<line x1="22" y1="0" x2="22" y2="100.0"style="stroke:rgb(0,0,0);stroke-width:3;" />
<line x1="27" y1="0" x2="27" y2="100.0"style="stroke:rgb(0,0,0);stroke-width:3;" />
<line x1="32" y1="0" x2="32" y2="100.0"style="stroke:rgb(0,0,0);stroke-width:3;" />
<line x1="37" y1="0" x2="37" y2="100.0"style="stroke:rgb(0,0,0);stroke-width:3;" />
<line x1="42" y1="0" x2="42" y2="100.0"style="stroke:rgb(0,0,0);stroke-width:3;" />
<line x1="47" y1="0" x2="47" y2="100.0"style="stroke:rgb(0,0,0);stroke-width:3;" />
<line x1="52" y1="0" x2="52" y2="100.0"style="stroke:rgb(0,0,0);stroke-width:3;" />
<line x1="57" y1="0" x2="57" y2="100.0"style="stroke:rgb(0,0,0);stroke-width:3;" />
<line x1="62" y1="0" x2="62" y2="100.0"style="stroke:rgb(0,0,0);stroke-width:3;" />
<line x1="67" y1="0" x2="67" y2="100.0"style="stroke:rgb(0,0,0);stroke-width:3;" />
<line x1="72" y1="0" x2="72" y2="100.0"style="stroke:rgb(0,0,0);stroke-width:3;" />
<line x1="77" y1="0" x2="77" y2="100.0"style="stroke:rgb(0,0,0);stroke-width:3;" />
<line x1="82" y1="0" x2="82" y2="100.0"style="stroke:rgb(0,0,0);stroke-width:3;" />
<line x1="87" y1="0" x2="87" y2="100.0"style="stroke:rgb(0,0,0);stroke-width:3;" />
<line x1="92" y1="0" x2="92" y2="100.0"style="stroke:rgb(0,0,0);stroke-width:3;" />
<line x1="97" y1="0" x2="97" y2="100.0"style="stroke:rgb(0,0,0);stroke-width:3;" />
<line x1="102" y1="0" x2="102" y2="100.0"style="stroke:rgb(0,0,0);stroke-width:3;" />
<line x1="107" y1="0" x2="107" y2="100.0"style="stroke:rgb(0,0,0);stroke-width:3;" />
<line x1="112" y1="0" x2="112" y2="100.0"style="stroke:rgb(0,0,0);stroke-width:3;" />
<line x1="117" y1="0" x2="117" y2="100.0"style="stroke:rgb(0,0,0);stroke-width:3;" />
<line x1="122" y1="0" x2="122" y2="100.0"style="stroke:rgb(0,0,0);stroke-width:3;" />
<line x1="127" y1="0" x2="127" y2="100.0"style="stroke:rgb(0,0,0);stroke-width:3;" />
<line x1="132" y1="0" x2="132" y2="100.0"style="stroke:rgb(0,0,0);stroke-width:3;" />
<line x1="137" y1="0" x2="137" y2="100.0"style="stroke:rgb(0,0,0);stroke-width:3;" />
<line x1="142" y1="0" x2="142" y2="100.0"style="stroke:rgb(0,0,0);stroke-width:3;" />
<line x1="147" y1="0" x2="147" y2="100.0"style="stroke:rgb(0,0,0);stroke-width:3;" />
<line x1="152" y1="0" x2="152" y2="100.0"style="stroke:rgb(0,0,0);stroke-width:3;" />
<line x1="157" y1="0" x2="157" y2="100.0"style="stroke:rgb(0,0,0);stroke-width:3;" />
<line x1="162" y1="0" x2="162" y2="100.0"style="stroke:rgb(0,0,0);stroke-width:3;" />
<line x1="167" y1="0" x2="167" y2="100.0"style="stroke:rgb(0,0,0);stroke-width:3;" />
<line x1="172" y1="0" x2="172" y2="100.0"style="stroke:rgb(0,0,0);stroke-width:3;" />
<line x1="177" y1="0" x2="177" y2="100.0"style="stroke:rgb(0,0,0);stroke-width:3;" />
<line x1="182" y1="0" x2="182" y2="100.0"style="stroke:rgb(0,0,0);stroke-width:3;" />
<line x1="187" y1="0" x2="187" y2="100.0"style="stroke:rgb(0,0,0);stroke-width:3;" />
<line x1="192" y1="0" x2="192" y2="100.0"style="stroke:rgb(0,0,0);stroke-width:3;" />
<line x1="197" y1="0" x2="197" y2="100.0"style="stroke:rgb(0,0,0);stroke-width:3;" />
<line x1="202" y1="0" x2="202" y2="100.0"style="stroke:rgb(0,0,0);stroke-width:3;" />
<line x1="207" y1="0" x2="207" y2="100.0"style="stroke:rgb(0,0,0);stroke-width:3;" />
<line x1="212" y1="0" x2="212" y2="100.0"style="stroke:rgb(0,0,0);stroke-width:3;" />
<line x1="217" y1="0" x2="217" y2="100.0"style="stroke:rgb(0,0,0);stroke-width:3;" />
<line x1="222" y1="0" x2="222" y2="100.0"style="stroke:rgb(0,0,0);stroke-width:3;" />
<line x1="227" y1="0" x2="227" y2="100.0"style="stroke:rgb(0,0,0);stroke-width:3;" />
<line x1="232" y1="0" x2="232" y2="100.0"style="stroke:rgb(0,0,0);stroke-width:3;" />
<line x1="237" y1="0" x2="237" y2="100.0"style="stroke:rgb(0,0,0);stroke-width:3;" />
<line x1="242" y1="0" x2="242" y2="100.0"style="stroke:rgb(0,0,0);stroke-width:3;" />
<line x1="247" y1="0" x2="247" y2="100.0"style="stroke:rgb(0,0,0);stroke-width:3;" />
<line x1="252" y1="0" x2="252" y2="100.0"style="stroke:rgb(0,0,0);stroke-width:3;" />
<line x1="257" y1="0" x2="257" y2="100.0"style="stroke:rgb(0,0,0);stroke-width:3;" />
<line x1="262" y1="0" x2="262" y2="100.0"style="stroke:rgb(0,0,0);stroke-width:3;" />
<line x1="267" y1="0" x2="267" y2="100.0"style="stroke:rgb(0,0,0);stroke-width:3;" />
<line x1="272" y1="0" x2="272" y2="100.0"style="stroke:rgb(0,0,0);stroke-width:3;" />
<line x1="277" y1="0" x2="277" y2="100.0"style="stroke:rgb(0,0,0);stroke-width:3;" />
<line x1="282" y1="0" x2="282" y2="100.0"style="stroke:rgb(0,0,0);stroke-width:3;" />
<line x1="287" y1="0" x2="287" y2="100.0"style="stroke:rgb(0,0,0);stroke-width:3;" />
<line x1="292" y1="0" x2="292" y2="100.0"style="stroke:rgb(0,0,0);stroke-width:3;" />
<line x1="297" y1="0" x2="297" y2="100.0"style="stroke:rgb(0,0,0);stroke-width:3;" />
<line x1="302" y1="0" x2="302" y2="100.0"style="stroke:rgb(0,0,0);stroke-width:3;" />
<line x1="307" y1="0" x2="307" y2="100.0"style="stroke:rgb(0,0,0);stroke-width:3;" />
<line x1="312" y1="0" x2="312" y2="100.0"style="stroke:rgb(0,0,0);stroke-width:3;" />
<line x1="317" y1="0" x2="317" y2="100.0"style="stroke:rgb(0,0,0);stroke-width:3;" />
<line x1="322" y1="0" x2="322" y2="100.0"style="stroke:rgb(0,0,0);stroke-width:3;" />
<line x1="327" y1="0" x2="327" y2="100.0"style="stroke:rgb(0,0,0);stroke-width:3;" />
<line x1="332" y1="0" x2="332" y2="100.0"style="stroke:rgb(0,0,0);stroke-width:3;" />
<line x1="337" y1="0" x2="337" y2="100.0"style="stroke:rgb(0,0,0);stroke-width:3;" />
<line x1="342" y1="0" x2="342" y2="100.0"style="stroke:rgb(0,0,0);stroke-width:3;" />
<line x1="347" y1="0" x2="347" y2="100.0"style="stroke:rgb(0,0,0);stroke-width:3;" />
<line x1="352" y1="0" x2="352" y2="100.0"style="stroke:rgb(0,0,0);stroke-width:3;" />
<line x1="357" y1="0" x2="357" y2="100.0"style="stroke:rgb(0,0,0);stroke-width:3;" />
<line x1="362" y1="0" x2="362" y2="100.0"style="stroke:rgb(0,0,0);stroke-width:3;" />
<line x1="367" y1="0" x2="367" y2="100.0"style="stroke:rgb(0,0,0);stroke-width:3;" />
<line x1="372" y1="0" x2="372" y2="100.0"style="stroke:rgb(0,0,0);stroke-width:3;" />
<line x1="377" y1="0" x2="377" y2="100.0"style="stroke:rgb(0,0,0);stroke-width:3;" />
<line x1="382" y1="0" x2="382" y2="100.0"style="stroke:rgb(0,0,0);stroke-width:3;" />
<line x1="387" y1="0" x2="387" y2="100.0"style="stroke:rgb(0,0,0);stroke-width:3;" />
<line x1="392" y1="0" x2="392" y2="100.0"style="stroke:rgb(0,0,0);stroke-width:3;" />
<line x1="397" y1="0" x2="397" y2="100.0"style="stroke:rgb(0,0,0);stroke-width:3;" />
<line x1="402" y1="0" x2="402" y2="100.0"style="stroke:rgb(0,0,0);stroke-width:3;" />
<line x1="407" y1="0" x2="407" y2="100.0"style="stroke:rgb(0,0,0);stroke-width:3;" />
<line x1="412" y1="0" x2="412" y2="100.0"style="stroke:rgb(0,0,0);stroke-width:3;" />
<line x1="417" y1="0" x2="417" y2="100.0"style="stroke:rgb(0,0,0);stroke-width:3;" />
<line x1="422" y1="0" x2="422" y2="100.0"style="stroke:rgb(0,0,0);stroke-width:3;" />
<line x1="427" y1="0" x2="427" y2="100.0"style="stroke:rgb(0,0,0);stroke-width:3;" />
<line x1="432" y1="0" x2="432" y2="100.0"style="stroke:rgb(0,0,0);stroke-width:3;" />
<line x1="437" y1="0" x2="437" y2="100.0"style="stroke:rgb(0,0,0);stroke-width:3;" />
<line x1="442" y1="0" x2="442" y2="100.0"style="stroke:rgb(0,0,0);stroke-width:3;" />
<line x1="447" y1="0" x2="447" y2="100.0"style="stroke:rgb(0,0,0);stroke-width:3;" />
<line x1="452" y1="0" x2="452" y2="100.0"style="stroke:rgb(0,0,0);stroke-width:3;" />
<line x1="457" y1="0" x2="457" y2="100.0"style="stroke:rgb(0,0,0);stroke-width:3;" />
<line x1="462" y1="0" x2="462" y2="100.0"style="stroke:rgb(0,0,0);stroke-width:3;" />
<line x1="467" y1="0" x2="467" y2="100.0"style="stroke:rgb(0,0,0);stroke-width:3;" />
<line x1="472" y1="0" x2="472" y2="100.0"style="stroke:rgb(0,0,0);stroke-width:3;" />
<line x1="477" y1="0" x2="477" y2="100.0"style="stroke:rgb(0,0,0);stroke-width:3;" />
<line x1="482" y1="0" x2="482" y2="100.0"style="stroke:rgb(0,0,0);stroke-width:3;" />
<line x1="487" y1="0" x2="487" y2="100.0"style="stroke:rgb(0,0,0);stroke-width:3;" />
<line x1="492" y1="0" x2="492" y2="100.0"style="stroke:rgb(0,0,0);stroke-width:3;" />
<line x1="497" y1="0" x2="497" y2="100.0"style="stroke:rgb(0,0,0);stroke-width:3;" />
<line x1="502" y1="0" x2="502" y2="100.0"style="stroke:rgb(0,0,0);stroke-width:3;" />
<line x1="507" y1="0" x2="507" y2="100.0"style="stroke:rgb(0,0,0);stroke-width:3;" />
<line x1="512" y1="0" x2="512" y2="100.0"style="stroke:rgb(0,0,0);stroke-width:3;" />
<line x1="517" y1="0" x2="517" y2="100.0"style="stroke:rgb(0,0,0);stroke-width:3;" />
<line x1="522" y1="0" x2="522" y2="100.0"style="stroke:rgb(0,0,0);stroke-width:3;" />
<line x1="527" y1="0" x2="527" y2="100.0"style="stroke:rgb(0,0,0);stroke-width:3;" />
<line x1="532" y1="0" x2="532" y2="100.0"style="stroke:rgb(0,0,0);stroke-width:3;" />
<line x1="537" y1="0" x2="537" y2="100.0"style="stroke:rgb(0,0,0);stroke-width:3;" />
<line x1="542" y1="0" x2="542" y2="100.0"style="stroke:rgb(0,0,0);stroke-width:3;" />
<line x1="547" y1="0" x2="547" y2="100.0"style="stroke:rgb(0,0,0);stroke-width:3;" />
<line x1="552" y1="0" x2="552" y2="100.0"style="stroke:rgb(0,0,0);stroke-width:3;" />
<line x1="557" y1="0" x2="557" y2="100.0"style="stroke:rgb(0,0,0);stroke-width:3;" />
<line x1="562" y1="0" x2="562" y2="100.0"style="stroke:rgb(0,0,0);stroke-width:3;" />
<line x1="567" y1="0" x2="567" y2="100.0"style="stroke:rgb(0,0,0);stroke-width:3;" />
<line x1="572" y1="0" x2="572" y2="100.0"style="stroke:rgb(0,0,0);stroke-width:3;" />
<line x1="577" y1="0" x2="577" y2="100.0"style="stroke:rgb(0,0,0);stroke-width:3;" />
<line x1="582" y1="0" x2="582" y2="100.0"style="stroke:rgb(0,0,0);stroke-width:3;" />
<line x1="587" y1="0" x2="587" y2="100.0"style="stroke:rgb(0,0,0);stroke-width:3;" />
<line x1="592" y1="0" x2="592" y2="100.0"style="stroke:rgb(0,0,0);stroke-width:3;" />
<line x1="597" y1="0" x2="597" y2="100.0"style="stroke:rgb(0,0,0);stroke-width:3;" />
<line x1="602" y1="0" x2="602" y2="100.0"style="stroke:rgb(0,0,0);stroke-width:3;" />
<line x1="607" y1="0" x2="607" y2="100.0"style="stroke:rgb(0,0,0);stroke-width:3;" />
<line x1="612" y1="0" x2="612" y2="100.0"style="stroke:rgb(0,0,0);stroke-width:3;" />
<line x1="617" y1="0" x2="617" y2="100.0"style="stroke:rgb(0,0,0);stroke-width:3;" />
<line x1="622" y1="0" x2="622" y2="100.0"style="stroke:rgb(0,0,0);stroke-width:3;" />
<line x1="627" y1="0" x2="627" y2="100.0"style="stroke:rgb(0,0,0);stroke-width:3;" />
<line x1="632" y1="0" x2="632" y2="100.0"style="stroke:rgb(0,0,0);stroke-width:3;" />
<line x1="637" y1="0" x2="637" y2="100.0"style="stroke:rgb(0,0,0);stroke-width:3;" />
<line x1="642" y1="0" x2="642" y2="100.0"style="stroke:rgb(0,0,0);stroke-width:3;" />
<line x1="647" y1="0" x2="647" y2="100.0"style="stroke:rgb(0,0,0);stroke-width:3;" />
<line x1="652" y1="0" x2="652" y2="100.0"style="stroke:rgb(0,0,0);stroke-width:3;" />
<line x1="657" y1="0" x2="657" y2="100.0"style="stroke:rgb(0,0,0);stroke-width:3;" />
<line x1="662" y1="0" x2="662" y2="100.0"style="stroke:rgb(0,0,0);stroke-width:3;" />
<line x1="667" y1="0" x2="667" y2="100.0"style="stroke:rgb(0,0,0);stroke-width:3;" />
<line x1="672" y1="0" x2="672" y2="100.0"style="stroke:rgb(0,0,0);stroke-width:3;" />
<line x1="677" y1="0" x2="677" y2="100.0"style="stroke:rgb(0,0,0);stroke-width:3;" />
<line x1="682" y1="0" x2="682" y2="100.0"style="stroke:rgb(0,0,0);stroke-width:3;" />
<line x1="687" y1="0" x2="687" y2="100.0"style="stroke:rgb(0,0,0);stroke-width:3;" />
<line x1="692" y1="0" x2="692" y2="100.0"style="stroke:rgb(0,0,0);stroke-width:3;" />
<line x1="697" y1="0" x2="697" y2="100.0"style="stroke:rgb(0,0,0);stroke-width:3;" />
<line x1="702" y1="0" x2="702" y2="100.0"style="stroke:rgb(0,0,0);stroke-width:3;" />
<line x1="707" y1="0" x2="707" y2="100.0"style="stroke:rgb(0,0,0);stroke-width:3;" />
<line x1="712" y1="0" x2="712" y2="100.0"style="stroke:rgb(0,0,0);stroke-width:3;" />
<line x1="717" y1="0" x2="717" y2="100.0"style="stroke:rgb(0,0,0);stroke-width:3;" />
<line x1="722" y1="0" x2="722" y2="100.0"style="stroke:rgb(0,0,0);stroke-width:3;" />
<line x1="727" y1="0" x2="727" y2="100.0"style="stroke:rgb(0,0,0);stroke-width:3;" />
<line x1="732" y1="0" x2="732" y2="100.0"style="stroke:rgb(0,0,0);stroke-width:3;" />
<line x1="737" y1="0" x2="737" y2="100.0"style="stroke:rgb(0,0,0);stroke-width:3;" />
<line x1="742" y1="0" x2="742" y2="100.0"style="stroke:rgb(0,0,0);stroke-width:3;" />
<line x1="747" y1="0" x2="747" y2="100.0"style="stroke:rgb(0,0,0);stroke-width:3;" /></svg>